<?xml version="1.0" encoding="UTF-8" standalone="no"?>
<svg
   fill-opacity="1"
   color-rendering="auto"
   color-interpolation="auto"
   text-rendering="auto"
   stroke="black"
   stroke-linecap="square"
   width="1570"
   stroke-miterlimit="10"
   shape-rendering="auto"
   stroke-opacity="1"
   fill="black"
   stroke-dasharray="none"
   font-weight="normal"
   stroke-width="1"
   height="423"
   font-family="'Dialog'"
   font-style="normal"
   stroke-linejoin="miter"
   font-size="12px"
   stroke-dashoffset="0"
   image-rendering="auto"
   version="1.1"
   id="svg45"
   sodipodi:docname="compartment_overlapping_example.final.svg"
   inkscape:version="1.3.2 (091e20e, 2023-11-25)"
   xmlns:inkscape="http://www.inkscape.org/namespaces/inkscape"
   xmlns:sodipodi="http://sodipodi.sourceforge.net/DTD/sodipodi-0.dtd"
   xmlns="http://www.w3.org/2000/svg"
   xmlns:svg="http://www.w3.org/2000/svg">
  <sodipodi:namedview
     id="namedview45"
     pagecolor="#ffffff"
     bordercolor="#000000"
     borderopacity="0.25"
     inkscape:showpageshadow="2"
     inkscape:pageopacity="0.0"
     inkscape:pagecheckerboard="0"
     inkscape:deskcolor="#d1d1d1"
     inkscape:zoom="1.2605682"
     inkscape:cx="874.20897"
     inkscape:cy="239.17786"
     inkscape:window-width="1512"
     inkscape:window-height="826"
     inkscape:window-x="0"
     inkscape:window-y="38"
     inkscape:window-maximized="1"
     inkscape:current-layer="g45" />
  <!--Generated by the Batik Graphics2D SVG Generator-->
  <defs
     id="genericDefs" />
  <g
     id="g45">
    <defs
       id="defs1">
      <clipPath
         clipPathUnits="userSpaceOnUse"
         id="clipPath1">
        <path
           d="M0 0 L1670 0 L1670 690 L0 690 L0 0 Z"
           id="path1" />
      </clipPath>
      <clipPath
         clipPathUnits="userSpaceOnUse"
         id="clipPath2">
        <path
           d="M0 0 L0 356 L266 356 L266 0 Z"
           id="path2" />
      </clipPath>
      <clipPath
         clipPathUnits="userSpaceOnUse"
         id="clipPath3">
        <path
           d="M0 0 L0 22 L52 22 L52 0 Z"
           id="path3" />
      </clipPath>
      <clipPath
         clipPathUnits="userSpaceOnUse"
         id="clipPath4">
        <path
           d="M0 0 L0 21 L51 21 L51 0 Z"
           id="path4" />
      </clipPath>
      <clipPath
         clipPathUnits="userSpaceOnUse"
         id="clipPath5">
        <path
           d="M0 0 L0 21 L64 21 L64 0 Z"
           id="path5" />
      </clipPath>
      <clipPath
         clipPathUnits="userSpaceOnUse"
         id="clipPath6">
        <path
           d="M0 0 L0 20 L63 20 L63 0 Z"
           id="path6" />
      </clipPath>
      <clipPath
         clipPathUnits="userSpaceOnUse"
         id="clipPath7">
        <path
           d="M0 0 L0 236 L376 236 L376 0 Z"
           id="path7" />
      </clipPath>
      <clipPath
         clipPathUnits="userSpaceOnUse"
         id="clipPath8">
        <path
           d="M0 0 L0 246 L196 246 L196 0 Z"
           id="path8" />
      </clipPath>
      <clipPath
         clipPathUnits="userSpaceOnUse"
         id="clipPath9">
        <path
           d="M0 0 L0 305 L194 305 L194 0 Z"
           id="path9" />
      </clipPath>
      <clipPath
         clipPathUnits="userSpaceOnUse"
         id="clipPath10">
        <path
           d="M0 0 L0 206 L246 206 L246 0 Z"
           id="path10" />
      </clipPath>
      <clipPath
         clipPathUnits="userSpaceOnUse"
         id="clipPath11">
        <path
           d="M0 0 L0 22 L49 22 L49 0 Z"
           id="path11" />
      </clipPath>
      <clipPath
         clipPathUnits="userSpaceOnUse"
         id="clipPath12">
        <path
           d="M0 0 L0 21 L48 21 L48 0 Z"
           id="path12" />
      </clipPath>
      <clipPath
         clipPathUnits="userSpaceOnUse"
         id="clipPath13">
        <path
           d="M0 0 L0 21 L65 21 L65 0 Z"
           id="path13" />
      </clipPath>
      <clipPath
         clipPathUnits="userSpaceOnUse"
         id="clipPath14">
        <path
           d="M0 0 L0 20 L64 20 L64 0 Z"
           id="path14" />
      </clipPath>
      <clipPath
         clipPathUnits="userSpaceOnUse"
         id="clipPath15">
        <path
           d="M0 0 L0 146 L186 146 L186 0 Z"
           id="path15" />
      </clipPath>
    </defs>
    <g
       stroke-linecap="round"
       font-size="13px"
       transform="translate(111,52)"
       fill="white"
       text-rendering="optimizeLegibility"
       image-rendering="optimizeQuality"
       font-family="'Lucida Grande'"
       stroke-linejoin="round"
       stroke="white"
       stroke-width="4"
       id="g17">
      <path
         d="M2 32 L2 322 C2 338.5685 15.4315 352 32 352 L232 352 C248.5685 352 262 338.5685 262 322 L262 32 C262 15.4315 248.5685 2 232 2 L32 2 C15.4315 2 2 15.4315 2 32 Z"
         stroke="none"
         clip-path="url(#clipPath2)"
         id="path16" />
      <path
         fill="none"
         d="M2 32 L2 322 C2 338.5685 15.4315 352 32 352 L232 352 C248.5685 352 262 338.5685 262 322 L262 32 C262 15.4315 248.5685 2 232 2 L32 2 C15.4315 2 2 15.4315 2 32 Z"
         clip-path="url(#clipPath2)"
         stroke="black"
         id="path17" />
    </g>
    <g
       text-rendering="optimizeLegibility"
       font-size="14px"
       font-family="'Arial'"
       transform="translate(218,58)"
       image-rendering="optimizeQuality"
       id="g18">
      <text
         x="6"
         xml:space="preserve"
         y="15"
         clip-path="url(#clipPath4)"
         stroke="none"
         id="text17">CYTO</text>
    </g>
    <g
       transform="translate(145,44)"
       fill="white"
       text-rendering="optimizeLegibility"
       image-rendering="optimizeQuality"
       font-family="'Arial'"
       stroke="white"
       stroke-width="4"
       id="g19">
      <rect
         x="2.5"
         width="58"
         height="15"
         y="2.5"
         clip-path="url(#clipPath6)"
         stroke="none"
         id="rect18" />
      <rect
         x="2.5"
         y="2.5"
         clip-path="url(#clipPath6)"
         fill="none"
         width="58"
         height="15"
         stroke="black"
         id="rect19" />
    </g>
    <g
       text-rendering="optimizeLegibility"
       stroke-width="4"
       font-family="'Arial'"
       transform="translate(145,44)"
       image-rendering="optimizeQuality"
       id="g20">
      <text
         x="9"
         xml:space="preserve"
         y="14"
         clip-path="url(#clipPath6)"
         stroke="none"
         id="text19">info cyto</text>
    </g>
    <g
       stroke-linecap="round"
       font-size="13px"
       transform="translate(607,82)"
       fill="white"
       text-rendering="optimizeLegibility"
       image-rendering="optimizeQuality"
       font-family="'Lucida Grande'"
       stroke-linejoin="round"
       stroke="white"
       stroke-width="4"
       id="g21">
      <path
         d="M2 32 L2 202 C2 218.5685 15.4315 232 32 232 L342 232 C358.5685 232 372 218.5685 372 202 L372 32 C372 15.4315 358.5685 2 342 2 L32 2 C15.4315 2 2 15.4315 2 32 Z"
         stroke="none"
         clip-path="url(#clipPath7)"
         id="path20" />
      <path
         fill="none"
         d="M2 32 L2 202 C2 218.5685 15.4315 232 32 232 L342 232 C358.5685 232 372 218.5685 372 202 L372 32 C372 15.4315 358.5685 2 342 2 L32 2 C15.4315 2 2 15.4315 2 32 Z"
         clip-path="url(#clipPath7)"
         stroke="black"
         id="path21" />
    </g>
    <g
       text-rendering="optimizeLegibility"
       font-size="14px"
       font-family="'Arial'"
       transform="translate(769,88)"
       image-rendering="optimizeQuality"
       id="g22">
      <text
         x="6"
         xml:space="preserve"
         y="15"
         clip-path="url(#clipPath4)"
         stroke="none"
         id="text21">CYTO</text>
    </g>
    <g
       transform="translate(669,74)"
       fill="white"
       text-rendering="optimizeLegibility"
       image-rendering="optimizeQuality"
       font-family="'Arial'"
       stroke="white"
       stroke-width="4"
       id="g23">
      <rect
         x="2.5"
         width="58"
         height="15"
         y="2.5"
         clip-path="url(#clipPath6)"
         stroke="none"
         id="rect22" />
      <rect
         x="2.5"
         y="2.5"
         clip-path="url(#clipPath6)"
         fill="none"
         width="58"
         height="15"
         stroke="black"
         id="rect23" />
    </g>
    <g
       text-rendering="optimizeLegibility"
       stroke-width="4"
       font-family="'Arial'"
       transform="translate(669,74)"
       image-rendering="optimizeQuality"
       id="g24">
      <text
         x="9"
         xml:space="preserve"
         y="14"
         clip-path="url(#clipPath6)"
         stroke="none"
         id="text23">info cyto</text>
    </g>
    <g
       stroke-linecap="round"
       font-size="13px"
       transform="translate(1137,82)"
       fill="white"
       text-rendering="optimizeLegibility"
       image-rendering="optimizeQuality"
       font-family="'Lucida Grande'"
       stroke-linejoin="round"
       stroke="white"
       stroke-width="4"
       id="g25">
      <path
         d="M2 32 L2 202 C2 218.5685 15.4315 232 32 232 L342 232 C358.5685 232 372 218.5685 372 202 L372 32 C372 15.4315 358.5685 2 342 2 L32 2 C15.4315 2 2 15.4315 2 32 Z"
         stroke="none"
         clip-path="url(#clipPath7)"
         id="path24" />
      <path
         fill="none"
         d="M2 32 L2 202 C2 218.5685 15.4315 232 32 232 L342 232 C358.5685 232 372 218.5685 372 202 L372 32 C372 15.4315 358.5685 2 342 2 L32 2 C15.4315 2 2 15.4315 2 32 Z"
         clip-path="url(#clipPath7)"
         stroke="black"
         id="path25" />
    </g>
    <g
       text-rendering="optimizeLegibility"
       font-size="14px"
       font-family="'Arial'"
       transform="translate(1299,88)"
       image-rendering="optimizeQuality"
       id="g26">
      <text
         x="6"
         xml:space="preserve"
         y="15"
         clip-path="url(#clipPath4)"
         stroke="none"
         id="text25">CYTO</text>
    </g>
    <g
       transform="translate(1199,74)"
       fill="white"
       text-rendering="optimizeLegibility"
       image-rendering="optimizeQuality"
       font-family="'Arial'"
       stroke="white"
       stroke-width="4"
       id="g27">
      <rect
         x="2.5"
         width="58"
         height="15"
         y="2.5"
         clip-path="url(#clipPath6)"
         stroke="none"
         id="rect26" />
      <rect
         x="2.5"
         y="2.5"
         clip-path="url(#clipPath6)"
         fill="none"
         width="58"
         height="15"
         stroke="black"
         id="rect27" />
    </g>
    <g
       text-rendering="optimizeLegibility"
       stroke-width="4"
       font-family="'Arial'"
       transform="translate(1199,74)"
       image-rendering="optimizeQuality"
       id="g28">
      <text
         x="9"
         xml:space="preserve"
         y="14"
         clip-path="url(#clipPath6)"
         stroke="none"
         id="text27">info cyto</text>
    </g>
    <g
       stroke-linecap="round"
       font-size="13px"
       transform="translate(267,107)"
       fill="white"
       text-rendering="optimizeLegibility"
       image-rendering="optimizeQuality"
       font-family="'Lucida Grande'"
       stroke-linejoin="round"
       stroke="white"
       stroke-width="4"
       id="g29">
      <path
         d="M2 32 L2 212 C2 228.5685 15.4315 242 32 242 L162 242 C178.5685 242 192 228.5685 192 212 L192 32 C192 15.4315 178.5685 2 162 2 L32 2 C15.4315 2 2 15.4315 2 32 Z"
         stroke="none"
         clip-path="url(#clipPath8)"
         id="path28" />
      <path
         fill="none"
         d="M2 32 L2 212 C2 228.5685 15.4315 242 32 242 L162 242 C178.5685 242 192 228.5685 192 212 L192 32 C192 15.4315 178.5685 2 162 2 L32 2 C15.4315 2 2 15.4315 2 32 Z"
         clip-path="url(#clipPath8)"
         stroke="black"
         id="path29" />
    </g>
    <g
       stroke-linecap="round"
       font-size="13px"
       transform="translate(375,88)"
       fill="white"
       text-rendering="optimizeLegibility"
       image-rendering="optimizeQuality"
       font-family="'Lucida Grande'"
       stroke-linejoin="round"
       stroke="white"
       stroke-width="2.5"
       id="g31">
      <path
         d="M1 1 L191 1 L191 302 L1 302 L1 1 Z"
         stroke="none"
         clip-path="url(#clipPath9)"
         id="path30" />
      <path
         fill="none"
         d="M1 1 L191 1 L191 302 L1 302 L1 1 Z"
         clip-path="url(#clipPath9)"
         stroke="rgb(254,254,254)"
         id="path31" />
    </g>
    <g
       stroke-linecap="round"
       font-size="13px"
       transform="translate(802,192)"
       fill="white"
       text-rendering="optimizeLegibility"
       image-rendering="optimizeQuality"
       font-family="'Lucida Grande'"
       stroke-linejoin="round"
       stroke="white"
       stroke-width="4"
       id="g33"
       style="fill:#ffffff;fill-opacity:0.40000001">
      <path
         d="M2 32 L2 172 C2 188.5685 15.4315 202 32 202 L212 202 C228.5685 202 242 188.5685 242 172 L242 32 C242 15.4315 228.5685 2 212 2 L32 2 C15.4315 2 2 15.4315 2 32 Z"
         stroke="none"
         clip-path="url(#clipPath10)"
         id="path32"
         style="fill:#ffffff;fill-opacity:0.40000001" />
      <path
         fill="none"
         d="M2 32 L2 172 C2 188.5685 15.4315 202 32 202 L212 202 C228.5685 202 242 188.5685 242 172 L242 32 C242 15.4315 228.5685 2 212 2 L32 2 C15.4315 2 2 15.4315 2 32 Z"
         clip-path="url(#clipPath10)"
         stroke="black"
         id="path33"
         style="fill:#ffffff;fill-opacity:0.40000001" />
    </g>
    <g
       text-rendering="optimizeLegibility"
       font-size="14px"
       font-family="'Arial'"
       transform="translate(900,369)"
       image-rendering="optimizeQuality"
       id="g34">
      <text
         x="6"
         xml:space="preserve"
         y="15"
         clip-path="url(#clipPath12)"
         stroke="none"
         id="text33">MITO</text>
    </g>
    <g
       transform="translate(831,184)"
       fill="white"
       text-rendering="optimizeLegibility"
       image-rendering="optimizeQuality"
       font-family="'Arial'"
       stroke="white"
       stroke-width="4"
       id="g35">
      <rect
         x="2.5"
         width="59"
         height="15"
         y="2.5"
         clip-path="url(#clipPath14)"
         stroke="none"
         id="rect34" />
      <rect
         x="2.5"
         y="2.5"
         clip-path="url(#clipPath14)"
         fill="none"
         width="59"
         height="15"
         stroke="black"
         id="rect35" />
    </g>
    <g
       text-rendering="optimizeLegibility"
       stroke-width="4"
       font-family="'Arial'"
       transform="translate(831,184)"
       image-rendering="optimizeQuality"
       id="g36">
      <text
         x="9"
         xml:space="preserve"
         y="14"
         clip-path="url(#clipPath14)"
         stroke="none"
         id="text35">info mito</text>
    </g>
    <g
       stroke-linecap="round"
       font-size="13px"
       transform="translate(1187,137)"
       fill="white"
       text-rendering="optimizeLegibility"
       image-rendering="optimizeQuality"
       font-family="'Lucida Grande'"
       stroke-linejoin="round"
       stroke="white"
       stroke-width="4"
       id="g37">
      <path
         d="M2 32 L2 112 C2 128.5685 15.4315 142 32 142 L152 142 C168.5685 142 182 128.5685 182 112 L182 32 C182 15.4315 168.5685 2 152 2 L32 2 C15.4315 2 2 15.4315 2 32 Z"
         stroke="none"
         clip-path="url(#clipPath15)"
         id="path36" />
      <path
         fill="none"
         d="M2 32 L2 112 C2 128.5685 15.4315 142 32 142 L152 142 C168.5685 142 182 128.5685 182 112 L182 32 C182 15.4315 168.5685 2 152 2 L32 2 C15.4315 2 2 15.4315 2 32 Z"
         clip-path="url(#clipPath15)"
         stroke="black"
         id="path37" />
    </g>
    <g
       text-rendering="optimizeLegibility"
       font-size="14px"
       font-family="'Arial'"
       transform="translate(1255,254)"
       image-rendering="optimizeQuality"
       id="g38">
      <text
         x="6"
         xml:space="preserve"
         y="15"
         clip-path="url(#clipPath12)"
         stroke="none"
         id="text37">MITO</text>
    </g>
    <g
       transform="translate(1201,129)"
       fill="white"
       text-rendering="optimizeLegibility"
       image-rendering="optimizeQuality"
       font-family="'Arial'"
       stroke="white"
       stroke-width="4"
       id="g39">
      <rect
         x="2.5"
         width="59"
         height="15"
         y="2.5"
         clip-path="url(#clipPath14)"
         stroke="none"
         id="rect38" />
      <rect
         x="2.5"
         y="2.5"
         clip-path="url(#clipPath14)"
         fill="none"
         width="59"
         height="15"
         stroke="black"
         id="rect39" />
    </g>
    <g
       text-rendering="optimizeLegibility"
       stroke-width="4"
       font-family="'Arial'"
       transform="translate(1201,129)"
       image-rendering="optimizeQuality"
       id="g40">
      <text
         x="9"
         xml:space="preserve"
         y="14"
         clip-path="url(#clipPath14)"
         stroke="none"
         id="text39">info mito</text>
    </g>
    <g
       stroke-linecap="round"
       font-size="13px"
       transform="translate(287,127)"
       fill="white"
       text-rendering="optimizeLegibility"
       image-rendering="optimizeQuality"
       font-family="'Lucida Grande'"
       stroke-linejoin="round"
       stroke="white"
       stroke-width="4"
       id="g41">
      <path
         d="M2 32 L2 172 C2 188.5685 15.4315 202 32 202 L212 202 C228.5685 202 242 188.5685 242 172 L242 32 C242 15.4315 228.5685 2 212 2 L32 2 C15.4315 2 2 15.4315 2 32 Z"
         stroke="none"
         clip-path="url(#clipPath10)"
         id="path40" />
      <path
         fill="none"
         d="M2 32 L2 172 C2 188.5685 15.4315 202 32 202 L212 202 C228.5685 202 242 188.5685 242 172 L242 32 C242 15.4315 228.5685 2 212 2 L32 2 C15.4315 2 2 15.4315 2 32 Z"
         clip-path="url(#clipPath10)"
         stroke="black"
         id="path41" />
    </g>
    <g
       text-rendering="optimizeLegibility"
       font-size="14px"
       font-family="'Arial'"
       transform="translate(385,304)"
       image-rendering="optimizeQuality"
       id="g42">
      <text
         x="6"
         xml:space="preserve"
         y="15"
         clip-path="url(#clipPath12)"
         stroke="none"
         id="text41">MITO</text>
    </g>
    <g
       transform="translate(316,119)"
       fill="white"
       text-rendering="optimizeLegibility"
       image-rendering="optimizeQuality"
       font-family="'Arial'"
       stroke="white"
       stroke-width="4"
       id="g43">
      <rect
         x="2.5"
         width="59"
         height="15"
         y="2.5"
         clip-path="url(#clipPath14)"
         stroke="none"
         id="rect42" />
      <rect
         x="2.5"
         y="2.5"
         clip-path="url(#clipPath14)"
         fill="none"
         width="59"
         height="15"
         stroke="black"
         id="rect43" />
    </g>
    <g
       text-rendering="optimizeLegibility"
       stroke-width="4"
       font-family="'Arial'"
       transform="translate(316,119)"
       image-rendering="optimizeQuality"
       id="g44">
      <text
         x="9"
         xml:space="preserve"
         y="14"
         clip-path="url(#clipPath14)"
         stroke="none"
         id="text43">info mito</text>
    </g>
  </g>
</svg>
