<?xml version="1.0" encoding="UTF-8" standalone="no"?>
<svg
   fill-opacity="1"
   color-rendering="auto"
   color-interpolation="auto"
   text-rendering="auto"
   stroke="#000000"
   stroke-linecap="square"
   width="439"
   stroke-miterlimit="10"
   shape-rendering="auto"
   stroke-opacity="1"
   fill="#000000"
   stroke-dasharray="none"
   font-weight="normal"
   stroke-width="1"
   height="314"
   font-family="Dialog"
   font-style="normal"
   stroke-linejoin="miter"
   font-size="12px"
   stroke-dashoffset="0"
   image-rendering="auto"
   version="1.1"
   id="svg23"
   sodipodi:docname="compartment_overlapping_wrong.final.svg"
   inkscape:version="1.3.2 (091e20e, 2023-11-25)"
   xmlns:inkscape="http://www.inkscape.org/namespaces/inkscape"
   xmlns:sodipodi="http://sodipodi.sourceforge.net/DTD/sodipodi-0.dtd"
   xmlns="http://www.w3.org/2000/svg"
   xmlns:svg="http://www.w3.org/2000/svg">
  <sodipodi:namedview
     id="namedview23"
     pagecolor="#ffffff"
     bordercolor="#000000"
     borderopacity="0.25"
     inkscape:showpageshadow="2"
     inkscape:pageopacity="0.0"
     inkscape:pagecheckerboard="0"
     inkscape:deskcolor="#d1d1d1"
     inkscape:zoom="1.0832958"
     inkscape:cx="239.54677"
     inkscape:cy="241.39298"
     inkscape:window-width="1512"
     inkscape:window-height="826"
     inkscape:window-x="0"
     inkscape:window-y="38"
     inkscape:window-maximized="1"
     inkscape:current-layer="g24" />
  <!--Generated by the Batik Graphics2D SVG Generator-->
  <defs
     id="genericDefs" />
  <g
     inkscape:groupmode="layer"
     id="layer1"
     inkscape:label="below_layer"
     transform="translate(-617,-527)" />
  <g
     id="g23"
     transform="translate(-617,-527)">
    <defs
       id="defs1">
      <clipPath
         clipPathUnits="userSpaceOnUse"
         id="clipPath1">
        <path
           d="M 0,0 H 1160 V 945 H 0 Z"
           id="path1" />
      </clipPath>
      <clipPath
         clipPathUnits="userSpaceOnUse"
         id="clipPath2">
        <path
           d="M 0,0 V 236 H 376 V 0 Z"
           id="path2" />
      </clipPath>
      <clipPath
         clipPathUnits="userSpaceOnUse"
         id="clipPath3">
        <path
           d="M 0,0 V 22 H 52 V 0 Z"
           id="path3" />
      </clipPath>
      <clipPath
         clipPathUnits="userSpaceOnUse"
         id="clipPath4">
        <path
           d="M 0,0 V 21 H 51 V 0 Z"
           id="path4" />
      </clipPath>
      <clipPath
         clipPathUnits="userSpaceOnUse"
         id="clipPath5">
        <path
           d="M 0,0 V 206 H 246 V 0 Z"
           id="path5" />
      </clipPath>
      <clipPath
         clipPathUnits="userSpaceOnUse"
         id="clipPath6">
        <path
           d="M 0,0 V 22 H 49 V 0 Z"
           id="path6" />
      </clipPath>
      <clipPath
         clipPathUnits="userSpaceOnUse"
         id="clipPath7">
        <path
           d="M 0,0 V 21 H 48 V 0 Z"
           id="path7" />
      </clipPath>
      <clipPath
         clipPathUnits="userSpaceOnUse"
         id="clipPath8">
        <path
           d="M 0,0 V 64 H 112 V 0 Z"
           id="path8" />
      </clipPath>
      <clipPath
         clipPathUnits="userSpaceOnUse"
         id="clipPath9">
        <path
           d="M 0,0 V 20 H 39 V 0 Z"
           id="path9" />
      </clipPath>
      <clipPath
         clipPathUnits="userSpaceOnUse"
         id="clipPath10">
        <path
           d="M 0,0 V 19 H 38 V 0 Z"
           id="path10" />
      </clipPath>
      <clipPath
         clipPathUnits="userSpaceOnUse"
         id="clipPath11">
        <path
           d="M 0,0 V 16 H 81 V 0 Z"
           id="path11" />
      </clipPath>
    </defs>
    <g
       stroke-linecap="round"
       font-size="13px"
       transform="translate(617,527)"
       fill="#ffffff"
       text-rendering="optimizeLegibility"
       image-rendering="optimizeQuality"
       font-family="'Lucida Grande'"
       stroke-linejoin="round"
       stroke="#ffffff"
       stroke-width="4"
       id="g13">
      <path
         d="m 2,32 v 170 c 0,16.5685 13.4315,30 30,30 h 310 c 16.5685,0 30,-13.4315 30,-30 V 32 C 372,15.4315 358.5685,2 342,2 H 32 C 15.4315,2 2,15.4315 2,32 Z"
         stroke="none"
         clip-path="url(#clipPath2)"
         id="path12" />
      <path
         fill="none"
         d="m 2,32 v 170 c 0,16.5685 13.4315,30 30,30 h 310 c 16.5685,0 30,-13.4315 30,-30 V 32 C 372,15.4315 358.5685,2 342,2 H 32 C 15.4315,2 2,15.4315 2,32 Z"
         clip-path="url(#clipPath2)"
         stroke="#000000"
         id="path13" />
    </g>
    <g
       text-rendering="optimizeLegibility"
       font-size="14px"
       font-family="Arial"
       transform="translate(779,533)"
       image-rendering="optimizeQuality"
       id="g14">
      <text
         x="6"
         xml:space="preserve"
         y="15"
         clip-path="url(#clipPath4)"
         stroke="none"
         id="text13">CYTO</text>
    </g>
    <g
       inkscape:groupmode="layer"
       id="layer2"
       inkscape:label="above_layer" />
    <g
       text-rendering="optimizeLegibility"
       font-size="14px"
       font-family="Arial"
       transform="translate(910,814)"
       image-rendering="optimizeQuality"
       id="g16" />
    <g
       stroke-linecap="round"
       font-size="13px"
       transform="translate(854,653)"
       fill="#ffffff"
       text-rendering="optimizeLegibility"
       image-rendering="optimizeQuality"
       font-family="'Lucida Grande'"
       stroke-linejoin="round"
       stroke="#ffffff"
       stroke-width="2"
       id="g17">
      <path
         d="M 1,1 H 109 V 61 H 1 Z"
         stroke="none"
         clip-path="url(#clipPath8)"
         id="path16" />
      <path
         fill="none"
         d="M 1,1 H 109 V 61 H 1 Z"
         clip-path="url(#clipPath8)"
         stroke="#000000"
         id="path17" />
    </g>
    <g
       text-rendering="optimizeLegibility"
       font-size="14px"
       font-family="Arial"
       transform="translate(890,675)"
       image-rendering="optimizeQuality"
       id="g18">
      <text
         x="5"
         xml:space="preserve"
         y="14"
         clip-path="url(#clipPath10)"
         stroke="none"
         id="text17">RAF</text>
    </g>
    <g
       stroke-linecap="round"
       font-size="13px"
       transform="translate(664,653)"
       fill="#ffffff"
       text-rendering="optimizeLegibility"
       image-rendering="optimizeQuality"
       font-family="'Lucida Grande'"
       stroke-linejoin="round"
       stroke="#ffffff"
       stroke-width="2"
       id="g19">
      <path
         d="M 1,1 H 109 V 61 H 1 Z"
         stroke="none"
         clip-path="url(#clipPath8)"
         id="path18" />
      <path
         fill="none"
         d="M 1,1 H 109 V 61 H 1 Z"
         clip-path="url(#clipPath8)"
         stroke="#000000"
         id="path19" />
    </g>
    <g
       text-rendering="optimizeLegibility"
       font-size="14px"
       font-family="Arial"
       transform="translate(700,675)"
       image-rendering="optimizeQuality"
       id="g20">
      <text
         x="5"
         xml:space="preserve"
         y="14"
         clip-path="url(#clipPath10)"
         stroke="none"
         id="text19">RAS</text>
    </g>
    <g
       stroke-linecap="butt"
       font-size="13px"
       transform="matrix(1.0192216,0,0,0.99929917,772.45797,677.00526)"
       text-rendering="optimizeLegibility"
       image-rendering="optimizeQuality"
       font-family="'Lucida Grande'"
       stroke-linejoin="round"
       stroke-width="1.5"
       id="g22">
      <path
         fill="none"
         d="m 0.75,7.5 h 65.5"
         clip-path="url(#clipPath11)"
         id="path20" />
      <path
         fill="#ffffff"
         d="m 66.25,0.75 v 13.5 L 79.75,7.5 Z"
         clip-path="url(#clipPath11)"
         stroke="none"
         id="path21" />
      <path
         fill="none"
         d="m 66.25,0.75 v 13.5 L 79.75,7.5 Z"
         clip-path="url(#clipPath11)"
         id="path22" />
    </g>
    <g
       id="g24">
      <g
         stroke-linecap="round"
         font-size="13px"
         transform="translate(812,637)"
         fill="#ffffff"
         text-rendering="optimizeLegibility"
         image-rendering="optimizeQuality"
         font-family="'Lucida Grande'"
         stroke-linejoin="round"
         stroke="#ffffff"
         stroke-width="4"
         id="g15"
         style="fill:#ffffff;fill-opacity:0.40000001">
        <path
           d="m 2,32 v 140 c 0,16.5685 13.4315,30 30,30 h 180 c 16.5685,0 30,-13.4315 30,-30 V 32 C 242,15.4315 228.5685,2 212,2 H 32 C 15.4315,2 2,15.4315 2,32 Z"
           stroke="none"
           clip-path="url(#clipPath5)"
           id="path14"
           style="fill:#ffffff;fill-opacity:0.40000001" />
        <path
           fill="none"
           d="m 2,32 v 140 c 0,16.5685 13.4315,30 30,30 h 180 c 16.5685,0 30,-13.4315 30,-30 V 32 C 242,15.4315 228.5685,2 212,2 H 32 C 15.4315,2 2,15.4315 2,32 Z"
           clip-path="url(#clipPath5)"
           stroke="#000000"
           id="path15"
           style="fill:#ffffff;fill-opacity:0.40000001" />
      </g>
      <text
         x="6"
         xml:space="preserve"
         y="15"
         clip-path="url(#clipPath7)"
         stroke="none"
         id="text15"
         transform="translate(910,814)">MITO</text>
    </g>
  </g>
</svg>
