<?xml version="1.0" encoding="UTF-8" standalone="no"?>
<svg
   fill-opacity="1"
   color-rendering="auto"
   color-interpolation="auto"
   text-rendering="auto"
   stroke="black"
   stroke-linecap="square"
   width="1486"
   stroke-miterlimit="10"
   shape-rendering="auto"
   stroke-opacity="1"
   fill="black"
   stroke-dasharray="none"
   font-weight="normal"
   stroke-width="1"
   height="579"
   font-family="'Dialog'"
   font-style="normal"
   stroke-linejoin="miter"
   font-size="12px"
   stroke-dashoffset="0"
   image-rendering="auto"
   version="1.1"
   id="svg20"
   sodipodi:docname="logic_arc.final.svg"
   inkscape:version="1.4.1 (93de688d07, 2025-03-30)"
   xmlns:inkscape="http://www.inkscape.org/namespaces/inkscape"
   xmlns:sodipodi="http://sodipodi.sourceforge.net/DTD/sodipodi-0.dtd"
   xmlns="http://www.w3.org/2000/svg"
   xmlns:svg="http://www.w3.org/2000/svg">
  <sodipodi:namedview
     id="namedview20"
     pagecolor="#ffffff"
     bordercolor="#000000"
     borderopacity="0.25"
     inkscape:showpageshadow="2"
     inkscape:pageopacity="0.0"
     inkscape:pagecheckerboard="0"
     inkscape:deskcolor="#d1d1d1"
     inkscape:zoom="2.4730821"
     inkscape:cx="206.82694"
     inkscape:cy="212.48789"
     inkscape:window-width="3834"
     inkscape:window-height="1993"
     inkscape:window-x="1920"
     inkscape:window-y="164"
     inkscape:window-maximized="1"
     inkscape:current-layer="svg20" />
  <!--Generated by the Batik Graphics2D SVG Generator-->
  <defs
     id="genericDefs">
    <defs
       id="defs1">
      <clipPath
         clipPathUnits="userSpaceOnUse"
         id="clipPath1">
        <path
           d="M0 0 L2635 0 L2635 1938 L0 1938 L0 0 Z"
           id="path1" />
      </clipPath>
      <clipPath
         clipPathUnits="userSpaceOnUse"
         id="clipPath2">
        <path
           d="M0 0 L0 64 L64 64 L64 0 Z"
           id="path2" />
      </clipPath>
      <clipPath
         clipPathUnits="userSpaceOnUse"
         id="clipPath3">
        <path
           d="M0 0 L0 2 L84 2 L84 0 Z"
           id="path3" />
      </clipPath>
      <clipPath
         clipPathUnits="userSpaceOnUse"
         id="clipPath4">
        <path
           d="M0 0 L0 64 L112 64 L112 0 Z"
           id="path4" />
      </clipPath>
      <clipPath
         clipPathUnits="userSpaceOnUse"
         id="clipPath5">
        <path
           d="M0 0 L0 20 L29 20 L29 0 Z"
           id="path5" />
      </clipPath>
      <clipPath
         clipPathUnits="userSpaceOnUse"
         id="clipPath6">
        <path
           d="M0 0 L0 19 L28 19 L28 0 Z"
           id="path6" />
      </clipPath>
      <clipPath
         clipPathUnits="userSpaceOnUse"
         id="clipPath7">
        <path
           d="M0 0 L0 46 L46 46 L46 0 Z"
           id="path7" />
      </clipPath>
      <clipPath
         clipPathUnits="userSpaceOnUse"
         id="clipPath8">
        <path
           d="M0 0 L0 20 L30 20 L30 0 Z"
           id="path8" />
      </clipPath>
      <clipPath
         clipPathUnits="userSpaceOnUse"
         id="clipPath9">
        <path
           d="M0 0 L0 19 L29 19 L29 0 Z"
           id="path9" />
      </clipPath>
      <clipPath
         clipPathUnits="userSpaceOnUse"
         id="clipPath10">
        <path
           d="M0 0 L0 3 L14 3 L14 0 Z"
           id="path10" />
      </clipPath>
    </defs>
  </defs>
  <g
     stroke-linecap="butt"
     transform="translate(184,89)"
     text-rendering="optimizeLegibility"
     image-rendering="optimizeQuality"
     font-family="sans-serif"
     stroke-linejoin="round"
     stroke-width="1.5"
     id="g13">
    <path
       fill="none"
       d="m 0.75,0.75 h 62.5 19.5"
       clip-path="url(#clipPath3)"
       id="path13" />
  </g>
  <g
     stroke-linecap="round"
     transform="translate(74,58)"
     fill="#ffffff"
     text-rendering="optimizeLegibility"
     image-rendering="optimizeQuality"
     font-family="sans-serif"
     stroke-linejoin="round"
     stroke="#ffffff"
     stroke-width="2"
     id="g15">
    <path
       d="M 1,1 H 109 V 61 H 1 Z"
       stroke="none"
       clip-path="url(#clipPath4)"
       id="path14" />
    <path
       fill="none"
       d="M 1,1 H 109 V 61 H 1 Z"
       clip-path="url(#clipPath4)"
       stroke="#acacac"
       id="path15" />
  </g>
  <g
     font-size="14px"
     transform="translate(115,80)"
     fill="#acacac"
     text-rendering="optimizeLegibility"
     image-rendering="optimizeQuality"
     font-family="Arial"
     stroke="#acacac"
     id="g16">
    <text
       x="5"
       xml:space="preserve"
       y="14"
       clip-path="url(#clipPath6)"
       stroke="none"
       id="text15">BA</text>
  </g>
  <g
     stroke-linecap="round"
     transform="translate(267,67)"
     fill="#ffffff"
     text-rendering="optimizeLegibility"
     image-rendering="optimizeQuality"
     font-family="sans-serif"
     stroke-linejoin="round"
     stroke="#ffffff"
     stroke-width="2"
     id="g17">
    <path
       d="M 43,22 C 43,33.598 33.598,43 22,43 10.402,43 1,33.598 1,22 1,10.402 10.402,1 22,1 33.598,1 43,10.402 43,22 Z"
       stroke="none"
       clip-path="url(#clipPath7)"
       id="path16" />
    <path
       fill="none"
       d="M 43,22 C 43,33.598 33.598,43 22,43 10.402,43 1,33.598 1,22 1,10.402 10.402,1 22,1 33.598,1 43,10.402 43,22 Z"
       clip-path="url(#clipPath7)"
       stroke="#acacac"
       id="path17" />
  </g>
  <g
     font-size="14px"
     transform="translate(275,80)"
     fill="#acacac"
     text-rendering="optimizeLegibility"
     image-rendering="optimizeQuality"
     font-family="Arial"
     stroke="#acacac"
     id="g18">
    <text
       x="5"
       xml:space="preserve"
       y="14"
       clip-path="url(#clipPath9)"
       stroke="none"
       id="text17">LO</text>
  </g>
  <g
     stroke-linecap="butt"
     transform="translate(255,89)"
     fill="#acacac"
     text-rendering="optimizeLegibility"
     image-rendering="optimizeQuality"
     font-family="sans-serif"
     stroke-linejoin="round"
     stroke="#acacac"
     stroke-width="1.5"
     id="g19">
    <path
       fill="none"
       d="m 0.75,0.75 h 11"
       clip-path="url(#clipPath10)"
       id="path18" />
  </g>
</svg>
