<?xml version="1.0" encoding="UTF-8" standalone="no"?>
<!-- Created with Inkscape (http://www.inkscape.org/) -->
<svg
   xmlns:svg="http://www.w3.org/2000/svg"
   xmlns="http://www.w3.org/2000/svg"
   version="1.0"
   width="402.07001"
   height="80.870003"
   id="svg3995">
  <defs
     id="defs3997">
    <marker
       refX="0"
       refY="0"
       orient="auto"
       id="StopL"
       style="overflow:visible">
      <path
         d="M 0,5.65 L 0,-5.65"
         transform="scale(0.8,0.8)"
         id="path3330"
         style="fill:none;fill-opacity:0.75;fill-rule:evenodd;stroke:#000000;stroke-width:1pt" />
    </marker>
    <marker
       refX="0"
       refY="0"
       orient="auto"
       id="DistanceEnd"
       style="overflow:visible">
      <g
         id="g3216">
        <path
           d="M 0,0 L -2,0"
           id="path2316"
           style="fill:none;stroke:#ffffff;stroke-width:1.14999998;stroke-linecap:square" />
        <path
           d="M 0,0 L -13,4 L -9,0 L -13,-4 L 0,0 z"
           id="path2312"
           style="fill:#000000;fill-rule:evenodd;stroke:none" />
        <path
           d="M 0,-4 L 0,40"
           id="path2314"
           style="fill:none;stroke:#000000;stroke-width:1;stroke-linecap:square" />
      </g>
    </marker>
    <marker
       refX="0"
       refY="0"
       orient="auto"
       id="EmptyTriangleOutL"
       style="overflow:visible">
      <path
         d="M 5.77,0 L -2.88,5 L -2.88,-5 L 5.77,0 z"
         transform="matrix(0.8,0,0,0.8,-4.8,0)"
         id="path3321"
         style="fill:#ffffff;fill-rule:evenodd;stroke:#000000;stroke-width:1pt;marker-start:none" />
    </marker>
  </defs>
  <g
     transform="translate(-45.109199,-50.069542)"
     id="layer1">
    <path
       d="M 90.125842,89.505041 C 429.87415,89.505041 429.87415,89.505041 429.87415,89.505041 L 429.87415,89.505041 L 429.87415,89.505041 L 429.87415,89.505041 L 429.87415,89.505041 L 429.87415,89.505041 L 429.87415,89.505041 L 429.87415,89.505041"
       id="path2385"
       style="fill:none;fill-rule:evenodd;stroke:#000000;stroke-width:4.31899977;stroke-linecap:butt;stroke-linejoin:miter;marker-end:url(#StopL);stroke-miterlimit:4;stroke-dasharray:none;stroke-opacity:1" />
  </g>
</svg>
