<?xml version="1.0" encoding="UTF-8" standalone="no"?>
<svg
   fill-opacity="1"
   color-rendering="auto"
   color-interpolation="auto"
   text-rendering="auto"
   stroke="#000000"
   stroke-linecap="square"
   width="585"
   stroke-miterlimit="10"
   shape-rendering="auto"
   stroke-opacity="1"
   fill="#000000"
   stroke-dasharray="none"
   font-weight="normal"
   stroke-width="1"
   height="464.5"
   font-family="Dialog"
   font-style="normal"
   stroke-linejoin="miter"
   font-size="12px"
   stroke-dashoffset="0"
   image-rendering="auto"
   version="1.1"
   id="svg54"
   sodipodi:docname="not_example.final.svg"
   inkscape:version="1.3.2 (091e20e, 2023-11-25)"
   inkscape:export-filename="not_example.final.pdf"
   inkscape:export-xdpi="96"
   inkscape:export-ydpi="96"
   xmlns:inkscape="http://www.inkscape.org/namespaces/inkscape"
   xmlns:sodipodi="http://sodipodi.sourceforge.net/DTD/sodipodi-0.dtd"
   xmlns="http://www.w3.org/2000/svg"
   xmlns:svg="http://www.w3.org/2000/svg">
  <sodipodi:namedview
     id="namedview54"
     pagecolor="#ffffff"
     bordercolor="#000000"
     borderopacity="0.25"
     inkscape:showpageshadow="2"
     inkscape:pageopacity="0.0"
     inkscape:pagecheckerboard="0"
     inkscape:deskcolor="#d1d1d1"
     inkscape:clip-to-page="false"
     inkscape:zoom="0.32823366"
     inkscape:cx="428.04873"
     inkscape:cy="336.65042"
     inkscape:window-width="1512"
     inkscape:window-height="826"
     inkscape:window-x="0"
     inkscape:window-y="38"
     inkscape:window-maximized="1"
     inkscape:current-layer="svg54" />
  <!--Generated by the Batik Graphics2D SVG Generator-->
  <defs
     id="genericDefs" />
  <g
     id="g54"
     transform="translate(-24,-20.5)">
    <defs
       id="defs1">
      <clipPath
         clipPathUnits="userSpaceOnUse"
         id="clipPath1">
        <path
           d="M 0,0 H 1067 V 820 H 0 Z"
           id="path1" />
      </clipPath>
      <clipPath
         clipPathUnits="userSpaceOnUse"
         id="clipPath2">
        <path
           d="M 0,0 V 64 H 112 V 0 Z"
           id="path2" />
      </clipPath>
      <clipPath
         clipPathUnits="userSpaceOnUse"
         id="clipPath3">
        <path
           d="M 0,0 V 20 H 57 V 0 Z"
           id="path3" />
      </clipPath>
      <clipPath
         clipPathUnits="userSpaceOnUse"
         id="clipPath4">
        <path
           d="M 0,0 V 19 H 56 V 0 Z"
           id="path4" />
      </clipPath>
      <clipPath
         clipPathUnits="userSpaceOnUse"
         id="clipPath5">
        <path
           d="M 0,0 V 20 H 45 V 0 Z"
           id="path5" />
      </clipPath>
      <clipPath
         clipPathUnits="userSpaceOnUse"
         id="clipPath6">
        <path
           d="M 0,0 V 19 H 44 V 0 Z"
           id="path6" />
      </clipPath>
      <clipPath
         clipPathUnits="userSpaceOnUse"
         id="clipPath7">
        <path
           d="M 0,0 V 20 H 60 V 0 Z"
           id="path7" />
      </clipPath>
      <clipPath
         clipPathUnits="userSpaceOnUse"
         id="clipPath8">
        <path
           d="M 0,0 V 19 H 59 V 0 Z"
           id="path8" />
      </clipPath>
      <clipPath
         clipPathUnits="userSpaceOnUse"
         id="clipPath9">
        <path
           d="M 0,0 V 18 H 32 V 0 Z"
           id="path9" />
      </clipPath>
      <clipPath
         clipPathUnits="userSpaceOnUse"
         id="clipPath10">
        <path
           d="M 0,0 V 17 H 31 V 0 Z"
           id="path10" />
      </clipPath>
      <clipPath
         clipPathUnits="userSpaceOnUse"
         id="clipPath11">
        <path
           d="M 0,0 V 20 H 53 V 0 Z"
           id="path11" />
      </clipPath>
      <clipPath
         clipPathUnits="userSpaceOnUse"
         id="clipPath12">
        <path
           d="M 0,0 V 19 H 52 V 0 Z"
           id="path12" />
      </clipPath>
      <clipPath
         clipPathUnits="userSpaceOnUse"
         id="clipPath13">
        <path
           d="M 0,0 V 46 H 46 V 0 Z"
           id="path13" />
      </clipPath>
      <clipPath
         clipPathUnits="userSpaceOnUse"
         id="clipPath14">
        <path
           d="M 0,0 V 20 H 41 V 0 Z"
           id="path14" />
      </clipPath>
      <clipPath
         clipPathUnits="userSpaceOnUse"
         id="clipPath15">
        <path
           d="M 0,0 V 19 H 40 V 0 Z"
           id="path15" />
      </clipPath>
      <clipPath
         clipPathUnits="userSpaceOnUse"
         id="clipPath16">
        <path
           d="M 0,0 V 20 H 32 V 0 Z"
           id="path16" />
      </clipPath>
      <clipPath
         clipPathUnits="userSpaceOnUse"
         id="clipPath17">
        <path
           d="M 0,0 V 19 H 31 V 0 Z"
           id="path17" />
      </clipPath>
      <clipPath
         clipPathUnits="userSpaceOnUse"
         id="clipPath18">
        <path
           d="M 0,0 V 76 H 2 V 0 Z"
           id="path18" />
      </clipPath>
      <clipPath
         clipPathUnits="userSpaceOnUse"
         id="clipPath19">
        <path
           d="M 0,0 V 85 H 237 V 0 Z"
           id="path19" />
      </clipPath>
      <clipPath
         clipPathUnits="userSpaceOnUse"
         id="clipPath20">
        <path
           d="M 0,0 V 85 H 2 V 0 Z"
           id="path20" />
      </clipPath>
      <clipPath
         clipPathUnits="userSpaceOnUse"
         id="clipPath21">
        <path
           d="M 0,0 V 76 H 49 V 0 Z"
           id="path21" />
      </clipPath>
      <clipPath
         clipPathUnits="userSpaceOnUse"
         id="clipPath22">
        <path
           d="M 0,0 V 203 H 207 V 0 Z"
           id="path22" />
      </clipPath>
      <clipPath
         clipPathUnits="userSpaceOnUse"
         id="clipPath23">
        <path
           d="M 0,0 V 76 H 56 V 0 Z"
           id="path23" />
      </clipPath>
      <clipPath
         clipPathUnits="userSpaceOnUse"
         id="clipPath24">
        <path
           d="M 0,0 V 87 H 24 V 0 Z"
           id="path24" />
      </clipPath>
    </defs>
    <g
       stroke-linecap="round"
       font-size="13px"
       transform="translate(499,28)"
       fill="#ffffff"
       text-rendering="optimizeLegibility"
       image-rendering="optimizeQuality"
       font-family="'Lucida Grande'"
       stroke-linejoin="round"
       stroke="#ffffff"
       stroke-width="2"
       id="g26">
      <path
         d="M 1,1 H 109 V 61 H 1 Z"
         stroke="none"
         clip-path="url(#clipPath2)"
         id="path25" />
      <path
         fill="none"
         d="M 1,1 H 109 V 61 H 1 Z"
         clip-path="url(#clipPath2)"
         stroke="#000000"
         id="path26" />
    </g>
    <g
       text-rendering="optimizeLegibility"
       font-size="14px"
       font-family="Arial"
       transform="translate(526,50)"
       image-rendering="optimizeQuality"
       id="g27">
      <text
         x="5"
         xml:space="preserve"
         y="14"
         clip-path="url(#clipPath4)"
         stroke="none"
         id="text26">NR1D1</text>
    </g>
    <g
       stroke-linecap="round"
       font-size="13px"
       transform="translate(179,28)"
       fill="#ffffff"
       text-rendering="optimizeLegibility"
       image-rendering="optimizeQuality"
       font-family="'Lucida Grande'"
       stroke-linejoin="round"
       stroke="#ffffff"
       stroke-width="2"
       id="g28">
      <path
         d="M 1,1 H 109 V 61 H 1 Z"
         stroke="none"
         clip-path="url(#clipPath2)"
         id="path27" />
      <path
         fill="none"
         d="M 1,1 H 109 V 61 H 1 Z"
         clip-path="url(#clipPath2)"
         stroke="#000000"
         id="path28" />
    </g>
    <g
       text-rendering="optimizeLegibility"
       font-size="14px"
       font-family="Arial"
       transform="translate(212,50)"
       image-rendering="optimizeQuality"
       id="g29">
      <text
         x="5"
         xml:space="preserve"
         y="14"
         clip-path="url(#clipPath6)"
         stroke="none"
         id="text28">TP53</text>
    </g>
    <g
       stroke-linecap="round"
       font-size="13px"
       transform="translate(24,28)"
       fill="#ffffff"
       text-rendering="optimizeLegibility"
       image-rendering="optimizeQuality"
       font-family="'Lucida Grande'"
       stroke-linejoin="round"
       stroke="#ffffff"
       stroke-width="2"
       id="g30">
      <path
         d="M 1,1 H 109 V 61 H 1 Z"
         stroke="none"
         clip-path="url(#clipPath2)"
         id="path29" />
      <path
         fill="none"
         d="M 1,1 H 109 V 61 H 1 Z"
         clip-path="url(#clipPath2)"
         stroke="#000000"
         id="path30" />
    </g>
    <g
       text-rendering="optimizeLegibility"
       font-size="14px"
       font-family="Arial"
       transform="translate(50,50)"
       image-rendering="optimizeQuality"
       id="g31">
      <text
         x="5"
         xml:space="preserve"
         y="14"
         clip-path="url(#clipPath8)"
         stroke="none"
         id="text30">Cdkn1a</text>
    </g>
    <g
       font-size="10px"
       transform="translate(36,20)"
       fill="#ffffff"
       text-rendering="optimizeLegibility"
       image-rendering="optimizeQuality"
       font-family="Arial"
       stroke="#ffffff"
       stroke-width="2"
       id="g32">
      <path
         d="m 1.5,1.5 h 28 v 7 l -0.0862,1.095 -0.2564,1.0681 -0.4204,1.0148 -0.5739,0.9366 -0.7134,0.8352 -0.8352,0.7134 -0.9366,0.5739 -1.0148,0.4204 L 23.595,15.4138 22.5,15.5 H 8.5 L 7.405,15.4138 6.3369,15.1574 5.3221,14.737 4.3855,14.1631 3.5503,13.4497 2.8369,12.6145 2.263,11.6779 1.8426,10.6631 1.5862,9.595 Z"
         stroke="none"
         clip-path="url(#clipPath10)"
         id="path31" />
      <path
         fill="none"
         d="m 1.5,1.5 h 28 v 7 l -0.0862,1.095 -0.2564,1.0681 -0.4204,1.0148 -0.5739,0.9366 -0.7134,0.8352 -0.8352,0.7134 -0.9366,0.5739 -1.0148,0.4204 L 23.595,15.4138 22.5,15.5 H 8.5 L 7.405,15.4138 6.3369,15.1574 5.3221,14.737 4.3855,14.1631 3.5503,13.4497 2.8369,12.6145 2.263,11.6779 1.8426,10.6631 1.5862,9.595 Z"
         clip-path="url(#clipPath10)"
         stroke="#000000"
         id="path32" />
    </g>
    <g
       text-rendering="optimizeLegibility"
       stroke-width="2"
       font-size="10px"
       font-family="Arial"
       transform="translate(36,20)"
       image-rendering="optimizeQuality"
       id="g33">
      <text
         x="8"
         xml:space="preserve"
         y="12"
         clip-path="url(#clipPath10)"
         stroke="none"
         id="text32">     </text>
    </g>
    <g
       stroke-linecap="round"
       font-size="13px"
       transform="translate(264,423)"
       fill="#ffffff"
       text-rendering="optimizeLegibility"
       image-rendering="optimizeQuality"
       font-family="'Lucida Grande'"
       stroke-linejoin="round"
       stroke="#ffffff"
       stroke-width="2"
       id="g34">
      <path
         d="M 1,1 H 109 V 61 H 1 Z"
         stroke="none"
         clip-path="url(#clipPath2)"
         id="path33" />
      <path
         fill="none"
         d="M 1,1 H 109 V 61 H 1 Z"
         clip-path="url(#clipPath2)"
         stroke="#000000"
         id="path34" />
    </g>
    <g
       text-rendering="optimizeLegibility"
       font-size="14px"
       font-family="Arial"
       transform="translate(290,445)"
       image-rendering="optimizeQuality"
       id="g35">
      <text
         x="5"
         xml:space="preserve"
         y="14"
         clip-path="url(#clipPath8)"
         stroke="none"
         id="text34">Cdkn1a</text>
    </g>
    <g
       font-size="10px"
       transform="translate(276,415)"
       fill="#ffffff"
       text-rendering="optimizeLegibility"
       image-rendering="optimizeQuality"
       font-family="Arial"
       stroke="#ffffff"
       stroke-width="2"
       id="g36">
      <rect
         x="1.5"
         y="1.5"
         clip-path="url(#clipPath10)"
         width="28"
         rx="3.5"
         ry="3.5"
         height="14"
         stroke="none"
         id="rect35" />
      <rect
         x="1.5"
         y="1.5"
         clip-path="url(#clipPath10)"
         fill="none"
         width="28"
         rx="3.5"
         ry="3.5"
         height="14"
         stroke="#000000"
         id="rect36" />
    </g>
    <g
       text-rendering="optimizeLegibility"
       stroke-width="2"
       font-size="10px"
       font-family="Arial"
       transform="translate(276,415)"
       image-rendering="optimizeQuality"
       id="g37">
      <text
         x="8"
         xml:space="preserve"
         y="12"
         clip-path="url(#clipPath10)"
         stroke="none"
         id="text36">     </text>
    </g>
    <g
       stroke-linecap="round"
       font-size="13px"
       transform="translate(339,28)"
       fill="#ffffff"
       text-rendering="optimizeLegibility"
       image-rendering="optimizeQuality"
       font-family="'Lucida Grande'"
       stroke-linejoin="round"
       stroke="#ffffff"
       stroke-width="2"
       id="g38">
      <path
         d="M 1,1 H 109 V 61 H 1 Z"
         stroke="none"
         clip-path="url(#clipPath2)"
         id="path37" />
      <path
         fill="none"
         d="M 1,1 H 109 V 61 H 1 Z"
         clip-path="url(#clipPath2)"
         stroke="#000000"
         id="path38" />
    </g>
    <g
       text-rendering="optimizeLegibility"
       font-size="14px"
       font-family="Arial"
       transform="translate(368,50)"
       image-rendering="optimizeQuality"
       id="g39">
      <text
         x="5"
         xml:space="preserve"
         y="14"
         clip-path="url(#clipPath12)"
         stroke="none"
         id="text38">RORG</text>
    </g>
    <g
       stroke-linecap="round"
       font-size="13px"
       transform="translate(297,292)"
       fill="#ffffff"
       text-rendering="optimizeLegibility"
       image-rendering="optimizeQuality"
       font-family="'Lucida Grande'"
       stroke-linejoin="round"
       stroke="#ffffff"
       stroke-width="2"
       id="g40">
      <path
         d="M 43,22 C 43,33.598 33.598,43 22,43 10.402,43 1,33.598 1,22 1,10.402 10.402,1 22,1 33.598,1 43,10.402 43,22 Z"
         stroke="none"
         clip-path="url(#clipPath13)"
         id="path39" />
      <path
         fill="none"
         d="M 43,22 C 43,33.598 33.598,43 22,43 10.402,43 1,33.598 1,22 1,10.402 10.402,1 22,1 33.598,1 43,10.402 43,22 Z"
         clip-path="url(#clipPath13)"
         stroke="#000000"
         id="path40" />
    </g>
    <g
       text-rendering="optimizeLegibility"
       font-size="14px"
       font-weight="bold"
       font-family="Arial"
       transform="translate(299,305)"
       image-rendering="optimizeQuality"
       id="g41">
      <text
         x="5"
         xml:space="preserve"
         y="15"
         clip-path="url(#clipPath15)"
         stroke="none"
         id="text40">AND</text>
    </g>
    <g
       stroke-linecap="round"
       font-size="13px"
       transform="translate(532,165)"
       fill="#ffffff"
       text-rendering="optimizeLegibility"
       image-rendering="optimizeQuality"
       font-family="'Lucida Grande'"
       stroke-linejoin="round"
       stroke="#ffffff"
       stroke-width="2"
       id="g42">
      <path
         d="M 43,22 C 43,33.598 33.598,43 22,43 10.402,43 1,33.598 1,22 1,10.402 10.402,1 22,1 33.598,1 43,10.402 43,22 Z"
         stroke="none"
         clip-path="url(#clipPath13)"
         id="path41" />
      <path
         fill="none"
         d="M 43,22 C 43,33.598 33.598,43 22,43 10.402,43 1,33.598 1,22 1,10.402 10.402,1 22,1 33.598,1 43,10.402 43,22 Z"
         clip-path="url(#clipPath13)"
         stroke="#000000"
         id="path42" />
    </g>
    <g
       text-rendering="optimizeLegibility"
       font-size="14px"
       font-weight="bold"
       font-family="Arial"
       transform="translate(534,178)"
       image-rendering="optimizeQuality"
       id="g43">
      <text
         x="5"
         xml:space="preserve"
         y="15"
         clip-path="url(#clipPath15)"
         stroke="none"
         id="text42">NOT</text>
    </g>
    <g
       stroke-linecap="round"
       font-size="13px"
       transform="translate(297,165)"
       fill="#ffffff"
       text-rendering="optimizeLegibility"
       image-rendering="optimizeQuality"
       font-family="'Lucida Grande'"
       stroke-linejoin="round"
       stroke="#ffffff"
       stroke-width="2"
       id="g44">
      <path
         d="M 43,22 C 43,33.598 33.598,43 22,43 10.402,43 1,33.598 1,22 1,10.402 10.402,1 22,1 33.598,1 43,10.402 43,22 Z"
         stroke="none"
         clip-path="url(#clipPath13)"
         id="path43" />
      <path
         fill="none"
         d="M 43,22 C 43,33.598 33.598,43 22,43 10.402,43 1,33.598 1,22 1,10.402 10.402,1 22,1 33.598,1 43,10.402 43,22 Z"
         clip-path="url(#clipPath13)"
         stroke="#000000"
         id="path44" />
    </g>
    <g
       text-rendering="optimizeLegibility"
       font-size="14px"
       font-weight="bold"
       font-family="Arial"
       transform="translate(304,178)"
       image-rendering="optimizeQuality"
       id="g45">
      <text
         x="5"
         xml:space="preserve"
         y="15"
         clip-path="url(#clipPath17)"
         stroke="none"
         id="text44">OR</text>
    </g>
    <g
       stroke-linecap="butt"
       font-size="13px"
       transform="translate(554,90)"
       text-rendering="optimizeLegibility"
       image-rendering="optimizeQuality"
       font-family="'Lucida Grande'"
       stroke-linejoin="round"
       stroke-width="1.5"
       id="g46">
      <path
         fill="none"
         d="m 0.75,0.75 v 54 19.5"
         clip-path="url(#clipPath18)"
         id="path45" />
    </g>
    <g
       stroke-linecap="butt"
       font-size="13px"
       transform="translate(319,209)"
       text-rendering="optimizeLegibility"
       image-rendering="optimizeQuality"
       font-family="'Lucida Grande'"
       stroke-linejoin="round"
       stroke-width="1.5"
       id="g47">
      <path
         fill="none"
         d="m 235.75,0.75 v 19.5 l -235,43.5 v 19.5"
         clip-path="url(#clipPath19)"
         id="path46" />
    </g>
    <g
       stroke-linecap="butt"
       font-size="13px"
       transform="translate(319,209)"
       text-rendering="optimizeLegibility"
       image-rendering="optimizeQuality"
       font-family="'Lucida Grande'"
       stroke-linejoin="round"
       stroke-width="1.5"
       id="g48">
      <path
         fill="none"
         d="m 0.75,0.75 v 19.5 43.5 19.5"
         clip-path="url(#clipPath20)"
         id="path47" />
    </g>
    <g
       stroke-linecap="butt"
       font-size="13px"
       transform="translate(319,90)"
       text-rendering="optimizeLegibility"
       image-rendering="optimizeQuality"
       font-family="'Lucida Grande'"
       stroke-linejoin="round"
       stroke-width="1.5"
       id="g49">
      <path
         fill="none"
         d="M 48.1184,0.75 0.75,54.75 v 19.5"
         clip-path="url(#clipPath21)"
         id="path48" />
    </g>
    <g
       stroke-linecap="butt"
       font-size="13px"
       transform="translate(114,90)"
       text-rendering="optimizeLegibility"
       image-rendering="optimizeQuality"
       font-family="'Lucida Grande'"
       stroke-linejoin="round"
       stroke-width="1.5"
       id="g50">
      <path
         fill="none"
         d="m 0.75,0.75 204.507,181.5 v 19.5"
         clip-path="url(#clipPath22)"
         id="path49" />
    </g>
    <g
       stroke-linecap="butt"
       font-size="13px"
       transform="translate(265,90)"
       text-rendering="optimizeLegibility"
       image-rendering="optimizeQuality"
       font-family="'Lucida Grande'"
       stroke-linejoin="round"
       stroke-width="1.5"
       id="g51">
      <path
         fill="none"
         d="m 0.75,0.75 53.6842,54 v 19.5"
         clip-path="url(#clipPath23)"
         id="path50" />
    </g>
    <g
       stroke-linecap="butt"
       font-size="13px"
       transform="translate(308,336)"
       text-rendering="optimizeLegibility"
       image-rendering="optimizeQuality"
       font-family="'Lucida Grande'"
       stroke-linejoin="round"
       stroke-width="1.5"
       id="g53">
      <path
         fill="none"
         d="M 11.55,0.75 V 20.25 71.9"
         clip-path="url(#clipPath24)"
         id="path51" />
      <path
         fill="#ffffff"
         d="M 11.55,65.15 H 0.75 m 10.8,0 h 10.8 M 11.55,71.9 H 18.3 L 11.55,85.4 4.8,71.9 Z"
         clip-path="url(#clipPath24)"
         stroke="none"
         id="path52" />
      <path
         fill="none"
         d="M 11.55,65.15 H 0.75 m 10.8,0 h 10.8 M 11.55,71.9 H 18.3 L 11.55,85.4 4.8,71.9 Z"
         clip-path="url(#clipPath24)"
         id="path53" />
    </g>
  </g>
</svg>
