<?xml version="1.0" encoding="UTF-8" standalone="no"?>
<svg
   fill-opacity="1"
   color-rendering="auto"
   color-interpolation="auto"
   text-rendering="auto"
   stroke="black"
   stroke-linecap="square"
   width="835"
   stroke-miterlimit="10"
   shape-rendering="auto"
   stroke-opacity="1"
   fill="black"
   stroke-dasharray="none"
   font-weight="normal"
   stroke-width="1"
   height="604"
   font-family="'Dialog'"
   font-style="normal"
   stroke-linejoin="miter"
   font-size="12px"
   stroke-dashoffset="0"
   image-rendering="auto"
   version="1.1"
   id="svg82"
   sodipodi:docname="PPAR.final.svg"
   inkscape:version="1.3.2 (091e20e, 2023-11-25)"
   xmlns:inkscape="http://www.inkscape.org/namespaces/inkscape"
   xmlns:sodipodi="http://sodipodi.sourceforge.net/DTD/sodipodi-0.dtd"
   xmlns="http://www.w3.org/2000/svg"
   xmlns:svg="http://www.w3.org/2000/svg">
  <sodipodi:namedview
     id="namedview82"
     pagecolor="#ffffff"
     bordercolor="#000000"
     borderopacity="0.25"
     inkscape:showpageshadow="2"
     inkscape:pageopacity="0.0"
     inkscape:pagecheckerboard="0"
     inkscape:deskcolor="#d1d1d1"
     inkscape:zoom="1.352531"
     inkscape:cx="372.63472"
     inkscape:cy="346.38763"
     inkscape:window-width="1512"
     inkscape:window-height="826"
     inkscape:window-x="0"
     inkscape:window-y="38"
     inkscape:window-maximized="1"
     inkscape:current-layer="g55" />
  <!--Generated by the Batik Graphics2D SVG Generator-->
  <defs
     id="genericDefs" />
  <g
     id="g82">
    <defs
       id="defs1">
      <clipPath
         clipPathUnits="userSpaceOnUse"
         id="clipPath1">
        <path
           d="M0 0 L967 0 L967 704 L0 704 L0 0 Z"
           id="path1" />
      </clipPath>
      <clipPath
         clipPathUnits="userSpaceOnUse"
         id="clipPath2">
        <path
           d="M0 0 L0 64 L144 64 L144 0 Z"
           id="path2" />
      </clipPath>
      <clipPath
         clipPathUnits="userSpaceOnUse"
         id="clipPath3">
        <path
           d="M0 0 L0 37 L127 37 L127 0 Z"
           id="path3" />
      </clipPath>
      <clipPath
         clipPathUnits="userSpaceOnUse"
         id="clipPath4">
        <path
           d="M0 0 L0 36 L126 36 L126 0 Z"
           id="path4" />
      </clipPath>
      <clipPath
         clipPathUnits="userSpaceOnUse"
         id="clipPath5">
        <path
           d="M0 0 L0 18 L35 18 L35 0 Z"
           id="path5" />
      </clipPath>
      <clipPath
         clipPathUnits="userSpaceOnUse"
         id="clipPath6">
        <path
           d="M0 0 L0 17 L34 17 L34 0 Z"
           id="path6" />
      </clipPath>
      <clipPath
         clipPathUnits="userSpaceOnUse"
         id="clipPath7">
        <path
           d="M0 0 L0 64 L112 64 L112 0 Z"
           id="path7" />
      </clipPath>
      <clipPath
         clipPathUnits="userSpaceOnUse"
         id="clipPath8">
        <path
           d="M0 0 L0 20 L56 20 L56 0 Z"
           id="path8" />
      </clipPath>
      <clipPath
         clipPathUnits="userSpaceOnUse"
         id="clipPath9">
        <path
           d="M0 0 L0 19 L55 19 L55 0 Z"
           id="path9" />
      </clipPath>
      <clipPath
         clipPathUnits="userSpaceOnUse"
         id="clipPath10">
        <path
           d="M0 0 L0 20 L62 20 L62 0 Z"
           id="path10" />
      </clipPath>
      <clipPath
         clipPathUnits="userSpaceOnUse"
         id="clipPath11">
        <path
           d="M0 0 L0 19 L61 19 L61 0 Z"
           id="path11" />
      </clipPath>
      <clipPath
         clipPathUnits="userSpaceOnUse"
         id="clipPath12">
        <path
           d="M0 0 L0 24 L37 24 L37 0 Z"
           id="path12" />
      </clipPath>
      <clipPath
         clipPathUnits="userSpaceOnUse"
         id="clipPath13">
        <path
           d="M0 0 L0 23 L36 23 L36 0 Z"
           id="path13" />
      </clipPath>
      <clipPath
         clipPathUnits="userSpaceOnUse"
         id="clipPath14">
        <path
           d="M0 0 L0 20 L76 20 L76 0 Z"
           id="path14" />
      </clipPath>
      <clipPath
         clipPathUnits="userSpaceOnUse"
         id="clipPath15">
        <path
           d="M0 0 L0 19 L75 19 L75 0 Z"
           id="path15" />
      </clipPath>
      <clipPath
         clipPathUnits="userSpaceOnUse"
         id="clipPath16">
        <path
           d="M0 0 L0 59 L16 59 L16 0 Z"
           id="path16" />
      </clipPath>
      <clipPath
         clipPathUnits="userSpaceOnUse"
         id="clipPath17">
        <path
           d="M0 0 L0 58 L24 58 L24 0 Z"
           id="path17" />
      </clipPath>
      <clipPath
         clipPathUnits="userSpaceOnUse"
         id="clipPath18">
        <path
           d="M0 0 L0 57 L26 57 L26 0 Z"
           id="path18" />
      </clipPath>
      <clipPath
         clipPathUnits="userSpaceOnUse"
         id="clipPath19">
        <path
           d="M0 0 L0 17 L135 17 L135 0 Z"
           id="path19" />
      </clipPath>
      <clipPath
         clipPathUnits="userSpaceOnUse"
         id="clipPath20">
        <path
           d="M0 0 L0 180 L16 180 L16 0 Z"
           id="path20" />
      </clipPath>
      <clipPath
         clipPathUnits="userSpaceOnUse"
         id="clipPath21">
        <path
           d="M0 0 L0 180 L187 180 L187 0 Z"
           id="path21" />
      </clipPath>
      <clipPath
         clipPathUnits="userSpaceOnUse"
         id="clipPath22">
        <path
           d="M0 0 L0 74 L144 74 L144 0 Z"
           id="path22" />
      </clipPath>
      <clipPath
         clipPathUnits="userSpaceOnUse"
         id="clipPath23">
        <path
           d="M0 0 L0 54 L119 54 L119 0 Z"
           id="path23" />
      </clipPath>
      <clipPath
         clipPathUnits="userSpaceOnUse"
         id="clipPath24">
        <path
           d="M0 0 L0 53 L118 53 L118 0 Z"
           id="path24" />
      </clipPath>
      <clipPath
         clipPathUnits="userSpaceOnUse"
         id="clipPath25">
        <path
           d="M0 0 L0 46 L46 46 L46 0 Z"
           id="path25" />
      </clipPath>
      <clipPath
         clipPathUnits="userSpaceOnUse"
         id="clipPath26">
        <path
           d="M0 0 L0 20 L32 20 L32 0 Z"
           id="path26" />
      </clipPath>
      <clipPath
         clipPathUnits="userSpaceOnUse"
         id="clipPath27">
        <path
           d="M0 0 L0 19 L31 19 L31 0 Z"
           id="path27" />
      </clipPath>
      <clipPath
         clipPathUnits="userSpaceOnUse"
         id="clipPath28">
        <path
           d="M0 0 L0 31 L246 31 L246 0 Z"
           id="path28" />
      </clipPath>
      <clipPath
         clipPathUnits="userSpaceOnUse"
         id="clipPath29">
        <path
           d="M0 0 L0 30 L69 30 L69 0 Z"
           id="path29" />
      </clipPath>
      <clipPath
         clipPathUnits="userSpaceOnUse"
         id="clipPath30">
        <path
           d="M0 0 L0 30 L75 30 L75 0 Z"
           id="path30" />
      </clipPath>
    </defs>
    <g
       stroke-linecap="round"
       font-size="13px"
       transform="translate(188,138)"
       fill="white"
       text-rendering="optimizeLegibility"
       image-rendering="optimizeQuality"
       font-family="'Lucida Grande'"
       stroke-linejoin="round"
       stroke="white"
       stroke-width="2"
       id="g32">
      <path
         d="M1 1 L141 1 L141 61 L1 61 L1 1 Z"
         stroke="none"
         clip-path="url(#clipPath2)"
         id="path31" />
      <path
         fill="none"
         d="M1 1 L141 1 L141 61 L1 61 L1 1 Z"
         clip-path="url(#clipPath2)"
         stroke="black"
         id="path32" />
    </g>
    <g
       text-rendering="optimizeLegibility"
       font-size="14px"
       font-family="'Arial'"
       transform="translate(196,151)"
       image-rendering="optimizeQuality"
       id="g34">
      <text
         x="61.526367"
         xml:space="preserve"
         y="15"
         clip-path="url(#clipPath4)"
         stroke="none"
         id="text32"><tspan
           sodipodi:role="line"
           id="tspan82"
           x="61.526367"
           y="15"
           style="text-align:center;text-anchor:middle">nutrition/metabolic</tspan><tspan
           sodipodi:role="line"
           id="tspan83"
           x="61.526367"
           y="32.5"
           style="text-align:center;text-anchor:middle">signal activity</tspan></text>
      <text
         x="121"
         xml:space="preserve"
         y="15"
         clip-path="url(#clipPath4)"
         stroke="none"
         id="text33"> </text>
    </g>
    <g
       font-size="10px"
       transform="translate(206,130)"
       fill="white"
       text-rendering="optimizeLegibility"
       image-rendering="optimizeQuality"
       font-family="'Arial'"
       stroke="white"
       stroke-width="2"
       id="g35">
      <path
         d="M1.5 1.5 L32.5 1.5 L24.75 8.5 L32.5 15.5 L1.5 15.5 L9.25 8.5 L1.5 1.5 Z"
         stroke="none"
         clip-path="url(#clipPath6)"
         id="path34" />
      <path
         fill="none"
         d="M1.5 1.5 L32.5 1.5 L24.75 8.5 L32.5 15.5 L1.5 15.5 L9.25 8.5 L1.5 1.5 Z"
         clip-path="url(#clipPath6)"
         stroke="black"
         id="path35" />
    </g>
    <g
       text-rendering="optimizeLegibility"
       stroke-width="2"
       font-size="10px"
       font-family="'Arial'"
       transform="translate(206,130)"
       image-rendering="optimizeQuality"
       id="g36">
      <text
         x="8"
         xml:space="preserve"
         y="12"
         clip-path="url(#clipPath6)"
         stroke="none"
         id="text35">      </text>
    </g>
    <g
       stroke-linecap="round"
       font-size="13px"
       transform="translate(204,258)"
       fill="white"
       text-rendering="optimizeLegibility"
       image-rendering="optimizeQuality"
       font-family="'Lucida Grande'"
       stroke-linejoin="round"
       stroke="white"
       stroke-width="2"
       id="g37">
      <path
         d="M1 1 L109 1 L109 61 L1 61 L1 1 Z"
         stroke="none"
         clip-path="url(#clipPath7)"
         id="path36" />
      <path
         fill="none"
         d="M1 1 L109 1 L109 61 L1 61 L1 1 Z"
         clip-path="url(#clipPath7)"
         stroke="black"
         id="path37" />
    </g>
    <g
       text-rendering="optimizeLegibility"
       font-size="14px"
       font-family="'Arial'"
       transform="translate(232,280)"
       image-rendering="optimizeQuality"
       id="g38">
      <text
         x="5"
         xml:space="preserve"
         y="15"
         clip-path="url(#clipPath9)"
         stroke="none"
         id="text37">PPARδ</text>
    </g>
    <g
       stroke-linecap="round"
       font-size="13px"
       transform="translate(204,378)"
       fill="white"
       text-rendering="optimizeLegibility"
       image-rendering="optimizeQuality"
       font-family="'Lucida Grande'"
       stroke-linejoin="round"
       stroke="white"
       stroke-width="2"
       id="g39">
      <path
         d="M1 1 L109 1 L109 61 L1 61 L1 1 Z"
         stroke="none"
         clip-path="url(#clipPath7)"
         id="path38" />
      <path
         fill="none"
         d="M1 1 L109 1 L109 61 L1 61 L1 1 Z"
         clip-path="url(#clipPath7)"
         stroke="black"
         id="path39" />
    </g>
    <g
       font-size="10px"
       transform="translate(214,370)"
       fill="white"
       text-rendering="optimizeLegibility"
       image-rendering="optimizeQuality"
       font-family="'Arial'"
       stroke="white"
       stroke-width="2"
       id="g41">
      <path
         d="M1.5 1.5 L32.5 1.5 L32.5 8.5 L32.4138 9.595 L32.1574 10.6631 L31.737 11.6779 L31.1631 12.6145 L30.4497 13.4497 L29.6145 14.1631 L28.6779 14.737 L27.6631 15.1574 L26.595 15.4138 L25.5 15.5 L8.5 15.5 L7.405 15.4138 L6.3369 15.1574 L5.3221 14.737 L4.3855 14.1631 L3.5503 13.4497 L2.8369 12.6145 L2.263 11.6779 L1.8426 10.6631 L1.5862 9.595 L1.5 1.5 Z"
         stroke="none"
         clip-path="url(#clipPath6)"
         id="path40" />
      <path
         fill="none"
         d="M1.5 1.5 L32.5 1.5 L32.5 8.5 L32.4138 9.595 L32.1574 10.6631 L31.737 11.6779 L31.1631 12.6145 L30.4497 13.4497 L29.6145 14.1631 L28.6779 14.737 L27.6631 15.1574 L26.595 15.4138 L25.5 15.5 L8.5 15.5 L7.405 15.4138 L6.3369 15.1574 L5.3221 14.737 L4.3855 14.1631 L3.5503 13.4497 L2.8369 12.6145 L2.263 11.6779 L1.8426 10.6631 L1.5862 9.595 L1.5 1.5 Z"
         clip-path="url(#clipPath6)"
         stroke="black"
         id="path41" />
    </g>
    <g
       text-rendering="optimizeLegibility"
       stroke-width="2"
       font-size="10px"
       font-family="'Arial'"
       transform="translate(214,370)"
       image-rendering="optimizeQuality"
       id="g42">
      <text
         x="8"
         xml:space="preserve"
         y="12"
         clip-path="url(#clipPath6)"
         stroke="none"
         id="text41">      </text>
    </g>
    <g
       text-rendering="optimizeLegibility"
       font-size="14px"
       font-family="'Arial'"
       transform="translate(232,400)"
       image-rendering="optimizeQuality"
       id="g43">
      <text
         x="5"
         xml:space="preserve"
         y="14"
         clip-path="url(#clipPath9)"
         stroke="none"
         id="text42">Twist-1</text>
    </g>
    <g
       stroke-linecap="round"
       font-size="13px"
       transform="translate(204,498)"
       fill="white"
       text-rendering="optimizeLegibility"
       image-rendering="optimizeQuality"
       font-family="'Lucida Grande'"
       stroke-linejoin="round"
       stroke="white"
       stroke-width="2"
       id="g44">
      <path
         d="M1 1 L109 1 L109 61 L1 61 L1 1 Z"
         stroke="none"
         clip-path="url(#clipPath7)"
         id="path43" />
      <path
         fill="none"
         d="M1 1 L109 1 L109 61 L1 61 L1 1 Z"
         clip-path="url(#clipPath7)"
         stroke="black"
         id="path44" />
    </g>
    <g
       font-size="10px"
       transform="translate(214,490)"
       fill="white"
       text-rendering="optimizeLegibility"
       image-rendering="optimizeQuality"
       font-family="'Arial'"
       stroke="white"
       stroke-width="2"
       id="g45">
      <rect
         x="1.5"
         y="1.5"
         clip-path="url(#clipPath6)"
         width="31"
         rx="3.5"
         ry="3.5"
         height="14"
         stroke="none"
         id="rect44" />
      <rect
         x="1.5"
         y="1.5"
         clip-path="url(#clipPath6)"
         fill="none"
         width="31"
         rx="3.5"
         ry="3.5"
         height="14"
         stroke="black"
         id="rect45" />
    </g>
    <g
       text-rendering="optimizeLegibility"
       stroke-width="2"
       font-size="10px"
       font-family="'Arial'"
       transform="translate(214,490)"
       image-rendering="optimizeQuality"
       id="g46">
      <text
         x="8"
         xml:space="preserve"
         y="12"
         clip-path="url(#clipPath6)"
         stroke="none"
         id="text45">      </text>
    </g>
    <g
       text-rendering="optimizeLegibility"
       font-size="14px"
       font-family="'Arial'"
       transform="translate(232,520)"
       image-rendering="optimizeQuality"
       id="g47">
      <text
         x="5"
         xml:space="preserve"
         y="14"
         clip-path="url(#clipPath9)"
         stroke="none"
         id="text46">Twist-1</text>
    </g>
    <g
       stroke-linecap="round"
       font-size="13px"
       transform="translate(454,498)"
       fill="white"
       text-rendering="optimizeLegibility"
       image-rendering="optimizeQuality"
       font-family="'Lucida Grande'"
       stroke-linejoin="round"
       stroke="white"
       stroke-width="2"
       id="g48">
      <path
         d="M1 1 L109 1 L109 61 L1 61 L1 1 Z"
         stroke="none"
         clip-path="url(#clipPath7)"
         id="path47" />
      <path
         fill="none"
         d="M1 1 L109 1 L109 61 L1 61 L1 1 Z"
         clip-path="url(#clipPath7)"
         stroke="black"
         id="path48" />
    </g>
    <g
       text-rendering="optimizeLegibility"
       font-size="14px"
       font-family="'Arial'"
       transform="translate(479,520)"
       image-rendering="optimizeQuality"
       id="g49">
      <text
         x="5"
         xml:space="preserve"
         y="15"
         clip-path="url(#clipPath11)"
         stroke="none"
         id="text48">PGC-1α</text>
    </g>
    <g
       stroke-linecap="round"
       font-size="13px"
       transform="translate(454,258)"
       fill="white"
       text-rendering="optimizeLegibility"
       image-rendering="optimizeQuality"
       font-family="'Lucida Grande'"
       stroke-linejoin="round"
       stroke="white"
       stroke-width="2"
       id="g50">
      <path
         d="M1 1 L109 1 L109 61 L1 61 L1 1 Z"
         stroke="none"
         clip-path="url(#clipPath7)"
         id="path49" />
      <path
         fill="none"
         d="M1 1 L109 1 L109 61 L1 61 L1 1 Z"
         clip-path="url(#clipPath7)"
         stroke="black"
         id="path50" />
    </g>
    <g
       font-size="10px"
       transform="translate(463,247)"
       fill="white"
       text-rendering="optimizeLegibility"
       image-rendering="optimizeQuality"
       font-family="'Arial'"
       stroke="white"
       stroke-width="2"
       id="g51">
      <ellipse
         rx="16.5"
         ry="10"
         clip-path="url(#clipPath13)"
         cx="18"
         cy="11.5"
         stroke="none"
         id="ellipse50" />
      <ellipse
         clip-path="url(#clipPath13)"
         fill="none"
         rx="16.5"
         cx="18"
         ry="10"
         cy="11.5"
         stroke="black"
         id="ellipse51" />
    </g>
    <g
       text-rendering="optimizeLegibility"
       stroke-width="2"
       font-size="10px"
       font-family="'Arial'"
       transform="translate(463,247)"
       image-rendering="optimizeQuality"
       id="g52">
      <text
         x="9"
         xml:space="preserve"
         y="15"
         clip-path="url(#clipPath13)"
         stroke="none"
         id="text51">      </text>
    </g>
    <g
       text-rendering="optimizeLegibility"
       font-size="14px"
       font-family="'Arial'"
       transform="translate(472,280)"
       image-rendering="optimizeQuality"
       id="g53">
      <text
         x="5"
         xml:space="preserve"
         y="14"
         clip-path="url(#clipPath15)"
         stroke="none"
         id="text52">TF activity</text>
    </g>
    <g
       stroke-linecap="butt"
       font-size="13px"
       transform="translate(252,200)"
       text-rendering="optimizeLegibility"
       image-rendering="optimizeQuality"
       font-family="'Lucida Grande'"
       stroke-linejoin="round"
       stroke-width="1.5"
       id="g55">
      <path
         fill="none"
         d="m 7.5,0.75 v 43.5"
         clip-path="url(#clipPath16)"
         id="path53"
         transform="matrix(1,0,0,1.0339364,0,-1.5016866)" />
      <path
         fill="white"
         d="M14.25 44.25 L0.75 44.25 L7.5 57.75 Z"
         clip-path="url(#clipPath16)"
         stroke="none"
         id="path54" />
      <path
         fill="none"
         d="M14.25 44.25 L0.75 44.25 L7.5 57.75 Z"
         clip-path="url(#clipPath16)"
         id="path55" />
    </g>
    <g
       stroke-linecap="butt"
       font-size="13px"
       transform="translate(248,320)"
       text-rendering="optimizeLegibility"
       image-rendering="optimizeQuality"
       font-family="'Lucida Grande'"
       stroke-linejoin="round"
       stroke-width="1.5"
       id="g58">
      <path
         fill="none"
         d="M 11.55,0.75 V 42.9"
         clip-path="url(#clipPath17)"
         id="path56"
         transform="matrix(1,0,0,1.0408606,0,-1.7529188)" />
      <path
         fill="white"
         d="M11.55 36.15 L0.75 36.15 M11.55 36.15 L22.35 36.15 M11.55 42.9 L18.3 42.9 L11.55 56.4 L4.8 42.9 L11.55 42.9 Z"
         clip-path="url(#clipPath17)"
         stroke="none"
         id="path57" />
      <path
         fill="none"
         d="M11.55 36.15 L0.75 36.15 M11.55 36.15 L22.35 36.15 M11.55 42.9 L18.3 42.9 L11.55 56.4 L4.8 42.9 L11.55 42.9 Z"
         clip-path="url(#clipPath17)"
         id="path58" />
    </g>
    <g
       stroke-linecap="butt"
       font-size="13px"
       transform="translate(247,441)"
       text-rendering="optimizeLegibility"
       image-rendering="optimizeQuality"
       font-family="'Lucida Grande'"
       stroke-linejoin="round"
       stroke-width="1.5"
       id="g61">
      <path
         fill="none"
         d="M 12.5,0.5 V 41"
         clip-path="url(#clipPath18)"
         id="path59"
         transform="matrix(1,0,0,1.0486003,0,-1.9926126)" />
      <path
         fill="white"
         d="M12.5 33.5 L0.5 33.5 M12.5 33.5 L24.5 33.5 M12.5 41 L20 41 L12.5 56 L5 41 L12.5 41 Z"
         clip-path="url(#clipPath18)"
         stroke="none"
         id="path60" />
      <path
         fill="none"
         d="M12.5 33.5 L0.5 33.5 M12.5 33.5 L24.5 33.5 M12.5 41 L20 41 L12.5 56 L5 41 L12.5 41 Z"
         clip-path="url(#clipPath18)"
         id="path61" />
    </g>
    <g
       stroke-linecap="butt"
       font-size="13px"
       transform="translate(314,521)"
       text-rendering="optimizeLegibility"
       image-rendering="optimizeQuality"
       font-family="'Lucida Grande'"
       stroke-linejoin="round"
       stroke-width="1.5"
       id="g63">
      <path
         fill="none"
         d="M0.75 8.25 L132.25 8.25"
         clip-path="url(#clipPath19)"
         id="path62" />
      <path
         d="M132.25 0.75 L132.25 15.75 L133.75 15.75 L133.75 0.75 Z"
         clip-path="url(#clipPath19)"
         stroke="none"
         id="path63" />
    </g>
    <g
       stroke-linecap="butt"
       font-size="13px"
       transform="translate(502,320)"
       text-rendering="optimizeLegibility"
       image-rendering="optimizeQuality"
       font-family="'Lucida Grande'"
       stroke-linejoin="round"
       stroke-width="1.5"
       id="g66">
      <path
         fill="none"
         d="M7.5 177.75 L7.5 14.25"
         clip-path="url(#clipPath20)"
         id="path64" />
      <path
         fill="white"
         d="M0.75 14.25 L14.25 14.25 L7.5 0.75 Z"
         clip-path="url(#clipPath20)"
         stroke="none"
         id="path65" />
      <path
         fill="none"
         d="M0.75 14.25 L14.25 14.25 L7.5 0.75 Z"
         clip-path="url(#clipPath20)"
         id="path66" />
    </g>
    <g
       stroke-linecap="butt"
       font-size="13px"
       transform="translate(292,320)"
       text-rendering="optimizeLegibility"
       image-rendering="optimizeQuality"
       font-family="'Lucida Grande'"
       stroke-linejoin="round"
       stroke-width="1.5"
       id="g69">
      <path
         fill="none"
         d="M185.125 177.75 L10.4887 10.0992"
         clip-path="url(#clipPath21)"
         id="path67" />
      <path
         fill="white"
         d="M5.8141 14.9685 L15.1633 5.2298 L0.75 0.75 Z"
         clip-path="url(#clipPath21)"
         stroke="none"
         id="path68" />
      <path
         fill="none"
         d="M5.8141 14.9685 L15.1633 5.2298 L0.75 0.75 Z"
         clip-path="url(#clipPath21)"
         id="path69" />
    </g>
    <g
       stroke-linecap="round"
       font-size="13px"
       transform="translate(633,156)"
       fill="white"
       text-rendering="optimizeLegibility"
       image-rendering="optimizeQuality"
       font-family="'Lucida Grande'"
       stroke-linejoin="round"
       stroke="white"
       stroke-width="2"
       id="g71">
      <path
         d="M1 1 L141 1 L141 71 L1 71 L1 1 Z"
         stroke="none"
         clip-path="url(#clipPath22)"
         id="path70" />
      <path
         fill="none"
         d="M1 1 L141 1 L141 71 L1 71 L1 1 Z"
         clip-path="url(#clipPath22)"
         stroke="black"
         id="path71" />
    </g>
    <g
       text-rendering="optimizeLegibility"
       font-size="14px"
       font-family="'Arial'"
       transform="translate(645,166)"
       image-rendering="optimizeQuality"
       id="g75">
      <text
         x="57.616211"
         xml:space="preserve"
         y="15"
         clip-path="url(#clipPath24)"
         stroke="none"
         id="text71"><tspan
           sodipodi:role="line"
           id="tspan84"
           x="57.616211"
           y="15"
           style="text-align:center;text-anchor:middle">Genes for</tspan><tspan
           sodipodi:role="line"
           id="tspan85"
           x="57.616211"
           y="32.5"
           style="text-align:center;text-anchor:middle">Brown fat energy</tspan><tspan
           sodipodi:role="line"
           x="57.616211"
           y="50"
           id="tspan87"
           style="text-align:center;text-anchor:middle">dissipation</tspan></text>
      <text
         x="68"
         xml:space="preserve"
         y="15"
         clip-path="url(#clipPath24)"
         stroke="none"
         id="text72"> </text>
      <text
         x="113"
         xml:space="preserve"
         y="32"
         clip-path="url(#clipPath24)"
         stroke="none"
         id="text74"> </text>
    </g>
    <g
       stroke-linecap="round"
       font-size="13px"
       transform="translate(365,210)"
       fill="white"
       text-rendering="optimizeLegibility"
       image-rendering="optimizeQuality"
       font-family="'Lucida Grande'"
       stroke-linejoin="round"
       stroke="white"
       stroke-width="2"
       id="g76">
      <path
         d="M43 22 C43 33.598 33.598 43 22 43 C10.402 43 1 33.598 1 22 C1 10.402 10.402 1 22 1 C33.598 1 43 10.402 43 22 Z"
         stroke="none"
         clip-path="url(#clipPath25)"
         id="path75" />
      <path
         fill="none"
         d="M43 22 C43 33.598 33.598 43 22 43 C10.402 43 1 33.598 1 22 C1 10.402 10.402 1 22 1 C33.598 1 43 10.402 43 22 Z"
         clip-path="url(#clipPath25)"
         stroke="black"
         id="path76" />
    </g>
    <g
       text-rendering="optimizeLegibility"
       font-size="14px"
       font-weight="bold"
       font-family="'Arial'"
       transform="translate(372,223)"
       image-rendering="optimizeQuality"
       id="g77">
      <text
         x="5"
         xml:space="preserve"
         y="15"
         clip-path="url(#clipPath27)"
         stroke="none"
         id="text76">OR</text>
    </g>
    <g
       stroke-linecap="butt"
       font-size="13px"
       transform="translate(387,180.48166)"
       text-rendering="optimizeLegibility"
       image-rendering="optimizeQuality"
       font-family="'Lucida Grande'"
       stroke-linejoin="round"
       stroke-width="1.5"
       id="g79">
      <path
         fill="none"
         d="M 0.75,29.6372 V 11.491049 L 231.4003,11.5924"
         clip-path="url(#clipPath28)"
         id="path77"
         sodipodi:nodetypes="ccc" />
      <path
         fill="#ffffff"
         d="m 224.6504,11.5498 -0.0681,10.7998 M 224.6504,11.5498 224.7186,0.75 m 6.6817,10.8424 0.0426,-6.7499 13.4571,6.835 -13.5423,6.6647 z"
         clip-path="url(#clipPath28)"
         stroke="none"
         id="path78" />
      <path
         fill="none"
         d="m 224.6504,11.5498 -0.0681,10.7998 M 224.6504,11.5498 224.7186,0.75 m 6.6817,10.8424 0.0426,-6.7499 13.4571,6.835 -13.5423,6.6647 z"
         clip-path="url(#clipPath28)"
         id="path79" />
    </g>
    <g
       stroke-linecap="butt"
       font-size="13px"
       transform="matrix(1.0082945,0,0,1.0284915,386.43743,253.1652)"
       text-rendering="optimizeLegibility"
       image-rendering="optimizeQuality"
       font-family="'Lucida Grande'"
       stroke-linejoin="round"
       stroke-width="1.5"
       id="g80">
      <path
         fill="none"
         d="M 67.25,28.6988 0.75,20.25 V 0.75"
         clip-path="url(#clipPath29)"
         id="path80" />
    </g>
    <g
       stroke-linecap="butt"
       font-size="13px"
       transform="matrix(1.016217,0,0,1.0252262,312.79817,253.25078)"
       text-rendering="optimizeLegibility"
       image-rendering="optimizeQuality"
       font-family="'Lucida Grande'"
       stroke-linejoin="round"
       stroke-width="1.5"
       id="g81">
      <path
         fill="none"
         d="M 0.75,29.0293 73.25,20.25 V 0.75"
         clip-path="url(#clipPath30)"
         id="path81" />
    </g>
  </g>
</svg>
