<?xml version="1.0" encoding="UTF-8" standalone="no"?>
<svg
   fill-opacity="1"
   color-rendering="auto"
   color-interpolation="auto"
   text-rendering="auto"
   stroke="black"
   stroke-linecap="square"
   width="622"
   stroke-miterlimit="10"
   shape-rendering="auto"
   stroke-opacity="1"
   fill="black"
   stroke-dasharray="none"
   font-weight="normal"
   stroke-width="1"
   height="342"
   font-family="'Dialog'"
   font-style="normal"
   stroke-linejoin="miter"
   font-size="12px"
   stroke-dashoffset="0"
   image-rendering="auto"
   version="1.1"
   id="svg17"
   sodipodi:docname="compUnitInfo.final.svg"
   inkscape:version="1.3.2 (091e20e, 2023-11-25)"
   xmlns:inkscape="http://www.inkscape.org/namespaces/inkscape"
   xmlns:sodipodi="http://sodipodi.sourceforge.net/DTD/sodipodi-0.dtd"
   xmlns="http://www.w3.org/2000/svg"
   xmlns:svg="http://www.w3.org/2000/svg">
  <sodipodi:namedview
     id="namedview17"
     pagecolor="#ffffff"
     bordercolor="#000000"
     borderopacity="0.25"
     inkscape:showpageshadow="2"
     inkscape:pageopacity="0.0"
     inkscape:pagecheckerboard="0"
     inkscape:deskcolor="#d1d1d1"
     inkscape:zoom="6.3147502"
     inkscape:cx="491.78509"
     inkscape:cy="320.12351"
     inkscape:window-width="1512"
     inkscape:window-height="826"
     inkscape:window-x="0"
     inkscape:window-y="38"
     inkscape:window-maximized="1"
     inkscape:current-layer="g17" />
  <!--Generated by the Batik Graphics2D SVG Generator-->
  <defs
     id="genericDefs" />
  <g
     id="g17">
    <defs
       id="defs1">
      <clipPath
         clipPathUnits="userSpaceOnUse"
         id="clipPath1">
        <path
           d="M0 0 L910 0 L910 690 L0 690 L0 0 Z"
           id="path1" />
      </clipPath>
      <clipPath
         clipPathUnits="userSpaceOnUse"
         id="clipPath2">
        <path
           d="M0 0 L0 64 L112 64 L112 0 Z"
           id="path2" />
      </clipPath>
      <clipPath
         clipPathUnits="userSpaceOnUse"
         id="clipPath3">
        <path
           d="M0 0 L0 27 L87 27 L87 0 Z"
           id="path3" />
      </clipPath>
      <clipPath
         clipPathUnits="userSpaceOnUse"
         id="clipPath4">
        <path
           d="M0 0 L0 26 L86 26 L86 0 Z"
           id="path4" />
      </clipPath>
      <clipPath
         clipPathUnits="userSpaceOnUse"
         id="clipPath5">
        <path
           d="M0 0 L0 27 L27 27 L27 0 Z"
           id="path5" />
      </clipPath>
      <clipPath
         clipPathUnits="userSpaceOnUse"
         id="clipPath6">
        <path
           d="M0 0 L0 4 L35 4 L35 0 Z"
           id="path6" />
      </clipPath>
      <clipPath
         clipPathUnits="userSpaceOnUse"
         id="clipPath7">
        <path
           d="M0 0 L0 4 L33 4 L33 0 Z"
           id="path7" />
      </clipPath>
    </defs>
    <g
       stroke-linecap="round"
       font-size="13px"
       transform="translate(454,278)"
       fill="white"
       text-rendering="optimizeLegibility"
       image-rendering="optimizeQuality"
       font-family="'Lucida Grande'"
       stroke-linejoin="round"
       stroke="white"
       stroke-width="2"
       id="g9">
      <path
         d="M1 1 L109 1 L109 61 L1 61 L1 1 Z"
         stroke="none"
         clip-path="url(#clipPath2)"
         id="path8" />
      <path
         fill="none"
         d="M1 1 L109 1 L109 61 L1 61 L1 1 Z"
         clip-path="url(#clipPath2)"
         stroke="black"
         id="path9" />
    </g>
    <g
       stroke-linecap="round"
       font-size="13px"
       transform="translate(454,278)"
       fill="white"
       text-rendering="optimizeLegibility"
       image-rendering="optimizeQuality"
       font-family="'Lucida Grande'"
       stroke-linejoin="round"
       stroke="white"
       stroke-width="2"
       id="g11">
      <path
         d="M1 1 L109 1 L109 61 L1 61 L1 1 Z"
         stroke="none"
         clip-path="url(#clipPath2)"
         id="path10" />
      <path
         fill="none"
         d="M1 1 L109 1 L109 61 L1 61 L1 1 Z"
         clip-path="url(#clipPath2)"
         stroke="black"
         id="path11" />
    </g>
    <g
       text-rendering="optimizeLegibility"
       font-size="20px"
       font-family="'Arial'"
       transform="translate(466,296)"
       image-rendering="optimizeQuality"
       id="g12">
      <text
         x="5"
         xml:space="preserve"
         y="20"
         clip-path="url(#clipPath4)"
         stroke="none"
         id="text11">pre:label</text>
    </g>
    <g
       stroke-linecap="round"
       font-size="13px"
       transform="translate(595,297)"
       fill="white"
       text-rendering="optimizeLegibility"
       image-rendering="optimizeQuality"
       font-family="'Lucida Grande'"
       stroke-linejoin="round"
       stroke="white"
       stroke-width="2"
       id="g13">
      <path
         d="M0 2.5 L0 22.5 C0 23.8807 1.1193 25 2.5 25 L22.5 25 C23.8807 25 25 23.8807 25 22.5 L25 2.5 C25 1.1193 23.8807 0 22.5 0 L2.5 0 C1.1193 0 0 1.1193 0 2.5 Z"
         stroke="none"
         clip-path="url(#clipPath5)"
         id="path12" />
    </g>
    <g
       stroke-linecap="round"
       font-size="13px"
       transform="translate(397,297)"
       fill="white"
       text-rendering="optimizeLegibility"
       image-rendering="optimizeQuality"
       font-family="'Lucida Grande'"
       stroke-linejoin="round"
       stroke="white"
       stroke-width="2"
       id="g14">
      <path
         d="M0 2.5 L0 22.5 C0 23.8807 1.1193 25 2.5 25 L22.5 25 C23.8807 25 25 23.8807 25 22.5 L25 2.5 C25 1.1193 23.8807 0 22.5 0 L2.5 0 C1.1193 0 0 1.1193 0 2.5 Z"
         stroke="none"
         clip-path="url(#clipPath5)"
         id="path13" />
    </g>
    <g
       stroke-linecap="butt"
       font-size="13px"
       transform="translate(422,309)"
       text-rendering="optimizeLegibility"
       image-rendering="optimizeQuality"
       font-family="'Lucida Grande'"
       stroke-linejoin="round"
       stroke-width="2"
       id="g15">
      <path
         fill="none"
         d="M32.5 1 L1 1"
         clip-path="url(#clipPath6)"
         id="path14" />
    </g>
    <g
       stroke-linecap="butt"
       font-size="13px"
       transform="matrix(1.0357262,0,0,1,562.91035,309)"
       text-rendering="optimizeLegibility"
       image-rendering="optimizeQuality"
       font-family="'Lucida Grande'"
       stroke-linejoin="round"
       stroke-width="2"
       id="g16">
      <path
         fill="none"
         d="M 1,1 H 30.5"
         clip-path="url(#clipPath7)"
         id="path15" />
    </g>
  </g>
</svg>
