<?xml version="1.0" encoding="UTF-8" standalone="no"?>
<svg
   fill-opacity="1"
   color-rendering="auto"
   color-interpolation="auto"
   text-rendering="auto"
   stroke="#000000"
   stroke-linecap="square"
   width="760"
   stroke-miterlimit="10"
   shape-rendering="auto"
   stroke-opacity="1"
   fill="#000000"
   stroke-dasharray="none"
   font-weight="normal"
   stroke-width="1"
   height="281"
   font-family="Dialog"
   font-style="normal"
   stroke-linejoin="miter"
   font-size="12px"
   stroke-dashoffset="0"
   image-rendering="auto"
   version="1.1"
   id="svg69"
   sodipodi:docname="unit_info_ba.svg"
   inkscape:version="1.3.2 (091e20e, 2023-11-25)"
   xmlns:inkscape="http://www.inkscape.org/namespaces/inkscape"
   xmlns:sodipodi="http://sodipodi.sourceforge.net/DTD/sodipodi-0.dtd"
   xmlns="http://www.w3.org/2000/svg"
   xmlns:svg="http://www.w3.org/2000/svg">
  <sodipodi:namedview
     id="namedview69"
     pagecolor="#ffffff"
     bordercolor="#000000"
     borderopacity="0.25"
     inkscape:showpageshadow="2"
     inkscape:pageopacity="0.0"
     inkscape:pagecheckerboard="0"
     inkscape:deskcolor="#d1d1d1"
     inkscape:zoom="1.0641592"
     inkscape:cx="411.12269"
     inkscape:cy="251.37216"
     inkscape:window-width="1512"
     inkscape:window-height="826"
     inkscape:window-x="0"
     inkscape:window-y="38"
     inkscape:window-maximized="1"
     inkscape:current-layer="g69" />
  <!--Generated by the Batik Graphics2D SVG Generator-->
  <defs
     id="genericDefs" />
  <g
     id="g69"
     transform="translate(-44,-94)">
    <defs
       id="defs1">
      <clipPath
         clipPathUnits="userSpaceOnUse"
         id="clipPath1">
        <path
           d="M 0,0 H 1260 V 690 H 0 Z"
           id="path1" />
      </clipPath>
      <clipPath
         clipPathUnits="userSpaceOnUse"
         id="clipPath2">
        <path
           d="M 0,0 V 64 H 112 V 0 Z"
           id="path2" />
      </clipPath>
      <clipPath
         clipPathUnits="userSpaceOnUse"
         id="clipPath3">
        <path
           d="M 0,0 V 27 H 72 V 0 Z"
           id="path3" />
      </clipPath>
      <clipPath
         clipPathUnits="userSpaceOnUse"
         id="clipPath4">
        <path
           d="M 0,0 V 26 H 71 V 0 Z"
           id="path4" />
      </clipPath>
      <clipPath
         clipPathUnits="userSpaceOnUse"
         id="clipPath5">
        <path
           d="M 0,0 V 62 H 62 V 0 Z"
           id="path5" />
      </clipPath>
      <clipPath
         clipPathUnits="userSpaceOnUse"
         id="clipPath6">
        <path
           d="M 0,0 V 25 H 21 V 0 Z"
           id="path6" />
      </clipPath>
      <clipPath
         clipPathUnits="userSpaceOnUse"
         id="clipPath7">
        <path
           d="M 0,0 V 24 H 20 V 0 Z"
           id="path7" />
      </clipPath>
      <clipPath
         clipPathUnits="userSpaceOnUse"
         id="clipPath8">
        <path
           d="M 0,0 V 25 H 22 V 0 Z"
           id="path8" />
      </clipPath>
      <clipPath
         clipPathUnits="userSpaceOnUse"
         id="clipPath9">
        <path
           d="M 0,0 V 24 H 21 V 0 Z"
           id="path9" />
      </clipPath>
      <clipPath
         clipPathUnits="userSpaceOnUse"
         id="clipPath10">
        <path
           d="M 0,0 V 25 H 23 V 0 Z"
           id="path10" />
      </clipPath>
      <clipPath
         clipPathUnits="userSpaceOnUse"
         id="clipPath11">
        <path
           d="M 0,0 V 24 H 22 V 0 Z"
           id="path11" />
      </clipPath>
      <clipPath
         clipPathUnits="userSpaceOnUse"
         id="clipPath12">
        <path
           d="M 0,0 V 32 H 32 V 0 Z"
           id="path12" />
      </clipPath>
      <clipPath
         clipPathUnits="userSpaceOnUse"
         id="clipPath13">
        <path
           d="M 0,0 V 4 H 56 V 0 Z"
           id="path13" />
      </clipPath>
      <clipPath
         clipPathUnits="userSpaceOnUse"
         id="clipPath14">
        <path
           d="M 0,0 V 4 H 33 V 0 Z"
           id="path14" />
      </clipPath>
      <clipPath
         clipPathUnits="userSpaceOnUse"
         id="clipPath15">
        <path
           d="M 0,0 V 3 H 32 V 0 Z"
           id="path15" />
      </clipPath>
      <clipPath
         clipPathUnits="userSpaceOnUse"
         id="clipPath16">
        <path
           d="M 0,0 V 4 H 35 V 0 Z"
           id="path16" />
      </clipPath>
      <clipPath
         clipPathUnits="userSpaceOnUse"
         id="clipPath17">
        <path
           d="M 0,0 V 4 H 54 V 0 Z"
           id="path17" />
      </clipPath>
    </defs>
    <g
       stroke-linecap="round"
       font-size="13px"
       transform="translate(374,313)"
       fill="#ffffff"
       text-rendering="optimizeLegibility"
       image-rendering="optimizeQuality"
       font-family="'Lucida Grande'"
       stroke-linejoin="round"
       stroke="#ffffff"
       stroke-width="2"
       id="g19">
      <path
         d="M 1,6 6,1 h 98 l 5,5 v 50 l -5,5 H 6 L 1,56 Z"
         fill-rule="evenodd"
         clip-path="url(#clipPath2)"
         stroke="none"
         id="path18" />
      <path
         fill="none"
         d="M 1,6 6,1 h 98 l 5,5 v 50 l -5,5 H 6 L 1,56 Z"
         clip-path="url(#clipPath2)"
         fill-rule="evenodd"
         stroke="#000000"
         id="path19" />
    </g>
    <g
       text-rendering="optimizeLegibility"
       font-size="20px"
       font-family="Arial"
       transform="translate(394,331)"
       image-rendering="optimizeQuality"
       id="g20">
      <text
         x="5"
         xml:space="preserve"
         y="20"
         clip-path="url(#clipPath4)"
         stroke="none"
         id="text19">LABEL</text>
    </g>
    <g
       stroke-linecap="round"
       font-size="13px"
       transform="translate(114,153)"
       fill="#ffffff"
       text-rendering="optimizeLegibility"
       image-rendering="optimizeQuality"
       font-family="'Lucida Grande'"
       stroke-linejoin="round"
       stroke="#ffffff"
       stroke-width="2"
       id="g21">
      <path
         d="m 1,8.5 v 45 C 1,57.6421 4.3579,61 8.5,61 h 93 c 4.1421,0 7.5,-3.3579 7.5,-7.5 V 8.5 C 109,4.3579 105.6421,1 101.5,1 H 8.5 C 4.3579,1 1,4.3579 1,8.5 Z"
         stroke="none"
         clip-path="url(#clipPath2)"
         id="path20" />
      <path
         fill="none"
         d="m 1,8.5 v 45 C 1,57.6421 4.3579,61 8.5,61 h 93 c 4.1421,0 7.5,-3.3579 7.5,-7.5 V 8.5 C 109,4.3579 105.6421,1 101.5,1 H 8.5 C 4.3579,1 1,4.3579 1,8.5 Z"
         clip-path="url(#clipPath2)"
         stroke="#000000"
         id="path21" />
    </g>
    <g
       text-rendering="optimizeLegibility"
       font-size="20px"
       font-family="Arial"
       transform="translate(134,171)"
       image-rendering="optimizeQuality"
       id="g22">
      <text
         x="5"
         xml:space="preserve"
         y="20"
         clip-path="url(#clipPath4)"
         stroke="none"
         id="text21">LABEL</text>
    </g>
    <g
       stroke-linecap="round"
       font-size="13px"
       transform="translate(114,153)"
       fill="#ffffff"
       text-rendering="optimizeLegibility"
       image-rendering="optimizeQuality"
       font-family="'Lucida Grande'"
       stroke-linejoin="round"
       stroke="#ffffff"
       stroke-width="2"
       id="g23">
      <path
         d="m 1,8.5 v 45 C 1,57.6421 4.3579,61 8.5,61 h 93 c 4.1421,0 7.5,-3.3579 7.5,-7.5 V 8.5 C 109,4.3579 105.6421,1 101.5,1 H 8.5 C 4.3579,1 1,4.3579 1,8.5 Z"
         stroke="none"
         clip-path="url(#clipPath2)"
         id="path22" />
      <path
         fill="none"
         d="m 1,8.5 v 45 C 1,57.6421 4.3579,61 8.5,61 h 93 c 4.1421,0 7.5,-3.3579 7.5,-7.5 V 8.5 C 109,4.3579 105.6421,1 101.5,1 H 8.5 C 4.3579,1 1,4.3579 1,8.5 Z"
         clip-path="url(#clipPath2)"
         stroke="#000000"
         id="path23" />
    </g>
    <g
       text-rendering="optimizeLegibility"
       font-size="20px"
       font-family="Arial"
       transform="translate(134,171)"
       image-rendering="optimizeQuality"
       id="g24">
      <text
         x="5"
         xml:space="preserve"
         y="20"
         clip-path="url(#clipPath4)"
         stroke="none"
         id="text23">LABEL</text>
    </g>
    <g
       stroke-linecap="round"
       font-size="13px"
       transform="translate(634,153)"
       fill="#ffffff"
       text-rendering="optimizeLegibility"
       image-rendering="optimizeQuality"
       font-family="'Lucida Grande'"
       stroke-linejoin="round"
       stroke="#ffffff"
       stroke-width="2"
       id="g25">
      <path
         d="m 1,31 v 0 c 0,16.5685 13.4315,30 30,30 h 48 c 16.5685,0 30,-13.4315 30,-30 v 0 C 109,14.4315 95.5685,1 79,1 H 31 C 14.4315,1 1,14.4315 1,31 Z"
         stroke="none"
         clip-path="url(#clipPath2)"
         id="path24" />
      <path
         fill="none"
         d="m 1,31 v 0 c 0,16.5685 13.4315,30 30,30 h 48 c 16.5685,0 30,-13.4315 30,-30 v 0 C 109,14.4315 95.5685,1 79,1 H 31 C 14.4315,1 1,14.4315 1,31 Z"
         clip-path="url(#clipPath2)"
         stroke="#000000"
         id="path25" />
    </g>
    <g
       text-rendering="optimizeLegibility"
       font-size="20px"
       font-family="Arial"
       transform="translate(654,171)"
       image-rendering="optimizeQuality"
       id="g26">
      <text
         x="5"
         xml:space="preserve"
         y="20"
         clip-path="url(#clipPath4)"
         stroke="none"
         id="text25">LABEL</text>
    </g>
    <g
       stroke-linecap="round"
       font-size="13px"
       transform="translate(374,153)"
       fill="#ffffff"
       text-rendering="optimizeLegibility"
       image-rendering="optimizeQuality"
       font-family="'Lucida Grande'"
       stroke-linejoin="round"
       stroke="#ffffff"
       stroke-width="2"
       id="g27">
      <path
         d="m 1,1 h 108 v 45 2 l -1,3 -1,2 -1,2 -1,2 -2,1 -2,1 -2,1 -3,1 H 94 16 14 L 11,60 9,59 7,58 5,57 4,55 3,53 2,51 1,48 v -2 z"
         fill-rule="evenodd"
         clip-path="url(#clipPath2)"
         stroke="none"
         id="path26" />
      <path
         fill="none"
         d="m 1,1 h 108 v 45 2 l -0.75918,3 -1,2 L 106,55 104.63877,56.638774 103,58 l -2,1.240817 -2,1 L 96,61 H 94 16 14 l -3,-0.759183 -2,-1 L 7,58 5.3612256,56.638774 4,55 2.759183,52.879591 1.759183,51 1,48 v -2 z"
         clip-path="url(#clipPath2)"
         fill-rule="evenodd"
         stroke="#000000"
         id="path27"
         sodipodi:nodetypes="ccccccccccccccccccccccccc" />
    </g>
    <g
       text-rendering="optimizeLegibility"
       font-size="20px"
       font-family="Arial"
       transform="translate(394,171)"
       image-rendering="optimizeQuality"
       id="g28">
      <text
         x="5"
         xml:space="preserve"
         y="20"
         clip-path="url(#clipPath4)"
         stroke="none"
         id="text27">LABEL</text>
    </g>
    <g
       stroke-linecap="round"
       font-size="13px"
       transform="translate(114,313)"
       fill="#ffffff"
       text-rendering="optimizeLegibility"
       image-rendering="optimizeQuality"
       font-family="'Lucida Grande'"
       stroke-linejoin="round"
       stroke="#ffffff"
       stroke-width="2"
       id="g29">
      <path
         d="M 109,31 C 109,47.5685 84.8234,61 55,61 25.1766,61 1,47.5685 1,31 1,14.4315 25.1766,1 55,1 c 29.8234,0 54,13.4315 54,30 z"
         stroke="none"
         clip-path="url(#clipPath2)"
         id="path28" />
      <path
         fill="none"
         d="M 109,31 C 109,47.5685 84.8234,61 55,61 25.1766,61 1,47.5685 1,31 1,14.4315 25.1766,1 55,1 c 29.8234,0 54,13.4315 54,30 z"
         clip-path="url(#clipPath2)"
         stroke="#000000"
         id="path29" />
    </g>
    <g
       text-rendering="optimizeLegibility"
       font-size="20px"
       font-family="Arial"
       transform="translate(134,331)"
       image-rendering="optimizeQuality"
       id="g30">
      <text
         x="5"
         xml:space="preserve"
         y="20"
         clip-path="url(#clipPath4)"
         stroke="none"
         id="text29">LABEL</text>
    </g>
    <g
       stroke-linecap="round"
       font-size="13px"
       transform="translate(634,313)"
       fill="#ffffff"
       text-rendering="optimizeLegibility"
       image-rendering="optimizeQuality"
       font-family="'Lucida Grande'"
       stroke-linejoin="round"
       stroke="#ffffff"
       stroke-width="2"
       id="g31">
      <path
         d="M 1,1 H 109 L 87,31 109,61 H 1 L 23,31 Z"
         fill-rule="evenodd"
         clip-path="url(#clipPath2)"
         stroke="none"
         id="path30" />
      <path
         fill="none"
         d="M 1,1 H 109 L 87,31 109,61 H 1 L 23,31 Z"
         clip-path="url(#clipPath2)"
         fill-rule="evenodd"
         stroke="#000000"
         id="path31" />
    </g>
    <g
       text-rendering="optimizeLegibility"
       font-size="20px"
       font-family="Arial"
       transform="translate(654,331)"
       image-rendering="optimizeQuality"
       id="g32">
      <text
         x="5"
         xml:space="preserve"
         y="20"
         clip-path="url(#clipPath4)"
         stroke="none"
         id="text31">LABEL</text>
    </g>
    <g
       font-size="13px"
       transform="translate(564,254)"
       fill="#ffffff"
       text-rendering="optimizeLegibility"
       image-rendering="optimizeQuality"
       font-family="'Lucida Grande'"
       stroke="#ffffff"
       id="g33">
      <path
         d="m 0,30 v 0 c 0,16.5685 13.4315,30 30,30 v 0 C 46.5685,60 60,46.5685 60,30 v 0 C 60,13.4315 46.5685,0 30,0 V 0 C 13.4315,0 0,13.4315 0,30 Z"
         stroke="none"
         clip-path="url(#clipPath5)"
         id="path32" />
    </g>
    <g
       text-rendering="optimizeLegibility"
       font-size="20px"
       font-weight="bold"
       font-family="Arial"
       transform="translate(584,272)"
       image-rendering="optimizeQuality"
       id="g34">
      <text
         x="4"
         xml:space="preserve"
         y="19"
         clip-path="url(#clipPath7)"
         stroke="none"
         id="text33">F</text>
    </g>
    <g
       font-size="13px"
       transform="translate(304,254)"
       fill="#ffffff"
       text-rendering="optimizeLegibility"
       image-rendering="optimizeQuality"
       font-family="'Lucida Grande'"
       stroke="#ffffff"
       id="g35">
      <path
         d="m 0,30 v 0 c 0,16.5685 13.4315,30 30,30 v 0 C 46.5685,60 60,46.5685 60,30 v 0 C 60,13.4315 46.5685,0 30,0 V 0 C 13.4315,0 0,13.4315 0,30 Z"
         stroke="none"
         clip-path="url(#clipPath5)"
         id="path34" />
    </g>
    <g
       text-rendering="optimizeLegibility"
       font-size="20px"
       font-weight="bold"
       font-family="Arial"
       transform="translate(324,272)"
       image-rendering="optimizeQuality"
       id="g36">
      <text
         x="4"
         xml:space="preserve"
         y="19"
         clip-path="url(#clipPath9)"
         stroke="none"
         id="text35">E</text>
    </g>
    <g
       font-size="13px"
       transform="translate(304,94)"
       fill="#ffffff"
       text-rendering="optimizeLegibility"
       image-rendering="optimizeQuality"
       font-family="'Lucida Grande'"
       stroke="#ffffff"
       id="g37">
      <path
         d="m 0,30 v 0 c 0,16.5685 13.4315,30 30,30 v 0 C 46.5685,60 60,46.5685 60,30 v 0 C 60,13.4315 46.5685,0 30,0 V 0 C 13.4315,0 0,13.4315 0,30 Z"
         stroke="none"
         clip-path="url(#clipPath5)"
         id="path36" />
    </g>
    <g
       text-rendering="optimizeLegibility"
       font-size="20px"
       font-weight="bold"
       font-family="Arial"
       transform="translate(323,112)"
       image-rendering="optimizeQuality"
       id="g38">
      <text
         x="4"
         xml:space="preserve"
         y="19"
         clip-path="url(#clipPath11)"
         stroke="none"
         id="text37">B</text>
    </g>
    <g
       font-size="13px"
       transform="translate(44,254)"
       fill="#ffffff"
       text-rendering="optimizeLegibility"
       image-rendering="optimizeQuality"
       font-family="'Lucida Grande'"
       stroke="#ffffff"
       id="g39">
      <path
         d="m 0,30 v 0 c 0,16.5685 13.4315,30 30,30 v 0 C 46.5685,60 60,46.5685 60,30 v 0 C 60,13.4315 46.5685,0 30,0 V 0 C 13.4315,0 0,13.4315 0,30 Z"
         stroke="none"
         clip-path="url(#clipPath5)"
         id="path38" />
    </g>
    <g
       text-rendering="optimizeLegibility"
       font-size="20px"
       font-weight="bold"
       font-family="Arial"
       transform="translate(63,272)"
       image-rendering="optimizeQuality"
       id="g40">
      <text
         x="4"
         xml:space="preserve"
         y="19"
         clip-path="url(#clipPath11)"
         stroke="none"
         id="text39">D</text>
    </g>
    <g
       font-size="13px"
       transform="translate(564,94)"
       fill="#ffffff"
       text-rendering="optimizeLegibility"
       image-rendering="optimizeQuality"
       font-family="'Lucida Grande'"
       stroke="#ffffff"
       id="g41">
      <path
         d="m 0,30 v 0 c 0,16.5685 13.4315,30 30,30 v 0 C 46.5685,60 60,46.5685 60,30 v 0 C 60,13.4315 46.5685,0 30,0 V 0 C 13.4315,0 0,13.4315 0,30 Z"
         stroke="none"
         clip-path="url(#clipPath5)"
         id="path40" />
    </g>
    <g
       text-rendering="optimizeLegibility"
       font-size="20px"
       font-weight="bold"
       font-family="Arial"
       transform="translate(583,112)"
       image-rendering="optimizeQuality"
       id="g42">
      <text
         x="4"
         xml:space="preserve"
         y="19"
         clip-path="url(#clipPath11)"
         stroke="none"
         id="text41">C</text>
    </g>
    <g
       font-size="13px"
       transform="translate(44,94)"
       fill="#ffffff"
       text-rendering="optimizeLegibility"
       image-rendering="optimizeQuality"
       font-family="'Lucida Grande'"
       stroke="#ffffff"
       id="g43">
      <path
         d="m 0,30 v 0 c 0,16.5685 13.4315,30 30,30 v 0 C 46.5685,60 60,46.5685 60,30 v 0 C 60,13.4315 46.5685,0 30,0 V 0 C 13.4315,0 0,13.4315 0,30 Z"
         stroke="none"
         clip-path="url(#clipPath5)"
         id="path42" />
    </g>
    <g
       text-rendering="optimizeLegibility"
       font-size="20px"
       font-weight="bold"
       font-family="Arial"
       transform="translate(63,112)"
       image-rendering="optimizeQuality"
       id="g44">
      <text
         x="4"
         xml:space="preserve"
         y="19"
         clip-path="url(#clipPath11)"
         stroke="none"
         id="text43">A</text>
    </g>
    <g
       font-size="13px"
       transform="translate(314,329)"
       fill="#ffffff"
       text-rendering="optimizeLegibility"
       image-rendering="optimizeQuality"
       font-family="'Lucida Grande'"
       stroke="#ffffff"
       id="g45">
      <path
         d="m 0,7.5 v 15 C 0,26.6421 3.3579,30 7.5,30 h 15 C 26.6421,30 30,26.6421 30,22.5 V 7.5 C 30,3.3579 26.6421,0 22.5,0 H 7.5 C 3.3579,0 0,3.3579 0,7.5 Z"
         stroke="none"
         clip-path="url(#clipPath12)"
         id="path44" />
    </g>
    <g
       font-size="13px"
       transform="translate(774,169)"
       fill="#ffffff"
       text-rendering="optimizeLegibility"
       image-rendering="optimizeQuality"
       font-family="'Lucida Grande'"
       stroke="#ffffff"
       id="g46">
      <path
         d="m 0,7.5 v 15 C 0,26.6421 3.3579,30 7.5,30 h 15 C 26.6421,30 30,26.6421 30,22.5 V 7.5 C 30,3.3579 26.6421,0 22.5,0 H 7.5 C 3.3579,0 0,3.3579 0,7.5 Z"
         stroke="none"
         clip-path="url(#clipPath12)"
         id="path45" />
    </g>
    <g
       font-size="13px"
       transform="translate(314,169)"
       fill="#ffffff"
       text-rendering="optimizeLegibility"
       image-rendering="optimizeQuality"
       font-family="'Lucida Grande'"
       stroke="#ffffff"
       id="g47">
      <path
         d="m 0,7.5 v 15 C 0,26.6421 3.3579,30 7.5,30 h 15 C 26.6421,30 30,26.6421 30,22.5 V 7.5 C 30,3.3579 26.6421,0 22.5,0 H 7.5 C 3.3579,0 0,3.3579 0,7.5 Z"
         stroke="none"
         clip-path="url(#clipPath12)"
         id="path46" />
    </g>
    <g
       font-size="13px"
       transform="translate(574,329)"
       fill="#ffffff"
       text-rendering="optimizeLegibility"
       image-rendering="optimizeQuality"
       font-family="'Lucida Grande'"
       stroke="#ffffff"
       id="g48">
      <path
         d="m 0,7.5 v 15 C 0,26.6421 3.3579,30 7.5,30 h 15 C 26.6421,30 30,26.6421 30,22.5 V 7.5 C 30,3.3579 26.6421,0 22.5,0 H 7.5 C 3.3579,0 0,3.3579 0,7.5 Z"
         stroke="none"
         clip-path="url(#clipPath12)"
         id="path47" />
    </g>
    <g
       font-size="13px"
       transform="translate(54,329)"
       fill="#ffffff"
       text-rendering="optimizeLegibility"
       image-rendering="optimizeQuality"
       font-family="'Lucida Grande'"
       stroke="#ffffff"
       id="g49">
      <path
         d="m 0,7.5 v 15 C 0,26.6421 3.3579,30 7.5,30 h 15 C 26.6421,30 30,26.6421 30,22.5 V 7.5 C 30,3.3579 26.6421,0 22.5,0 H 7.5 C 3.3579,0 0,3.3579 0,7.5 Z"
         stroke="none"
         clip-path="url(#clipPath12)"
         id="path48" />
    </g>
    <g
       font-size="13px"
       transform="translate(774,329)"
       fill="#ffffff"
       text-rendering="optimizeLegibility"
       image-rendering="optimizeQuality"
       font-family="'Lucida Grande'"
       stroke="#ffffff"
       id="g50">
      <path
         d="m 0,7.5 v 15 C 0,26.6421 3.3579,30 7.5,30 h 15 C 26.6421,30 30,26.6421 30,22.5 V 7.5 C 30,3.3579 26.6421,0 22.5,0 H 7.5 C 3.3579,0 0,3.3579 0,7.5 Z"
         stroke="none"
         clip-path="url(#clipPath12)"
         id="path49" />
    </g>
    <g
       font-size="13px"
       transform="translate(254,329)"
       fill="#ffffff"
       text-rendering="optimizeLegibility"
       image-rendering="optimizeQuality"
       font-family="'Lucida Grande'"
       stroke="#ffffff"
       id="g51">
      <path
         d="m 0,7.5 v 15 C 0,26.6421 3.3579,30 7.5,30 h 15 C 26.6421,30 30,26.6421 30,22.5 V 7.5 C 30,3.3579 26.6421,0 22.5,0 H 7.5 C 3.3579,0 0,3.3579 0,7.5 Z"
         stroke="none"
         clip-path="url(#clipPath12)"
         id="path50" />
    </g>
    <g
       font-size="13px"
       transform="translate(54,169)"
       fill="#ffffff"
       text-rendering="optimizeLegibility"
       image-rendering="optimizeQuality"
       font-family="'Lucida Grande'"
       stroke="#ffffff"
       id="g52">
      <path
         d="m 0,7.5 v 15 C 0,26.6421 3.3579,30 7.5,30 h 15 C 26.6421,30 30,26.6421 30,22.5 V 7.5 C 30,3.3579 26.6421,0 22.5,0 H 7.5 C 3.3579,0 0,3.3579 0,7.5 Z"
         stroke="none"
         clip-path="url(#clipPath12)"
         id="path51" />
    </g>
    <g
       font-size="13px"
       transform="translate(514,169)"
       fill="#ffffff"
       text-rendering="optimizeLegibility"
       image-rendering="optimizeQuality"
       font-family="'Lucida Grande'"
       stroke="#ffffff"
       id="g53">
      <path
         d="m 0,7.5 v 15 C 0,26.6421 3.3579,30 7.5,30 h 15 C 26.6421,30 30,26.6421 30,22.5 V 7.5 C 30,3.3579 26.6421,0 22.5,0 H 7.5 C 3.3579,0 0,3.3579 0,7.5 Z"
         stroke="none"
         clip-path="url(#clipPath12)"
         id="path52" />
    </g>
    <g
       font-size="13px"
       transform="translate(254,169)"
       fill="#ffffff"
       text-rendering="optimizeLegibility"
       image-rendering="optimizeQuality"
       font-family="'Lucida Grande'"
       stroke="#ffffff"
       id="g54">
      <path
         d="m 0,7.5 v 15 C 0,26.6421 3.3579,30 7.5,30 h 15 C 26.6421,30 30,26.6421 30,22.5 V 7.5 C 30,3.3579 26.6421,0 22.5,0 H 7.5 C 3.3579,0 0,3.3579 0,7.5 Z"
         stroke="none"
         clip-path="url(#clipPath12)"
         id="path53" />
    </g>
    <g
       font-size="13px"
       transform="translate(574,169)"
       fill="#ffffff"
       text-rendering="optimizeLegibility"
       image-rendering="optimizeQuality"
       font-family="'Lucida Grande'"
       stroke="#ffffff"
       id="g55">
      <path
         d="m 0,7.5 v 15 C 0,26.6421 3.3579,30 7.5,30 h 15 C 26.6421,30 30,26.6421 30,22.5 V 7.5 C 30,3.3579 26.6421,0 22.5,0 H 7.5 C 3.3579,0 0,3.3579 0,7.5 Z"
         stroke="none"
         clip-path="url(#clipPath12)"
         id="path54" />
    </g>
    <g
       font-size="13px"
       transform="translate(514,329)"
       fill="#ffffff"
       text-rendering="optimizeLegibility"
       image-rendering="optimizeQuality"
       font-family="'Lucida Grande'"
       stroke="#ffffff"
       id="g56">
      <path
         d="m 0,7.5 v 15 C 0,26.6421 3.3579,30 7.5,30 h 15 C 26.6421,30 30,26.6421 30,22.5 V 7.5 C 30,3.3579 26.6421,0 22.5,0 H 7.5 C 3.3579,0 0,3.3579 0,7.5 Z"
         stroke="none"
         clip-path="url(#clipPath12)"
         id="path55" />
    </g>
    <g
       stroke-linecap="butt"
       font-size="13px"
       transform="translate(720,343.10612)"
       text-rendering="optimizeLegibility"
       image-rendering="optimizeQuality"
       font-family="'Lucida Grande'"
       stroke-linejoin="round"
       stroke-width="2"
       id="g57">
      <path
         fill="none"
         d="M 53.7667,1 H 1"
         clip-path="url(#clipPath13)"
         id="path56" />
    </g>
    <g
       stroke-linecap="butt"
       font-size="13px"
       transform="translate(84,344)"
       text-rendering="optimizeLegibility"
       image-rendering="optimizeQuality"
       font-family="'Lucida Grande'"
       stroke-linejoin="round"
       stroke-width="2"
       id="g58">
      <path
         fill="none"
         d="M 1,1 H 30"
         clip-path="url(#clipPath14)"
         id="path57" />
    </g>
    <g
       stroke-linecap="butt"
       font-size="13px"
       transform="matrix(1.0373682,0,0,1,222.87896,344)"
       text-rendering="optimizeLegibility"
       image-rendering="optimizeQuality"
       font-family="'Lucida Grande'"
       stroke-linejoin="round"
       stroke-width="2"
       id="g59">
      <path
         fill="none"
         d="M 30,1 H 1"
         clip-path="url(#clipPath14)"
         id="path58" />
    </g>
    <g
       stroke-linecap="butt"
       font-size="13px"
       transform="matrix(1.0476691,0,0,1,222.56993,184)"
       text-rendering="optimizeLegibility"
       image-rendering="optimizeQuality"
       font-family="'Lucida Grande'"
       stroke-linejoin="round"
       stroke-width="2"
       id="g60">
      <path
         fill="none"
         d="M 30,1 H 1"
         clip-path="url(#clipPath14)"
         id="path59" />
    </g>
    <g
       stroke-linecap="butt"
       font-size="13px"
       transform="translate(344,344)"
       text-rendering="optimizeLegibility"
       image-rendering="optimizeQuality"
       font-family="'Lucida Grande'"
       stroke-linejoin="round"
       stroke-width="2"
       id="g61">
      <path
         fill="none"
         d="M 1,1 H 30.5"
         clip-path="url(#clipPath14)"
         id="path60" />
    </g>
    <g
       stroke-linecap="butt"
       font-size="13px"
       transform="translate(84,184)"
       text-rendering="optimizeLegibility"
       image-rendering="optimizeQuality"
       font-family="'Lucida Grande'"
       stroke-linejoin="round"
       stroke-width="2"
       id="g62">
      <path
         fill="none"
         d="M 1,1 H 30"
         clip-path="url(#clipPath15)"
         id="path61" />
    </g>
    <g
       stroke-linecap="butt"
       font-size="13px"
       transform="translate(604,184)"
       text-rendering="optimizeLegibility"
       image-rendering="optimizeQuality"
       font-family="'Lucida Grande'"
       stroke-linejoin="round"
       stroke-width="2"
       id="g63">
      <path
         fill="none"
         d="M 1,1 H 30"
         clip-path="url(#clipPath14)"
         id="path62" />
    </g>
    <g
       stroke-linecap="butt"
       font-size="13px"
       transform="translate(344,184)"
       text-rendering="optimizeLegibility"
       image-rendering="optimizeQuality"
       font-family="'Lucida Grande'"
       stroke-linejoin="round"
       stroke-width="2"
       id="g64">
      <path
         fill="none"
         d="M 1,1 H 30.5"
         clip-path="url(#clipPath14)"
         id="path63" />
    </g>
    <g
       stroke-linecap="butt"
       font-size="13px"
       transform="translate(744,184)"
       text-rendering="optimizeLegibility"
       image-rendering="optimizeQuality"
       font-family="'Lucida Grande'"
       stroke-linejoin="round"
       stroke-width="2"
       id="g65">
      <path
         fill="none"
         d="M 30,1 H 1"
         clip-path="url(#clipPath14)"
         id="path64" />
    </g>
    <g
       stroke-linecap="butt"
       font-size="13px"
       transform="translate(482,344)"
       text-rendering="optimizeLegibility"
       image-rendering="optimizeQuality"
       font-family="'Lucida Grande'"
       stroke-linejoin="round"
       stroke-width="2"
       id="g66">
      <path
         fill="none"
         d="M 32.5,1 H 1"
         clip-path="url(#clipPath16)"
         id="path65" />
    </g>
    <g
       stroke-linecap="butt"
       font-size="13px"
       transform="translate(482,184)"
       text-rendering="optimizeLegibility"
       image-rendering="optimizeQuality"
       font-family="'Lucida Grande'"
       stroke-linejoin="round"
       stroke-width="2"
       id="g67">
      <path
         fill="none"
         d="M 32.5,1 H 1"
         clip-path="url(#clipPath16)"
         id="path66" />
    </g>
    <g
       stroke-linecap="butt"
       font-size="13px"
       transform="translate(604,343.10612)"
       text-rendering="optimizeLegibility"
       image-rendering="optimizeQuality"
       font-family="'Lucida Grande'"
       stroke-linejoin="round"
       stroke-width="2"
       id="g68">
      <path
         fill="none"
         d="M 1,1 H 51.7667"
         clip-path="url(#clipPath17)"
         id="path67" />
    </g>
  </g>
</svg>
