<?xml version="1.0" encoding="UTF-8" standalone="no"?>
<!-- Created with Inkscape (http://www.inkscape.org/) -->
<svg
   xmlns:dc="http://purl.org/dc/elements/1.1/"
   xmlns:cc="http://creativecommons.org/ns#"
   xmlns:rdf="http://www.w3.org/1999/02/22-rdf-syntax-ns#"
   xmlns:svg="http://www.w3.org/2000/svg"
   xmlns="http://www.w3.org/2000/svg"
   xmlns:sodipodi="http://sodipodi.sourceforge.net/DTD/sodipodi-0.dtd"
   xmlns:inkscape="http://www.inkscape.org/namespaces/inkscape"
   version="1.0"
   width="1088.09"
   height="923.35999"
   id="svg2449"
   sodipodi:version="0.32"
   inkscape:version="0.46"
   sodipodi:docname="PPAR.svg"
   inkscape:output_extension="org.inkscape.output.svg.inkscape"
   inkscape:export-filename="/Users/mi/Documents/SBGN/subversion/sbgn-af/examples/PPAR.png"
   inkscape:export-xdpi="429.33994"
   inkscape:export-ydpi="429.33994">
  <metadata
     id="metadata2507">
    <rdf:RDF>
      <cc:Work
         rdf:about="">
        <dc:format>image/svg+xml</dc:format>
        <dc:type
           rdf:resource="http://purl.org/dc/dcmitype/StillImage" />
      </cc:Work>
    </rdf:RDF>
  </metadata>
  <sodipodi:namedview
     inkscape:window-height="875"
     inkscape:window-width="1228"
     inkscape:pageshadow="2"
     inkscape:pageopacity="0.0"
     guidetolerance="10.0"
     gridtolerance="10.0"
     objecttolerance="10.0"
     borderopacity="1.0"
     bordercolor="#666666"
     pagecolor="#ffffff"
     id="base"
     showgrid="false"
     inkscape:zoom="0.66923571"
     inkscape:cx="426.77534"
     inkscape:cy="412.94889"
     inkscape:window-x="1827"
     inkscape:window-y="22"
     inkscape:current-layer="svg2449" />
  <defs
     id="defs2451">
    <marker
       inkscape:stockid="StopL"
       orient="auto"
       refY="0"
       refX="0"
       id="StopL"
       style="overflow:visible">
      <path
         id="path5596"
         d="M 0,5.65 L 0,-5.65"
         style="fill:none;fill-opacity:0.75;fill-rule:evenodd;stroke:#000000;stroke-width:1pt"
         transform="scale(0.8,0.8)" />
    </marker>
    <inkscape:perspective
       sodipodi:type="inkscape:persp3d"
       inkscape:vp_x="0 : 526.18109 : 1"
       inkscape:vp_y="0 : 1000 : 0"
       inkscape:vp_z="973.09003 : 526.18109 : 1"
       inkscape:persp3d-origin="486.54501 : 350.78739 : 1"
       id="perspective2509" />
    <marker
       refX="0"
       refY="0"
       orient="auto"
       id="EmptyTriangleOutL"
       style="overflow:visible">
      <path
         d="M 5.77,0 L -2.88,5 L -2.88,-5 L 5.77,0 z"
         transform="matrix(0.8,0,0,0.8,-4.8,0)"
         id="path3565"
         style="fill:#ffffff;fill-rule:evenodd;stroke:#000000;stroke-width:1pt;marker-start:none" />
    </marker>
  </defs>
  <path
     style="fill:none;fill-opacity:0.75;fill-rule:evenodd;stroke:#000000;stroke-width:5;stroke-linecap:butt;stroke-linejoin:miter;stroke-miterlimit:4;stroke-dasharray:none;stroke-opacity:1"
     id="path3155"
     d="M 111.15259,130.48309 C 111.14039,130.34091 81.234193,83.66991 81.234193,83.66991 L 279.61129,84.00792 L 246.37823,130.00303 L 279.23946,175.56741 L 80.890243,175.56741 L 111.15259,130.48309 z" />
  <text
     style="font-size:32px;font-style:normal;font-weight:normal;fill:#000000;fill-opacity:1;stroke:none;stroke-width:1px;stroke-linecap:butt;stroke-linejoin:miter;stroke-opacity:1;font-family:Bitstream Vera Sans"
     xml:space="preserve"
     id="text2460"
     y="106.48792"
     x="174.31833"><tspan
       style="font-size:24px;text-align:center;text-anchor:middle"
       id="tspan2462"
       y="106.48792"
       x="174.31833">Nutrient/</tspan><tspan
       style="font-size:24px;text-align:center;text-anchor:middle"
       id="tspan2464"
       y="136.4879"
       x="174.31833">metabolic</tspan><tspan
       style="font-size:24px;text-align:center;text-anchor:middle"
       id="tspan2466"
       y="166.4879"
       x="174.31833">signals</tspan></text>
  <rect
     style="fill:#ffffff;stroke:#000000;stroke-width:5;stroke-linecap:butt;stroke-linejoin:miter;stroke-miterlimit:4;stroke-dasharray:none;stroke-opacity:1"
     id="rect2468"
     transform="scale(1,-1)"
     y="-389.33063"
     x="81.729492"
     height="91.923882"
     width="184.85791" />
  <text
     style="font-size:32px;font-style:normal;font-variant:normal;font-weight:normal;font-stretch:normal;fill:#000000;fill-opacity:1;stroke:none;stroke-width:1px;stroke-linecap:butt;stroke-linejoin:miter;stroke-opacity:1;font-family:Symbol;-inkscape-font-specification:Symbol"
     xml:space="preserve"
     id="text3240"
     y="352.76208"
     x="127.08482"><tspan
       id="tspan3242"
       y="352.76208"
       x="127.08482"><tspan
   style="font-style:normal;font-variant:normal;font-weight:normal;font-stretch:normal;font-family:Arial;-inkscape-font-specification:Arial"
   id="tspan3248">PPAR</tspan>d</tspan><tspan
       id="tspan3389"
       y="397.34366"
       x="127.08482" /></text>
  <text
     style="font-size:32px;font-style:normal;font-weight:normal;fill:#000000;fill-opacity:1;stroke:none;stroke-width:1px;stroke-linecap:butt;stroke-linejoin:miter;stroke-opacity:1;font-family:Bitstream Vera Sans"
     xml:space="preserve"
     id="text3244"
     y="342.86362"
     x="231.23207"><tspan
       id="tspan3246"
       y="342.86362"
       x="231.23207" /></text>
  <rect
     style="fill:#ffffff;stroke:#000000;stroke-width:5;stroke-linecap:butt;stroke-linejoin:miter;stroke-miterlimit:4;stroke-dasharray:none;stroke-opacity:1"
     id="rect3276"
     transform="scale(1,-1)"
     y="-831.82202"
     x="81.238167"
     height="91.923882"
     width="184.85791" />
  <text
     style="font-size:32px;font-style:normal;font-weight:normal;fill:#000000;fill-opacity:1;stroke:none;stroke-width:1px;stroke-linecap:butt;stroke-linejoin:miter;stroke-opacity:1;font-family:Bitstream Vera Sans"
     xml:space="preserve"
     id="text3278"
     y="797.5813"
     x="120.3757"><tspan
       id="tspan3280"
       y="797.5813"
       x="120.3757">Twist-1</tspan><tspan
       id="tspan3288"
       y="837.5813"
       x="120.3757" /></text>
  <rect
     style="fill:#ffffff;stroke:#000000;stroke-width:4.59148407;stroke-linecap:butt;stroke-linejoin:miter;stroke-miterlimit:4;stroke-dasharray:none;stroke-opacity:1"
     id="rect3282"
     y="717.69867"
     x="93.454643"
     ry="9.2743406"
     rx="8.4942474"
     height="39.747162"
     width="65.527046" />
  <text
     style="font-size:32px;font-style:normal;font-weight:normal;fill:#000000;fill-opacity:1;stroke:none;stroke-width:1px;stroke-linecap:butt;stroke-linejoin:miter;stroke-opacity:1;font-family:Bitstream Vera Sans"
     xml:space="preserve"
     id="text3284"
     y="742.82312"
     x="100.03407"><tspan
       style="font-size:16px"
       id="tspan3286"
       y="742.82312"
       x="100.03407" /></text>
  <rect
     style="fill:#ffffff;stroke:#000000;stroke-width:5;stroke-linecap:butt;stroke-linejoin:miter;stroke-miterlimit:4;stroke-dasharray:none;stroke-opacity:1"
     id="rect3381"
     transform="scale(1,-1)"
     y="-827.64972"
     x="520.30499"
     height="91.923882"
     width="184.85791" />
  <text
     style="font-size:32px;font-style:normal;font-weight:normal;fill:#000000;fill-opacity:1;stroke:none;stroke-width:1px;stroke-linecap:butt;stroke-linejoin:miter;stroke-opacity:1;font-family:Bitstream Vera Sans"
     xml:space="preserve"
     id="text3383"
     y="787.56598"
     x="555.0943"><tspan
       id="tspan3385"
       y="787.56598"
       x="555.0943">PGC-1<tspan
   style="font-style:normal;font-variant:normal;font-weight:normal;font-stretch:normal;font-family:Symbol;-inkscape-font-specification:Symbol"
   id="tspan3387">a</tspan></tspan></text>
  <rect
     style="fill:#ffffff;stroke:#000000;stroke-width:5;stroke-linecap:butt;stroke-linejoin:miter;stroke-miterlimit:4;stroke-dasharray:none;stroke-opacity:1"
     id="rect3391"
     transform="scale(1,-1)"
     y="-394.50024"
     x="515.74054"
     height="91.923882"
     width="184.85791" />
  <path
     style="fill:#ffffff;stroke:#000000;stroke-width:5;stroke-linecap:butt;stroke-linejoin:miter;stroke-miterlimit:4;stroke-dasharray:none;stroke-opacity:1"
     id="path3393"
     d="M 599.11872,301.56624 C 599.1248,309.09971 585.5552,315.20825 568.81415,315.20825 C 552.07309,315.20825 538.50349,309.09971 538.50957,301.56624 C 538.50349,294.03277 552.07309,287.92423 568.81415,287.92423 C 585.5552,287.92423 599.1248,294.03277 599.11872,301.56624 L 599.11872,301.56624 z" />
  <text
     style="font-size:32px;font-style:normal;font-weight:normal;fill:#000000;fill-opacity:1;stroke:none;stroke-width:1px;stroke-linecap:butt;stroke-linejoin:miter;stroke-opacity:1;font-family:Bitstream Vera Sans"
     xml:space="preserve"
     id="text3395"
     y="354.47742"
     x="530.65167"><tspan
       id="tspan3397"
       y="354.47742"
       x="530.65167">TF activity</tspan></text>
  <path
     style="fill:none;fill-rule:evenodd;stroke:#000000;stroke-width:4.24614573;stroke-linecap:butt;stroke-linejoin:miter;marker-end:url(#EmptyTriangleOutL);stroke-miterlimit:4;stroke-dasharray:none;stroke-opacity:1"
     id="path3399"
     d="M 186.0424,177.83181 C 185.3948,293.74306 185.3948,293.74306 185.3948,293.74306 L 185.3948,293.74306 L 185.3948,293.74306 L 185.3948,293.74306 L 185.3948,293.74306" />
  <path
     style="fill:none;fill-rule:evenodd;stroke:#000000;stroke-width:4;stroke-linecap:butt;stroke-linejoin:miter;marker-end:url(#EmptyTriangleOutL);stroke-miterlimit:4;stroke-dasharray:none;stroke-opacity:1"
     id="path4179"
     d="M 181.1936,392.51151 C 180.56689,501.02853 180.56689,501.02853 180.56689,501.02853 L 180.56689,501.02853 L 180.56689,501.02853 L 180.56689,501.02853 L 180.56689,501.02853" />
  <path
     style="fill:none;fill-rule:evenodd;stroke:#000000;stroke-width:4.71724272;stroke-linecap:butt;stroke-linejoin:miter;marker-end:url(#StopL);stroke-miterlimit:4;stroke-dasharray:none;stroke-opacity:1"
     id="path4183"
     d="M 269.05125,780.79159 C 507.34144,780.52347 507.34144,780.52347 507.34144,780.52347 L 507.34144,780.52347 L 507.34144,780.52347 L 507.34144,780.52347 L 507.34144,780.52347" />
  <rect
     style="fill:#ffffff;stroke:#000000;stroke-width:5;stroke-linecap:butt;stroke-linejoin:miter;stroke-miterlimit:4;stroke-dasharray:none;stroke-opacity:1"
     id="rect14516"
     transform="scale(1,-1)"
     y="-602.66016"
     x="79.742577"
     height="91.923882"
     width="184.85791" />
  <path
     style="fill:none;fill-rule:evenodd;stroke:#000000;stroke-width:5.02562857;stroke-linecap:butt;stroke-linejoin:miter;marker-end:url(#EmptyTriangleOutL);stroke-miterlimit:4;stroke-dasharray:none;stroke-opacity:1"
     id="path4185"
     d="M 590.76273,735.75443 C 266.59464,333.42657 266.59464,333.42657 266.59464,333.42657 L 266.59464,333.42657 L 266.59464,333.42657 L 266.59464,333.42657 L 266.59464,333.42657" />
  <path
     style="fill:none;fill-rule:evenodd;stroke:#000000;stroke-width:5.04161167;stroke-linecap:butt;stroke-linejoin:miter;marker-end:url(#EmptyTriangleOutL);stroke-miterlimit:4;stroke-dasharray:none;stroke-opacity:1"
     id="path4187"
     d="M 607.25348,738.24683 C 606.96518,398.35153 606.96518,398.35153 606.96518,398.35153 L 606.96518,398.35153 L 606.96518,398.35153 L 606.96518,398.35153 L 606.96518,398.35153" />
  <path
     style="fill:#ffffff;stroke:#000000;stroke-width:5;stroke-linecap:butt;stroke-linejoin:miter;stroke-miterlimit:4;stroke-dasharray:none;stroke-opacity:1"
     id="path4189"
     d="M 443.23702,191.23912 C 443.24675,206.84631 430.25139,219.06616 414.21744,218.52694 C 398.18348,217.98772 385.18812,204.8938 385.19785,189.28727 C 385.18812,173.68009 398.18348,161.46024 414.21744,161.99946 C 430.25139,162.53868 443.24675,175.6326 443.23702,191.23912 L 443.23702,191.23912 z" />
  <text
     style="font-size:32px;font-style:normal;font-weight:normal;fill:#000000;fill-opacity:1;stroke:none;stroke-width:1px;stroke-linecap:butt;stroke-linejoin:miter;stroke-opacity:1;font-family:Bitstream Vera Sans"
     xml:space="preserve"
     id="text4191"
     y="183.32701"
     x="396.42294"
     transform="matrix(1,3.3629919e-2,0,1,0,0)"><tspan
       style="font-size:24px"
       id="tspan4193"
       y="183.32701"
       x="396.42294">OR</tspan></text>
  <path
     style="fill:none;fill-rule:evenodd;stroke:#000000;stroke-width:4.98475266;stroke-linecap:butt;stroke-linejoin:miter;stroke-miterlimit:4;stroke-dasharray:none;stroke-opacity:1"
     id="path4195"
     d="M 263.70032,327.0064 C 386.53086,326.14263 386.53086,326.14263 386.53086,326.14263 L 386.53086,326.14263 L 386.53086,326.14263 L 386.53086,326.14263 L 386.53086,326.14263 L 386.53086,326.14263" />
  <path
     style="fill:none;fill-rule:evenodd;stroke:#000000;stroke-width:5;stroke-linecap:butt;stroke-linejoin:miter;stroke-miterlimit:4;stroke-dasharray:none;stroke-opacity:1"
     id="path4199"
     d="M 413.81769,300.10234 C 413.86249,221.39612 413.86249,221.39612 413.86249,221.39612 L 413.86249,221.39612 L 413.86249,221.39612" />
  <path
     style="fill:none;fill-rule:evenodd;stroke:#000000;stroke-width:5;stroke-linecap:butt;stroke-linejoin:miter;stroke-miterlimit:4;stroke-dasharray:none;stroke-opacity:1"
     id="path4205"
     d="M 163.63693,457.94033 C 199.00783,459.15888 199.00783,459.15888 199.00783,459.15888 L 199.00783,459.15888 L 199.00783,459.15888 L 199.00783,459.15888 L 199.00783,459.15888 L 199.00783,459.15888 L 199.00783,459.15888 L 199.00783,459.15888 L 199.00783,459.15888"
     sodipodi:nodetypes="cccccccccc" />
  <rect
     style="fill:#ffffff;stroke:#000000;stroke-width:4.27879906;stroke-linecap:butt;stroke-linejoin:miter;stroke-miterlimit:4;stroke-dasharray:none;stroke-opacity:1"
     id="rect4209"
     y="135.87869"
     x="853.42169"
     height="109.87924"
     width="214.38945" />
  <path
     style="fill:none;fill-rule:evenodd;stroke:#000000;stroke-width:5;stroke-linecap:butt;stroke-linejoin:miter;marker-end:url(#EmptyTriangleOutL);stroke-miterlimit:4;stroke-dasharray:none;stroke-opacity:1"
     id="path4211"
     d="M 445.62632,192.02925 C 844.42416,190.10824 844.42416,190.10824 844.42416,190.10824 L 844.42416,190.10824 L 844.42416,190.10824 L 844.42416,190.10824" />
  <path
     style="fill:none;fill-rule:evenodd;stroke:#000000;stroke-width:5;stroke-linecap:butt;stroke-linejoin:miter;stroke-miterlimit:4;stroke-dasharray:none;stroke-opacity:1"
     id="path4728"
     d="M 798.22701,176.54187 C 799.23716,205.87027 799.23716,205.87027 799.23716,205.87027 L 799.23716,205.87027 L 799.23716,205.87027 L 799.23716,205.87027 L 799.23716,205.87027 L 799.23716,205.87027 L 799.23716,205.87027" />
  <text
     style="font-size:32px;font-style:normal;font-weight:normal;fill:#000000;fill-opacity:1;stroke:none;stroke-width:1px;stroke-linecap:butt;stroke-linejoin:miter;stroke-opacity:1;font-family:Bitstream Vera Sans"
     xml:space="preserve"
     id="text4730"
     y="170.12752"
     x="958.61292"><tspan
       style="font-size:20px;text-align:center;text-anchor:middle"
       id="tspan4732"
       y="170.12752"
       x="961.79651">Genes for </tspan><tspan
       style="font-size:20px;text-align:center;text-anchor:middle"
       id="tspan4734"
       y="195.12752"
       x="958.61292">Brown fat energy</tspan><tspan
       style="font-size:20px;text-align:center;text-anchor:middle"
       id="tspan4738"
       y="220.12752"
       x="958.61292">dissipation</tspan><tspan
       id="tspan4736"
       y="245.12753"
       x="958.61292" /></text>
  <text
     style="font-size:32px;font-style:normal;font-weight:normal;fill:#000000;fill-opacity:1;stroke:none;stroke-width:1px;stroke-linecap:butt;stroke-linejoin:miter;stroke-opacity:1;font-family:Bitstream Vera Sans"
     xml:space="preserve"
     id="text14518"
     y="581.08362"
     x="115.29385"><tspan
       id="tspan14520"
       y="581.08362"
       x="115.29385">Twist-1</tspan><tspan
       id="tspan14522"
       y="621.08362"
       x="115.29385" /></text>
  <g
     id="g3432"
     transform="matrix(1.3533807,0,0,1.1207394,-429.0396,-28.887448)">
    <rect
       ry="6.3874917"
       y="468.05151"
       x="385.68933"
       height="32.907093"
       width="54.249008"
       id="rect3426"
       style="opacity:1;fill:#ffffff;stroke:#000000;stroke-width:3;stroke-linecap:butt;stroke-linejoin:miter;stroke-miterlimit:4;stroke-dasharray:none;stroke-opacity:1" />
    <rect
       ry="0"
       y="467.18375"
       x="385.70447"
       height="21.545759"
       width="54.41777"
       id="rect3428"
       style="opacity:1;fill:#ffffff;stroke:#000000;stroke-width:3;stroke-linecap:butt;stroke-linejoin:miter;stroke-miterlimit:4;stroke-dasharray:none;stroke-opacity:1" />
    <rect
       y="484.54727"
       x="387.34525"
       height="7.672677"
       width="51.109238"
       id="rect3430"
       style="opacity:1;fill:#ffffff;stroke:#000000;stroke-width:5.03639269;stroke-linecap:butt;stroke-linejoin:miter;stroke-miterlimit:4;stroke-dasharray:none;stroke-opacity:0" />
  </g>
  <path
     style="fill:none;fill-rule:evenodd;stroke:#000000;stroke-width:4.38631582;stroke-linecap:butt;stroke-linejoin:miter;marker-end:url(#EmptyTriangleOutL);stroke-miterlimit:4;stroke-dasharray:none;stroke-opacity:1"
     id="path15088"
     d="M 179.48579,603.60148 C 178.86644,735.64004 178.86644,735.64004 178.86644,735.64004 L 178.86644,735.64004 L 178.86644,735.64004 L 178.86644,735.64004 L 178.86644,735.64004" />
  <path
     style="fill:none;fill-rule:evenodd;stroke:#000000;stroke-width:5;stroke-linecap:butt;stroke-linejoin:miter;stroke-miterlimit:4;stroke-dasharray:none;stroke-opacity:1"
     id="path15090"
     d="M 161.9377,686.1825 C 197.3024,685.58365 197.3024,685.58365 197.3024,685.58365 L 197.3024,685.58365 L 197.3024,685.58365 L 197.3024,685.58365 L 197.3024,685.58365 L 197.3024,685.58365 L 197.3024,685.58365 L 197.3024,685.58365 L 197.3024,685.58365" />
  <path
     style="fill:none;fill-rule:evenodd;stroke:#000000;stroke-width:4.60049105;stroke-linecap:butt;stroke-linejoin:miter;stroke-miterlimit:4;stroke-dasharray:none;stroke-opacity:1"
     id="path12389"
     d="M 441.46639,326.49796 C 513.87698,325.24993 513.87698,325.24993 513.87698,325.24993 L 513.87698,325.24993 L 513.87698,325.24993 L 513.87698,325.24993 L 513.87698,325.24993 L 513.87698,325.24993" />
  <path
     style="fill:none;fill-rule:evenodd;stroke:#000000;stroke-width:5;stroke-linecap:butt;stroke-linejoin:miter;stroke-miterlimit:4;stroke-dasharray:none;stroke-opacity:1"
     d="M 385.5144,326.16065 L 385.5144,326.16065 L 385.5144,326.16065 L 385.5144,326.16065 L 385.5144,326.16065 L 385.5144,326.16065 L 385.5144,326.16065 C 385.5144,326.16065 385.5144,326.16065 413.90499,297.77005 C 442.29559,327.65489 442.29559,327.65489 442.29559,327.65489 L 442.29559,327.65489 L 442.29559,327.65489"
     id="path12391" />
</svg>
