<?xml version="1.0" encoding="UTF-8" standalone="no"?>
<!-- Created with Inkscape (http://www.inkscape.org/) -->

<svg
   xmlns:dc="http://purl.org/dc/elements/1.1/"
   xmlns:cc="http://creativecommons.org/ns#"
   xmlns:rdf="http://www.w3.org/1999/02/22-rdf-syntax-ns#"
   xmlns:svg="http://www.w3.org/2000/svg"
   xmlns="http://www.w3.org/2000/svg"
   version="1.0"
   width="421.09"
   height="360.35999"
   id="svg2">
  <defs
     id="defs4" />
  <metadata
     id="metadata7">
    <rdf:RDF>
      <cc:Work
         rdf:about="">
        <dc:format>image/svg+xml</dc:format>
        <dc:type
           rdf:resource="http://purl.org/dc/dcmitype/StillImage" />
        <dc:title></dc:title>
      </cc:Work>
    </rdf:RDF>
  </metadata>
  <g
     id="layer1">
    <path
       d="m 25.86422,194.60451 c 0,-97.96165 -4.15595,-172.69528 65.45619,-173.70519 69.61213,-1.00991 37.40353,49.48577 115.32757,49.48577 77.92403,0 59.05043,-51.40674 130.91237,-50.49568 79.77134,1.01134 68.47917,84.89506 57.60659,178.75547 -9.55556,82.49089 -55.61511,151.49352 -185.4885,147.45387 C 79.80504,342.05909 23.78624,273.37779 25.86422,194.60451 z"
       id="path3136"
       style="fill:#c8c8c8;fill-opacity:1;fill-rule:evenodd;stroke:#000000;stroke-width:5.07026052;stroke-linecap:butt;stroke-linejoin:miter;stroke-miterlimit:4;stroke-opacity:1;stroke-dasharray:none" />
    <text
       x="160.71069"
       y="191.6564"
       id="text3138"
       xml:space="preserve"
       style="font-size:12px;font-style:normal;font-weight:normal;fill:#000000;fill-opacity:1;stroke:none;font-family:Bitstream Vera Sans"><tspan
         x="160.71069"
         y="191.6564"
         id="tspan3140"
         style="font-size:24px">nucleus</tspan></text>
    <text
       x="178.00131"
       y="315.43619"
       id="text3142"
       xml:space="preserve"
       style="font-size:12px;font-style:normal;font-weight:normal;fill:#000000;fill-opacity:1;stroke:none;font-family:Bitstream Vera Sans"><tspan
         x="178.00131"
         y="315.43619"
         id="tspan3144"
         style="font-size:24px">cytosol</tspan></text>
    <path
       d="m 454.56866,369.49905 a 91.923882,83.842659 0 1 1 -183.84777,0 91.923882,83.842659 0 1 1 183.84777,0 z"
       transform="matrix(1.123183,0,0,1.111556,-200.64877,-228.33855)"
       id="path3146"
       style="opacity:0.98800001;fill:#ffffff;fill-opacity:1;fill-rule:nonzero;stroke:#000000;stroke-width:4.47602749;stroke-linecap:round;stroke-miterlimit:4;stroke-opacity:1;stroke-dasharray:none;stroke-dashoffset:0" />
    <path
       d="m 454.56866,369.49905 a 91.923882,83.842659 0 1 1 -183.84777,0 91.923882,83.842659 0 1 1 183.84777,0 z"
       transform="translate(-156,-186)"
       id="path2163"
       style="opacity:0.98800001;fill:#c8c8c8;fill-opacity:1;fill-rule:nonzero;stroke:#000000;stroke-width:5;stroke-linecap:round;stroke-miterlimit:4;stroke-opacity:1;stroke-dasharray:none;stroke-dashoffset:0" />
  </g>
</svg>
