<?xml version="1.0" encoding="UTF-8" standalone="no"?>
<!-- Created with Inkscape (http://www.inkscape.org/) -->

<svg
   xmlns:dc="http://purl.org/dc/elements/1.1/"
   xmlns:cc="http://creativecommons.org/ns#"
   xmlns:rdf="http://www.w3.org/1999/02/22-rdf-syntax-ns#"
   xmlns:svg="http://www.w3.org/2000/svg"
   xmlns="http://www.w3.org/2000/svg"
   version="1.0"
   width="676.09003"
   height="792.35999"
   id="svg2">
  <defs
     id="defs4">
    <marker
       refX="0"
       refY="0"
       orient="auto"
       id="StopL"
       style="overflow:visible">
      <path
         d="M 0,5.65 0,-5.65"
         transform="scale(0.8,0.8)"
         id="path3354"
         style="fill:none;stroke:#000000;stroke-width:1pt" />
    </marker>
    <marker
       refX="0"
       refY="0"
       orient="auto"
       id="DistanceStart"
       style="overflow:visible">
      <g
         id="g2300">
        <path
           d="M 0,0 2,0"
           id="path2306"
           style="fill:none;stroke:#ffffff;stroke-width:1.14999998;stroke-linecap:square" />
        <path
           d="M 0,0 13,4 9,0 13,-4 0,0 z"
           id="path2302"
           style="fill:#000000;fill-rule:evenodd;stroke:none" />
        <path
           d="M 0,-4 0,40"
           id="path2304"
           style="fill:none;stroke:#000000;stroke-width:1;stroke-linecap:square" />
      </g>
    </marker>
    <marker
       refX="0"
       refY="0"
       orient="auto"
       id="DistanceEnd"
       style="overflow:visible">
      <g
         id="g3240">
        <path
           d="M 0,0 -2,0"
           id="path2316"
           style="fill:none;stroke:#ffffff;stroke-width:1.14999998;stroke-linecap:square" />
        <path
           d="M 0,0 -13,4 -9,0 -13,-4 0,0 z"
           id="path2312"
           style="fill:#000000;fill-rule:evenodd;stroke:none" />
        <path
           d="M 0,-4 0,40"
           id="path2314"
           style="fill:none;stroke:#000000;stroke-width:1;stroke-linecap:square" />
      </g>
    </marker>
    <marker
       refX="0"
       refY="0"
       orient="auto"
       id="EmptyTriangleOutL"
       style="overflow:visible">
      <path
         d="m 5.77,0 -8.65,5 0,-10 8.65,5 z"
         transform="matrix(0.8,0,0,0.8,-4.8,0)"
         id="path3345"
         style="fill:#ffffff;fill-rule:evenodd;stroke:#000000;stroke-width:1pt;marker-start:none" />
    </marker>
  </defs>
  <metadata
     id="metadata7">
    <rdf:RDF>
      <cc:Work
         rdf:about="">
        <dc:format>image/svg+xml</dc:format>
        <dc:type
           rdf:resource="http://purl.org/dc/dcmitype/StillImage" />
        <dc:title></dc:title>
      </cc:Work>
    </rdf:RDF>
  </metadata>
  <g
     id="layer1">
    <rect
       width="190.47234"
       height="100.47233"
       x="402.76385"
       y="-141.31262"
       transform="scale(1,-1)"
       id="rect2383"
       style="fill:#ffffff;stroke:#000000;stroke-width:5;stroke-linecap:butt;stroke-linejoin:miter;stroke-miterlimit:4;stroke-opacity:1;stroke-dasharray:none" />
    <text
       x="415.36118"
       y="105.02858"
       transform="scale(1.0276659,0.9730789)"
       id="text2385"
       xml:space="preserve"
       style="font-size:29.57546997px;font-style:normal;font-weight:normal;fill:#000000;fill-opacity:1;stroke:none;font-family:Bitstream Vera Sans"><tspan
         x="415.36118"
         y="105.02858"
         id="tspan2389">TGF beta</tspan></text>
    <path
       d="m 295.71429,535.21933 -24.97252,-42.46062 24.28571,-42.85714 49.25823,-0.39653 24.97252,42.46062 -24.28571,42.85714 z"
       transform="matrix(3.0224446,0,0,1.7411809,-477.75369,-499.07234)"
       id="path2391"
       style="fill:#ffffff;stroke:#000000;stroke-width:2.17956018;stroke-linecap:butt;stroke-linejoin:miter;stroke-miterlimit:4;stroke-opacity:1;stroke-dasharray:none" />
    <text
       x="489.71429"
       y="318.93362"
       id="text2393"
       xml:space="preserve"
       style="font-size:32px;font-style:normal;font-weight:normal;text-align:center;text-anchor:middle;fill:#000000;fill-opacity:1;stroke:none;font-family:Bitstream Vera Sans"><tspan
         x="489.71429"
         y="318.93362"
         id="tspan2395"
         style="font-size:20px;text-align:center;text-anchor:middle">Pro-invasion</tspan><tspan
         x="489.71429"
         y="343.93362"
         id="tspan2397"
         style="font-size:20px;text-align:center;text-anchor:middle">migration</tspan><tspan
         x="489.71429"
         y="368.93362"
         id="tspan2399"
         style="font-size:20px;text-align:center;text-anchor:middle">metastasis</tspan><tspan
         x="489.71429"
         y="393.93362"
         id="tspan2401"
         style="font-size:20px;text-align:center;text-anchor:middle">gene expression</tspan><tspan
         x="489.71429"
         y="418.93362"
         id="tspan2403"
         style="font-size:20px;text-align:center;text-anchor:middle">platform</tspan></text>
    <path
       d="m 505.04876,142.7562 c 0.41421,127.13086 0.22041,136.64054 0.22041,136.64054"
       id="path3179"
       style="fill:none;stroke:#000000;stroke-width:4.07375717;stroke-linecap:butt;stroke-linejoin:miter;stroke-miterlimit:4;stroke-opacity:1;stroke-dasharray:none;marker-end:url(#EmptyTriangleOutL)" />
    <rect
       width="212.27309"
       height="132.27307"
       x="405.29202"
       y="-742.92725"
       transform="scale(1,-1)"
       id="rect3979"
       style="fill:#ffffff;stroke:#000000;stroke-width:5;stroke-linecap:butt;stroke-linejoin:miter;stroke-miterlimit:4;stroke-opacity:1;stroke-dasharray:none" />
    <text
       x="508"
       y="638.93359"
       id="text3981"
       xml:space="preserve"
       style="font-size:32px;font-style:normal;font-weight:normal;fill:#000000;fill-opacity:1;stroke:none;font-family:Bitstream Vera Sans"><tspan
         x="511.82031"
         y="638.93359"
         id="tspan3983"
         style="font-size:24px;text-align:center;text-anchor:middle">Metastatic </tspan><tspan
         x="508"
         y="668.93359"
         id="tspan3985"
         style="font-size:24px;text-align:center;text-anchor:middle">suppressor</tspan><tspan
         x="508"
         y="698.93359"
         id="tspan3987"
         style="font-size:24px;text-align:center;text-anchor:middle">genes</tspan><tspan
         x="508"
         y="728.93359"
         id="tspan3989"
         style="font-size:24px;text-align:center;text-anchor:middle">activity</tspan></text>
    <rect
       width="208.09143"
       height="120.20815"
       x="48.791901"
       y="323.62601"
       id="rect7240"
       style="fill:#ffffff;stroke:#000000;stroke-width:5;stroke-linecap:butt;stroke-linejoin:miter;stroke-miterlimit:4;stroke-opacity:1;stroke-dasharray:none" />
    <text
       x="153.1777"
       y="378.90012"
       id="text7242"
       xml:space="preserve"
       style="font-size:32px;font-style:normal;font-weight:normal;fill:#000000;fill-opacity:1;stroke:none;font-family:Bitstream Vera Sans"><tspan
         x="153.1777"
         y="378.90012"
         id="tspan7244"
         style="font-size:28px;text-align:center;text-anchor:middle">Mutant p53/</tspan><tspan
         x="153.1777"
         y="413.90012"
         id="tspan7248"
         style="font-size:28px;text-align:center;text-anchor:middle">P-Smad</tspan></text>
    <rect
       width="141.05598"
       height="86.507751"
       x="88.573578"
       y="635.88489"
       id="rect7250"
       style="fill:#ffffff;stroke:#000000;stroke-width:5;stroke-linecap:butt;stroke-linejoin:miter;stroke-miterlimit:4;stroke-opacity:1;stroke-dasharray:none" />
    <text
       x="122.73608"
       y="685.19971"
       id="text7252"
       xml:space="preserve"
       style="font-size:32px;font-style:normal;font-weight:normal;fill:#000000;fill-opacity:1;stroke:none;font-family:Bitstream Vera Sans"><tspan
         x="122.73608"
         y="685.19971"
         id="tspan7254">p63</tspan></text>
    <path
       d="m 232.48413,677.75363 c 166.98623,0.84373 166.98623,0.84373 166.98623,0.84373 l 0,0 0,0 0,0 0,0 0,0 0,0"
       id="path7811"
       style="fill:none;stroke:#000000;stroke-width:4;stroke-linecap:butt;stroke-linejoin:miter;stroke-miterlimit:4;stroke-opacity:1;stroke-dasharray:none;marker-end:url(#EmptyTriangleOutL)" />
    <rect
       width="137.38075"
       height="78.791901"
       x="44.168274"
       y="30.037811"
       id="rect8917"
       style="fill:#ffffff;stroke:#000000;stroke-width:5;stroke-linecap:butt;stroke-linejoin:miter;stroke-miterlimit:4;stroke-opacity:1;stroke-dasharray:none" />
    <text
       x="78.411186"
       y="81.290894"
       id="text8919"
       xml:space="preserve"
       style="font-size:32px;font-style:normal;font-weight:normal;fill:#000000;fill-opacity:1;stroke:none;font-family:Bitstream Vera Sans"><tspan
         x="78.411186"
         y="81.290894"
         id="tspan8921">Ras</tspan></text>
    <path
       d="m 215.16249,384.65134 a 21.718279,22.223356 0 1 1 -43.43656,0 21.718279,22.223356 0 1 1 43.43656,0 z"
       transform="matrix(1.1067745,0,0,1.0588933,-50.129528,-175.13814)"
       id="path8923"
       style="fill:#ffffff;stroke:#000000;stroke-width:5;stroke-linecap:butt;stroke-linejoin:miter;stroke-miterlimit:4;stroke-opacity:1;stroke-dasharray:none" />
    <text
       x="141.86807"
       y="239.72241"
       id="text8925"
       xml:space="preserve"
       style="font-size:32px;font-style:normal;font-weight:normal;fill:#000000;fill-opacity:1;stroke:none;font-family:Bitstream Vera Sans"><tspan
         x="141.86807"
         y="239.72241"
         id="tspan8927"
         style="font-size:20px">AND</tspan></text>
    <path
       d="m 115.98405,109.08855 c 48.86957,70.07045 48.86957,70.07045 48.86957,70.07045 l 0,0 0,0 0,0 0,0 c 0.004,28.34604 0.004,28.34604 0.004,28.34604 l 0,0 0,0 0,0 0,0 0,0 0,0 0,0"
       id="path8929"
       style="fill:none;stroke:#000000;stroke-width:4;stroke-linecap:butt;stroke-linejoin:miter;stroke-miterlimit:4;stroke-opacity:1;stroke-dasharray:none" />
    <path
       d="m 164.95955,257.90516 c 1.01259,53.53809 1.01259,53.53809 1.01259,53.53809 l 0,0 0,1.01015"
       id="path8933"
       style="fill:none;stroke:#000000;stroke-width:4;stroke-linecap:butt;stroke-linejoin:miter;stroke-miterlimit:4;stroke-opacity:1;stroke-dasharray:none;marker-end:url(#EmptyTriangleOutL)" />
    <path
       d="m 405.9076,90.92998 c -131.56201,0.53251 -131.56201,0.53251 -131.56201,0.53251 l 0,0 0,0 0,0 -109.53891,87.61761"
       id="path9486"
       style="fill:none;stroke:#000000;stroke-width:4;stroke-linecap:butt;stroke-linejoin:miter;stroke-miterlimit:4;stroke-opacity:1;stroke-dasharray:none" />
    <path
       d="m 352.85714,662.36218 c 0,34.28572 0,34.28572 0,34.28572 l 0,0 0,0 0,0 0,0 0,0 0,0"
       id="path9488"
       style="fill:none;stroke:#000000;stroke-width:4;stroke-linecap:butt;stroke-linejoin:miter;stroke-miterlimit:4;stroke-opacity:1;stroke-dasharray:none" />
    <path
       d="M 505.71429,606.6457 C 504.28571,450.93141 504.28571,450.93141 504.28571,450.93141"
       id="path3947"
       style="fill:none;stroke:#000000;stroke-width:4;stroke-linecap:butt;stroke-linejoin:miter;stroke-miterlimit:4;stroke-opacity:1;stroke-dasharray:none;marker-end:url(#StopL)" />
    <path
       d="m 162.85714,446.6457 c 1.42857,171.42857 1.42857,171.42857 1.42857,171.42857"
       id="path4539"
       style="fill:none;stroke:#000000;stroke-width:4;stroke-linecap:butt;stroke-linejoin:miter;stroke-miterlimit:4;stroke-opacity:1;stroke-dasharray:none;marker-end:url(#StopL)" />
  </g>
</svg>
