<?xml version="1.0" encoding="UTF-8" standalone="no"?>
<!-- Created with Inkscape (http://www.inkscape.org/) -->
<svg
   xmlns:dc="http://purl.org/dc/elements/1.1/"
   xmlns:cc="http://creativecommons.org/ns#"
   xmlns:rdf="http://www.w3.org/1999/02/22-rdf-syntax-ns#"
   xmlns:svg="http://www.w3.org/2000/svg"
   xmlns="http://www.w3.org/2000/svg"
   xmlns:sodipodi="http://sodipodi.sourceforge.net/DTD/sodipodi-0.dtd"
   xmlns:inkscape="http://www.inkscape.org/namespaces/inkscape"
   id="svg2491"
   sodipodi:version="0.32"
   inkscape:version="0.46"
   width="1088.09"
   height="923.35999"
   xml:space="preserve"
   sodipodi:docname="PPAR.svg"
   inkscape:output_extension="org.inkscape.output.svg.inkscape"><metadata
     id="metadata2496"><rdf:RDF><cc:Work
         rdf:about=""><dc:format>image/svg+xml</dc:format><dc:type
           rdf:resource="http://purl.org/dc/dcmitype/StillImage" /></cc:Work></rdf:RDF></metadata><defs
     id="defs2494"><inkscape:perspective
       sodipodi:type="inkscape:persp3d"
       inkscape:vp_x="0 : 526.18109 : 1"
       inkscape:vp_y="0 : 1000 : 0"
       inkscape:vp_z="744.09448 : 526.18109 : 1"
       inkscape:persp3d-origin="372.04724 : 350.78739 : 1"
       id="perspective2498" /></defs><sodipodi:namedview
     inkscape:window-height="713"
     inkscape:window-width="640"
     inkscape:pageshadow="2"
     inkscape:pageopacity="0.0"
     guidetolerance="10.0"
     gridtolerance="10.0"
     objecttolerance="10.0"
     borderopacity="1.0"
     bordercolor="#666666"
     pagecolor="#ffffff"
     id="base"
     showgrid="false"
     inkscape:zoom="0.51742045"
     inkscape:cx="544.04498"
     inkscape:cy="461.67999"
     inkscape:window-x="187"
     inkscape:window-y="20"
     inkscape:current-layer="g2500" /><g
     id="g2500"
     inkscape:groupmode="layer"
     inkscape:label="PPAR"
     transform="matrix(1.25,0,0,-1.25,0,923.35999)"><g
       id="g2502"><g
         id="g2504"
         transform="matrix(1,0,0,-1,0,738.68799)"><path
           d="M 329.402,153.613 C 675.465,152.09 675.465,152.09 675.465,152.09 L 675.465,152.09 L 675.465,152.09 L 675.465,152.09"
           style="fill:none;stroke:#000000;stroke-opacity:1;stroke-width:3.2;stroke-linecap:butt;stroke-linejoin:miter;stroke-miterlimit:4;stroke-dasharray:none"
           id="path2506" /></g><g
         id="g2508"
         transform="matrix(1,4.40794e-3,4.40794e-3,-1,0,738.68799)"><path
           d="M 674.191,155.062 L 652.049,167.862 L 652.049,142.261 L 674.191,155.062 z"
           style="fill:#ffffff;fill-opacity:1;fill-rule:evenodd;stroke:#000000;stroke-opacity:1;stroke-width:3.199969;stroke-linecap:butt;stroke-linejoin:miter;stroke-miterlimit:4;stroke-dasharray:none"
           id="path2510" /></g><g
         id="g2512"
         transform="matrix(1,0,0,-1,0,738.68799)"><path
           d="M 88.922,104.387 C 88.914,104.273 64.988,66.938 64.988,66.938 L 223.688,67.207 L 197.102,104.004 L 223.391,140.453 L 64.711,140.453 L 88.922,104.387 z"
           style="fill:none;stroke:#000000;stroke-opacity:1;stroke-width:4;stroke-linecap:butt;stroke-linejoin:miter;stroke-miterlimit:4;stroke-dasharray:none"
           id="path2514" /></g><path
         d="M 98.684,667.493 L 101.234,667.493 L 107.438,655.786 L 107.438,667.493 L 109.277,667.493 L 109.277,653.497 L 106.727,653.497 L 100.52,665.208 L 100.52,653.497 L 98.684,653.497 L 98.684,667.493"
         style="fill:#000000;fill-opacity:1;fill-rule:nonzero;stroke:none"
         id="path2516" /><path
         d="M 112.793,657.641 L 112.793,663.997 L 114.516,663.997 L 114.516,657.708 C 114.516,656.711 114.711,655.965 115.098,655.465 C 115.484,654.973 116.066,654.727 116.844,654.727 C 117.773,654.727 118.508,655.024 119.047,655.618 C 119.59,656.211 119.859,657.02 119.859,658.043 L 119.859,663.997 L 121.586,663.997 L 121.586,653.497 L 119.859,653.497 L 119.859,655.11 C 119.441,654.473 118.953,653.997 118.398,653.684 C 117.848,653.379 117.207,653.227 116.477,653.227 C 115.27,653.227 114.355,653.602 113.73,654.352 C 113.105,655.102 112.793,656.196 112.793,657.641"
         style="fill:#000000;fill-opacity:1;fill-rule:nonzero;stroke:none"
         id="path2518" /><path
         d="M 126.863,666.977 L 126.863,663.997 L 130.418,663.997 L 130.418,662.657 L 126.863,662.657 L 126.863,656.958 C 126.863,656.102 126.98,655.551 127.211,655.305 C 127.449,655.063 127.926,654.942 128.645,654.942 L 130.418,654.942 L 130.418,653.497 L 128.645,653.497 C 127.312,653.497 126.395,653.743 125.891,654.239 C 125.383,654.739 125.129,655.645 125.129,656.958 L 125.129,662.657 L 123.863,662.657 L 123.863,663.997 L 125.129,663.997 L 125.129,666.977 L 126.863,666.977"
         style="fill:#000000;fill-opacity:1;fill-rule:nonzero;stroke:none"
         id="path2520" /><path
         d="M 138.781,662.383 C 138.586,662.497 138.375,662.579 138.141,662.629 C 137.918,662.684 137.668,662.711 137.391,662.711 C 136.418,662.711 135.668,662.395 135.141,661.758 C 134.625,661.125 134.363,660.215 134.363,659.028 L 134.363,653.497 L 132.629,653.497 L 132.629,663.997 L 134.363,663.997 L 134.363,662.368 C 134.727,663.004 135.199,663.477 135.781,663.782 C 136.359,664.094 137.066,664.25 137.898,664.25 C 138.016,664.25 138.148,664.243 138.293,664.223 C 138.438,664.211 138.594,664.188 138.77,664.157 L 138.781,662.383"
         style="fill:#000000;fill-opacity:1;fill-rule:nonzero;stroke:none"
         id="path2522" /><path
         d="M 140.609,663.997 L 142.332,663.997 L 142.332,653.497 L 140.609,653.497 L 140.609,663.997 M 140.609,668.086 L 142.332,668.086 L 142.332,665.899 L 140.609,665.899 L 140.609,668.086"
         style="fill:#000000;fill-opacity:1;fill-rule:nonzero;stroke:none"
         id="path2524" /><path
         d="M 154.914,659.18 L 154.914,658.336 L 146.984,658.336 C 147.059,657.149 147.414,656.243 148.051,655.618 C 148.695,654.997 149.59,654.688 150.734,654.688 C 151.395,654.688 152.035,654.77 152.656,654.93 C 153.281,655.094 153.898,655.336 154.512,655.665 L 154.512,654.032 C 153.891,653.77 153.258,653.571 152.609,653.43 C 151.957,653.293 151.297,653.227 150.629,653.227 C 148.953,653.227 147.625,653.711 146.645,654.688 C 145.672,655.665 145.184,656.981 145.184,658.645 C 145.184,660.364 145.645,661.727 146.57,662.731 C 147.5,663.743 148.754,664.25 150.328,664.25 C 151.742,664.25 152.859,663.793 153.676,662.883 C 154.5,661.977 154.914,660.743 154.914,659.18 M 153.188,659.684 C 153.176,660.629 152.91,661.383 152.391,661.946 C 151.879,662.508 151.199,662.79 150.348,662.79 C 149.387,662.79 148.613,662.516 148.031,661.973 C 147.457,661.43 147.125,660.665 147.039,659.676 L 153.188,659.684"
         style="fill:#000000;fill-opacity:1;fill-rule:nonzero;stroke:none"
         id="path2526" /><path
         d="M 166.438,659.836 L 166.438,653.497 L 164.711,653.497 L 164.711,659.778 C 164.711,660.774 164.516,661.516 164.129,662.008 C 163.742,662.504 163.16,662.75 162.387,662.75 C 161.453,662.75 160.719,662.454 160.184,661.86 C 159.645,661.266 159.375,660.458 159.375,659.43 L 159.375,653.497 L 157.641,653.497 L 157.641,663.997 L 159.375,663.997 L 159.375,662.368 C 159.789,662.997 160.273,663.469 160.828,663.782 C 161.391,664.094 162.039,664.25 162.77,664.25 C 163.977,664.25 164.891,663.875 165.508,663.125 C 166.125,662.383 166.438,661.286 166.438,659.836"
         style="fill:#000000;fill-opacity:1;fill-rule:nonzero;stroke:none"
         id="path2528" /><path
         d="M 171.602,666.977 L 171.602,663.997 L 175.156,663.997 L 175.156,662.657 L 171.602,662.657 L 171.602,656.958 C 171.602,656.102 171.719,655.551 171.949,655.305 C 172.188,655.063 172.664,654.942 173.383,654.942 L 175.156,654.942 L 175.156,653.497 L 173.383,653.497 C 172.051,653.497 171.133,653.743 170.625,654.239 C 170.121,654.739 169.867,655.645 169.867,656.958 L 169.867,662.657 L 168.602,662.657 L 168.602,663.997 L 169.867,663.997 L 169.867,666.977 L 171.602,666.977"
         style="fill:#000000;fill-opacity:1;fill-rule:nonzero;stroke:none"
         id="path2530" /><path
         d="M 180.5,667.493 L 182.094,667.493 L 177.219,651.715 L 175.625,651.715 L 180.5,667.493"
         style="fill:#000000;fill-opacity:1;fill-rule:nonzero;stroke:none"
         id="path2532" /><path
         d="M 101.984,637.981 C 102.414,638.758 102.93,639.329 103.531,639.696 C 104.129,640.067 104.836,640.25 105.648,640.25 C 106.742,640.25 107.586,639.868 108.18,639.098 C 108.773,638.336 109.07,637.247 109.07,635.836 L 109.07,629.497 L 107.336,629.497 L 107.336,635.778 C 107.336,636.786 107.156,637.532 106.801,638.02 C 106.445,638.508 105.902,638.75 105.172,638.75 C 104.277,638.75 103.57,638.454 103.051,637.86 C 102.531,637.266 102.273,636.458 102.273,635.43 L 102.273,629.497 L 100.539,629.497 L 100.539,635.778 C 100.539,636.79 100.359,637.54 100.004,638.02 C 99.648,638.508 99.098,638.75 98.355,638.75 C 97.473,638.75 96.773,638.45 96.254,637.852 C 95.734,637.258 95.477,636.45 95.477,635.43 L 95.477,629.497 L 93.742,629.497 L 93.742,639.997 L 95.477,639.997 L 95.477,638.368 C 95.871,639.008 96.344,639.485 96.891,639.79 C 97.441,640.098 98.094,640.25 98.852,640.25 C 99.613,640.25 100.262,640.055 100.793,639.668 C 101.328,639.282 101.727,638.719 101.984,637.981"
         style="fill:#000000;fill-opacity:1;fill-rule:nonzero;stroke:none"
         id="path2534" /><path
         d="M 121.465,635.18 L 121.465,634.336 L 113.531,634.336 C 113.609,633.149 113.965,632.243 114.602,631.618 C 115.246,630.997 116.141,630.688 117.281,630.688 C 117.945,630.688 118.586,630.77 119.203,630.93 C 119.828,631.094 120.449,631.336 121.062,631.665 L 121.062,630.032 C 120.441,629.77 119.809,629.571 119.156,629.43 C 118.508,629.293 117.848,629.227 117.18,629.227 C 115.504,629.227 114.176,629.711 113.195,630.688 C 112.219,631.665 111.734,632.981 111.734,634.645 C 111.734,636.364 112.195,637.727 113.121,638.731 C 114.051,639.743 115.305,640.25 116.879,640.25 C 118.293,640.25 119.406,639.793 120.227,638.883 C 121.051,637.977 121.465,636.743 121.465,635.18 M 119.738,635.684 C 119.727,636.629 119.461,637.383 118.941,637.946 C 118.43,638.508 117.75,638.79 116.898,638.79 C 115.938,638.79 115.164,638.516 114.582,637.973 C 114.008,637.43 113.676,636.665 113.59,635.676 L 119.738,635.684"
         style="fill:#000000;fill-opacity:1;fill-rule:nonzero;stroke:none"
         id="path2536" /><path
         d="M 125.965,642.977 L 125.965,639.997 L 129.516,639.997 L 129.516,638.657 L 125.965,638.657 L 125.965,632.958 C 125.965,632.102 126.078,631.551 126.312,631.305 C 126.547,631.063 127.027,630.942 127.746,630.942 L 129.516,630.942 L 129.516,629.497 L 127.746,629.497 C 126.414,629.497 125.496,629.743 124.988,630.239 C 124.484,630.739 124.23,631.645 124.23,632.958 L 124.23,638.657 L 122.965,638.657 L 122.965,639.997 L 124.23,639.997 L 124.23,642.977 L 125.965,642.977"
         style="fill:#000000;fill-opacity:1;fill-rule:nonzero;stroke:none"
         id="path2538" /><path
         d="M 136.566,634.774 C 135.172,634.774 134.207,634.618 133.672,634.297 C 133.133,633.977 132.863,633.434 132.863,632.665 C 132.863,632.055 133.062,631.567 133.465,631.204 C 133.871,630.848 134.422,630.668 135.113,630.668 C 136.07,630.668 136.836,631.008 137.41,631.68 C 137.992,632.364 138.281,633.266 138.281,634.391 L 138.281,634.774 L 136.566,634.774 M 140.008,635.489 L 140.008,629.497 L 138.281,629.497 L 138.281,631.09 C 137.891,630.454 137.398,629.981 136.812,629.676 C 136.223,629.375 135.504,629.227 134.656,629.227 C 133.578,629.227 132.723,629.524 132.086,630.125 C 131.453,630.731 131.141,631.54 131.141,632.555 C 131.141,633.735 131.531,634.625 132.32,635.227 C 133.113,635.825 134.297,636.125 135.863,636.125 L 138.281,636.125 L 138.281,636.293 C 138.281,637.086 138.02,637.7 137.496,638.133 C 136.977,638.571 136.246,638.79 135.301,638.79 C 134.703,638.79 134.117,638.715 133.547,638.571 C 132.98,638.43 132.434,638.211 131.906,637.926 L 131.906,639.52 C 132.539,639.762 133.152,639.946 133.746,640.063 C 134.34,640.188 134.918,640.25 135.48,640.25 C 137,640.25 138.133,639.856 138.883,639.071 C 139.633,638.282 140.008,637.086 140.008,635.489"
         style="fill:#000000;fill-opacity:1;fill-rule:nonzero;stroke:none"
         id="path2540" /><path
         d="M 151.145,634.739 C 151.145,636.008 150.883,637 150.359,637.719 C 149.84,638.446 149.125,638.805 148.211,638.805 C 147.297,638.805 146.578,638.446 146.055,637.719 C 145.535,637 145.277,636.008 145.277,634.739 C 145.277,633.469 145.535,632.473 146.055,631.747 C 146.578,631.028 147.297,630.668 148.211,630.668 C 149.125,630.668 149.84,631.028 150.359,631.747 C 150.883,632.473 151.145,633.469 151.145,634.739 M 145.277,638.403 C 145.641,639.028 146.094,639.493 146.645,639.79 C 147.203,640.098 147.863,640.25 148.633,640.25 C 149.906,640.25 150.941,639.743 151.734,638.731 C 152.535,637.719 152.938,636.387 152.938,634.739 C 152.938,633.086 152.535,631.758 151.734,630.743 C 150.941,629.731 149.906,629.227 148.633,629.227 C 147.863,629.227 147.203,629.375 146.645,629.676 C 146.094,629.981 145.641,630.446 145.277,631.071 L 145.277,629.497 L 143.543,629.497 L 143.543,644.086 L 145.277,644.086 L 145.277,638.403"
         style="fill:#000000;fill-opacity:1;fill-rule:nonzero;stroke:none"
         id="path2542" /><path
         d="M 159.863,638.79 C 158.938,638.79 158.207,638.426 157.672,637.7 C 157.133,636.981 156.863,635.993 156.863,634.739 C 156.863,633.481 157.129,632.493 157.66,631.766 C 158.199,631.047 158.934,630.688 159.863,630.688 C 160.781,630.688 161.512,631.051 162.047,631.774 C 162.586,632.5 162.855,633.489 162.855,634.739 C 162.855,635.981 162.586,636.965 162.047,637.692 C 161.512,638.422 160.781,638.79 159.863,638.79 M 159.863,640.25 C 161.363,640.25 162.543,639.762 163.398,638.79 C 164.254,637.813 164.684,636.461 164.684,634.739 C 164.684,633.02 164.254,631.668 163.398,630.688 C 162.543,629.711 161.363,629.227 159.863,629.227 C 158.359,629.227 157.176,629.711 156.32,630.688 C 155.469,631.668 155.047,633.02 155.047,634.739 C 155.047,636.461 155.469,637.813 156.32,638.79 C 157.176,639.762 158.359,640.25 159.863,640.25"
         style="fill:#000000;fill-opacity:1;fill-rule:nonzero;stroke:none"
         id="path2544" /><path
         d="M 167.531,644.086 L 169.258,644.086 L 169.258,629.496 L 167.531,629.496 L 167.531,644.086 z"
         style="fill:#000000;fill-opacity:1;fill-rule:nonzero;stroke:none"
         id="path2546" /><path
         d="M 172.859,639.997 L 174.582,639.997 L 174.582,629.497 L 172.859,629.497 L 172.859,639.997 M 172.859,644.086 L 174.582,644.086 L 174.582,641.899 L 172.859,641.899 L 172.859,644.086"
         style="fill:#000000;fill-opacity:1;fill-rule:nonzero;stroke:none"
         id="path2548" /><path
         d="M 185.738,639.594 L 185.738,637.981 C 185.25,638.25 184.762,638.45 184.266,638.583 C 183.781,638.719 183.285,638.79 182.785,638.79 C 181.668,638.79 180.797,638.43 180.18,637.719 C 179.562,637.012 179.25,636.02 179.25,634.739 C 179.25,633.458 179.562,632.461 180.18,631.747 C 180.797,631.04 181.668,630.688 182.785,630.688 C 183.285,630.688 183.781,630.754 184.266,630.883 C 184.762,631.024 185.25,631.227 185.738,631.493 L 185.738,629.899 C 185.258,629.676 184.758,629.508 184.238,629.395 C 183.727,629.282 183.18,629.227 182.598,629.227 C 181.016,629.227 179.762,629.723 178.828,630.715 C 177.898,631.711 177.434,633.051 177.434,634.739 C 177.434,636.45 177.902,637.797 178.84,638.778 C 179.781,639.758 181.074,640.25 182.711,640.25 C 183.242,640.25 183.762,640.196 184.266,640.083 C 184.773,639.977 185.266,639.813 185.738,639.594"
         style="fill:#000000;fill-opacity:1;fill-rule:nonzero;stroke:none"
         id="path2550" /><path
         d="M 114.527,615.688 L 114.527,614.055 C 114.039,614.305 113.531,614.493 113.008,614.618 C 112.484,614.743 111.938,614.805 111.375,614.805 C 110.52,614.805 109.875,614.676 109.445,614.415 C 109.02,614.149 108.809,613.758 108.809,613.231 C 108.809,612.833 108.961,612.516 109.266,612.286 C 109.574,612.059 110.188,611.844 111.113,611.637 L 111.703,611.508 C 112.93,611.243 113.797,610.872 114.312,610.391 C 114.828,609.915 115.09,609.25 115.09,608.395 C 115.09,607.418 114.703,606.649 113.926,606.079 C 113.156,605.508 112.098,605.227 110.75,605.227 C 110.188,605.227 109.598,605.282 108.984,605.395 C 108.379,605.5 107.738,605.665 107.062,605.883 L 107.062,607.665 C 107.703,607.333 108.328,607.083 108.949,606.915 C 109.566,606.75 110.18,606.668 110.785,606.668 C 111.598,606.668 112.223,606.805 112.66,607.083 C 113.098,607.364 113.316,607.758 113.316,608.262 C 113.316,608.731 113.156,609.09 112.84,609.34 C 112.527,609.59 111.836,609.833 110.766,610.063 L 110.168,610.204 C 109.098,610.43 108.328,610.774 107.852,611.235 C 107.375,611.704 107.141,612.344 107.141,613.157 C 107.141,614.145 107.488,614.907 108.188,615.446 C 108.891,615.981 109.883,616.25 111.172,616.25 C 111.809,616.25 112.406,616.204 112.969,616.11 C 113.531,616.016 114.051,615.875 114.527,615.688"
         style="fill:#000000;fill-opacity:1;fill-rule:nonzero;stroke:none"
         id="path2552" /><path
         d="M 117.844,615.997 L 119.57,615.997 L 119.57,605.497 L 117.844,605.497 L 117.844,615.997 M 117.844,620.086 L 119.57,620.086 L 119.57,617.899 L 117.844,617.899 L 117.844,620.086"
         style="fill:#000000;fill-opacity:1;fill-rule:nonzero;stroke:none"
         id="path2554" /><path
         d="M 130.078,610.868 C 130.078,612.118 129.82,613.086 129.301,613.774 C 128.789,614.461 128.066,614.805 127.137,614.805 C 126.211,614.805 125.488,614.461 124.969,613.774 C 124.457,613.086 124.203,612.118 124.203,610.868 C 124.203,609.625 124.457,608.661 124.969,607.973 C 125.488,607.286 126.211,606.942 127.137,606.942 C 128.066,606.942 128.789,607.286 129.301,607.973 C 129.82,608.661 130.078,609.625 130.078,610.868 M 131.805,606.801 C 131.805,605.012 131.406,603.684 130.613,602.817 C 129.82,601.942 128.605,601.504 126.969,601.504 C 126.359,601.504 125.789,601.551 125.25,601.645 C 124.715,601.731 124.191,601.868 123.688,602.055 L 123.688,603.735 C 124.191,603.461 124.691,603.258 125.188,603.125 C 125.68,602.993 126.184,602.93 126.695,602.93 C 127.828,602.93 128.672,603.227 129.234,603.821 C 129.797,604.407 130.078,605.297 130.078,606.493 L 130.078,607.344 C 129.723,606.727 129.266,606.262 128.711,605.958 C 128.156,605.649 127.488,605.497 126.715,605.497 C 125.426,605.497 124.391,605.989 123.602,606.969 C 122.812,607.95 122.422,609.25 122.422,610.868 C 122.422,612.493 122.812,613.797 123.602,614.778 C 124.391,615.758 125.426,616.25 126.715,616.25 C 127.488,616.25 128.156,616.098 128.711,615.79 C 129.266,615.485 129.723,615.024 130.078,614.403 L 130.078,615.997 L 131.805,615.997 L 131.805,606.801"
         style="fill:#000000;fill-opacity:1;fill-rule:nonzero;stroke:none"
         id="path2556" /><path
         d="M 144.086,611.836 L 144.086,605.497 L 142.359,605.497 L 142.359,611.778 C 142.359,612.774 142.168,613.516 141.781,614.008 C 141.391,614.504 140.812,614.75 140.035,614.75 C 139.105,614.75 138.371,614.454 137.832,613.86 C 137.297,613.266 137.027,612.458 137.027,611.43 L 137.027,605.497 L 135.293,605.497 L 135.293,615.997 L 137.027,615.997 L 137.027,614.368 C 137.438,614.997 137.922,615.469 138.48,615.782 C 139.043,616.094 139.688,616.25 140.422,616.25 C 141.625,616.25 142.539,615.875 143.156,615.125 C 143.777,614.383 144.086,613.286 144.086,611.836"
         style="fill:#000000;fill-opacity:1;fill-rule:nonzero;stroke:none"
         id="path2558" /><path
         d="M 152.316,610.774 C 150.922,610.774 149.957,610.618 149.422,610.297 C 148.883,609.977 148.613,609.434 148.613,608.665 C 148.613,608.055 148.812,607.567 149.215,607.204 C 149.621,606.848 150.172,606.668 150.863,606.668 C 151.82,606.668 152.586,607.008 153.16,607.68 C 153.742,608.364 154.031,609.266 154.031,610.391 L 154.031,610.774 L 152.316,610.774 M 155.758,611.489 L 155.758,605.497 L 154.031,605.497 L 154.031,607.09 C 153.641,606.454 153.148,605.981 152.562,605.676 C 151.973,605.375 151.254,605.227 150.406,605.227 C 149.328,605.227 148.473,605.524 147.836,606.125 C 147.203,606.731 146.891,607.54 146.891,608.555 C 146.891,609.735 147.281,610.625 148.07,611.227 C 148.863,611.825 150.047,612.125 151.613,612.125 L 154.031,612.125 L 154.031,612.293 C 154.031,613.086 153.77,613.7 153.246,614.133 C 152.727,614.571 151.996,614.79 151.051,614.79 C 150.453,614.79 149.867,614.715 149.297,614.571 C 148.73,614.43 148.184,614.211 147.656,613.926 L 147.656,615.52 C 148.289,615.762 148.902,615.946 149.496,616.063 C 150.09,616.188 150.668,616.25 151.23,616.25 C 152.75,616.25 153.883,615.856 154.633,615.071 C 155.383,614.282 155.758,613.086 155.758,611.489"
         style="fill:#000000;fill-opacity:1;fill-rule:nonzero;stroke:none"
         id="path2560" /><path
         d="M 159.359,620.086 L 161.082,620.086 L 161.082,605.496 L 159.359,605.496 L 159.359,620.086 z"
         style="fill:#000000;fill-opacity:1;fill-rule:nonzero;stroke:none"
         id="path2562" /><path
         d="M 171.375,615.688 L 171.375,614.055 C 170.891,614.305 170.383,614.493 169.859,614.618 C 169.332,614.743 168.789,614.805 168.227,614.805 C 167.371,614.805 166.727,614.676 166.297,614.415 C 165.871,614.149 165.656,613.758 165.656,613.231 C 165.656,612.833 165.812,612.516 166.117,612.286 C 166.422,612.059 167.039,611.844 167.965,611.637 L 168.555,611.508 C 169.781,611.243 170.648,610.872 171.16,610.391 C 171.68,609.915 171.938,609.25 171.938,608.395 C 171.938,607.418 171.551,606.649 170.777,606.079 C 170.008,605.508 168.949,605.227 167.598,605.227 C 167.035,605.227 166.449,605.282 165.836,605.395 C 165.23,605.5 164.59,605.665 163.914,605.883 L 163.914,607.665 C 164.551,607.333 165.18,607.083 165.797,606.915 C 166.418,606.75 167.031,606.668 167.637,606.668 C 168.449,606.668 169.074,606.805 169.512,607.083 C 169.949,607.364 170.168,607.758 170.168,608.262 C 170.168,608.731 170.008,609.09 169.688,609.34 C 169.375,609.59 168.688,609.833 167.617,610.063 L 167.016,610.204 C 165.949,610.43 165.176,610.774 164.703,611.235 C 164.227,611.704 163.988,612.344 163.988,613.157 C 163.988,614.145 164.34,614.907 165.039,615.446 C 165.738,615.981 166.734,616.25 168.02,616.25 C 168.656,616.25 169.258,616.204 169.82,616.11 C 170.383,616.016 170.902,615.875 171.375,615.688"
         style="fill:#000000;fill-opacity:1;fill-rule:nonzero;stroke:none"
         id="path2564" /><g
         id="g2566"
         transform="translate(0,738.68799)"><path
           d="M 65.383,-311.465 L 213.27,-311.465 L 213.27,-237.926 L 65.383,-237.926 L 65.383,-311.465 z"
           style="fill:#ffffff;fill-opacity:1;fill-rule:nonzero;stroke:#000000;stroke-opacity:1;stroke-width:4;stroke-linecap:butt;stroke-linejoin:miter;stroke-miterlimit:4;stroke-dasharray:none"
           id="path2568" /></g><path
         d="M 103.645,456.477 L 103.645,474.805 L 110.555,474.805 C 111.773,474.805 112.703,474.747 113.344,474.629 C 114.242,474.477 114.996,474.192 115.605,473.766 C 116.215,473.348 116.703,472.762 117.066,472.004 C 117.441,471.247 117.629,470.411 117.629,469.504 C 117.629,467.946 117.133,466.625 116.145,465.54 C 115.152,464.465 113.359,463.93 110.77,463.93 L 106.066,463.93 L 106.066,456.477 L 103.645,456.477 M 106.066,466.09 L 110.805,466.09 C 112.371,466.09 113.484,466.383 114.145,466.965 C 114.801,467.547 115.129,468.372 115.129,469.43 C 115.129,470.196 114.934,470.848 114.543,471.391 C 114.16,471.942 113.652,472.305 113.02,472.477 C 112.609,472.586 111.855,472.641 110.754,472.641 L 106.066,472.641 L 106.066,466.09"
         style="fill:#000000;fill-opacity:1;fill-rule:nonzero;stroke:none"
         id="path2570" /><path
         d="M 120.691,456.477 L 120.691,474.805 L 127.605,474.805 C 128.82,474.805 129.75,474.747 130.395,474.629 C 131.293,474.477 132.047,474.192 132.656,473.766 C 133.266,473.348 133.75,472.762 134.117,472.004 C 134.492,471.247 134.68,470.411 134.68,469.504 C 134.68,467.946 134.184,466.625 133.191,465.54 C 132.203,464.465 130.41,463.93 127.816,463.93 L 123.117,463.93 L 123.117,456.477 L 120.691,456.477 M 123.117,466.09 L 127.855,466.09 C 129.422,466.09 130.535,466.383 131.191,466.965 C 131.852,467.547 132.18,468.372 132.18,469.43 C 132.18,470.196 131.984,470.848 131.594,471.391 C 131.211,471.942 130.703,472.305 130.066,472.477 C 129.66,472.586 128.906,472.641 127.805,472.641 L 123.117,472.641 L 123.117,466.09"
         style="fill:#000000;fill-opacity:1;fill-rule:nonzero;stroke:none"
         id="path2572" /><path
         d="M 133.832,456.477 L 140.867,474.805 L 143.48,474.805 L 150.98,456.477 L 148.219,456.477 L 146.082,462.028 L 138.418,462.028 L 136.406,456.477 L 133.832,456.477 M 139.117,464.004 L 145.332,464.004 L 143.418,469.079 C 142.836,470.622 142.402,471.887 142.117,472.879 C 141.883,471.704 141.555,470.536 141.129,469.379 L 139.117,464.004"
         style="fill:#000000;fill-opacity:1;fill-rule:nonzero;stroke:none"
         id="path2574" /><path
         d="M 152.98,456.477 L 152.98,474.805 L 161.105,474.805 C 162.738,474.805 163.98,474.637 164.832,474.305 C 165.68,473.977 166.359,473.399 166.867,472.567 C 167.375,471.731 167.629,470.813 167.629,469.805 C 167.629,468.504 167.211,467.407 166.367,466.516 C 165.527,465.625 164.227,465.059 162.469,464.817 C 163.109,464.508 163.598,464.204 163.93,463.903 C 164.641,463.254 165.309,462.442 165.941,461.465 L 169.129,456.477 L 166.082,456.477 L 163.656,460.29 C 162.945,461.391 162.363,462.231 161.906,462.817 C 161.445,463.399 161.035,463.809 160.668,464.04 C 160.309,464.274 159.941,464.438 159.566,464.528 C 159.293,464.586 158.844,464.618 158.219,464.618 L 155.406,464.618 L 155.406,456.477 L 152.98,456.477 M 155.406,466.715 L 160.617,466.715 C 161.727,466.715 162.594,466.829 163.219,467.055 C 163.844,467.286 164.316,467.653 164.645,468.153 C 164.969,468.661 165.129,469.211 165.129,469.805 C 165.129,470.668 164.812,471.383 164.18,471.942 C 163.555,472.5 162.562,472.778 161.207,472.778 L 155.406,472.778 L 155.406,466.715"
         style="fill:#000000;fill-opacity:1;fill-rule:nonzero;stroke:none"
         id="path2576" /><path
         d="M 178.941,461.118 C 178.941,462.833 178.629,464.211 178.004,465.254 C 177.379,466.293 176.562,466.817 175.555,466.817 C 174.664,466.817 173.969,466.446 173.469,465.704 C 172.969,464.961 172.719,463.922 172.719,462.59 C 172.719,460.958 173.031,459.625 173.656,458.59 C 174.281,457.559 175.086,457.04 176.066,457.04 C 177.035,457.04 177.754,457.379 178.23,458.055 C 178.707,458.727 178.941,459.75 178.941,461.118 M 176.332,467.442 L 176.043,467.641 C 173.418,469.375 172.105,470.833 172.105,472.016 C 172.105,472.743 172.367,473.34 172.895,473.817 C 173.426,474.29 174.102,474.528 174.918,474.528 C 175.859,474.528 176.715,474.223 177.48,473.618 C 178.246,473.016 178.727,472.27 178.918,471.379 L 178.219,471.379 C 177.926,472.11 177.477,472.7 176.867,473.141 C 176.27,473.583 175.617,473.805 174.918,473.805 C 174.477,473.805 174.129,473.708 173.879,473.516 C 173.641,473.325 173.52,473.055 173.52,472.704 C 173.52,472.012 174.219,471.219 175.617,470.329 C 176.086,470.028 176.453,469.79 176.719,469.618 C 178.27,468.54 179.418,467.387 180.168,466.153 C 180.918,464.918 181.293,463.567 181.293,462.09 C 181.293,460.309 180.785,458.879 179.77,457.805 C 178.75,456.727 177.395,456.192 175.691,456.192 C 174.125,456.192 172.848,456.711 171.855,457.754 C 170.863,458.793 170.367,460.129 170.367,461.754 C 170.367,463.461 170.859,464.852 171.844,465.93 C 172.828,467.004 174.102,467.54 175.668,467.54 C 175.793,467.54 175.906,467.532 176.004,467.516 C 176.113,467.5 176.223,467.473 176.332,467.442"
         style="fill:#000000;fill-opacity:1;fill-rule:nonzero;stroke:none"
         id="path2578" /><g
         id="g2580"
         transform="translate(0,738.68799)"><path
           d="M 64.992,-665.457 L 212.875,-665.457 L 212.875,-591.918 L 64.992,-591.918 L 64.992,-665.457 z"
           style="fill:#ffffff;fill-opacity:1;fill-rule:nonzero;stroke:#000000;stroke-opacity:1;stroke-width:4;stroke-linecap:butt;stroke-linejoin:miter;stroke-miterlimit:4;stroke-dasharray:none"
           id="path2582" /></g><path
         d="M 96.227,119.286 L 112.012,119.286 L 112.012,117.161 L 105.387,117.161 L 105.387,100.622 L 102.852,100.622 L 102.852,117.161 L 96.227,117.161 L 96.227,119.286"
         style="fill:#000000;fill-opacity:1;fill-rule:nonzero;stroke:none"
         id="path2584" /><path
         d="M 108.824,114.622 L 111.125,114.622 L 114,103.7 L 116.863,114.622 L 119.574,114.622 L 122.449,103.7 L 125.312,114.622 L 127.613,114.622 L 123.949,100.622 L 121.238,100.622 L 118.227,112.098 L 115.199,100.622 L 112.488,100.622 L 108.824,114.622"
         style="fill:#000000;fill-opacity:1;fill-rule:nonzero;stroke:none"
         id="path2586" /><path
         d="M 131.113,114.622 L 133.414,114.622 L 133.414,100.622 L 131.113,100.622 L 131.113,114.622 M 131.113,120.075 L 133.414,120.075 L 133.414,117.161 L 131.113,117.161 L 131.113,120.075"
         style="fill:#000000;fill-opacity:1;fill-rule:nonzero;stroke:none"
         id="path2588" /><path
         d="M 147.137,114.211 L 147.137,112.036 C 146.488,112.368 145.812,112.618 145.113,112.786 C 144.414,112.954 143.688,113.036 142.938,113.036 C 141.797,113.036 140.938,112.86 140.363,112.512 C 139.797,112.161 139.512,111.637 139.512,110.934 C 139.512,110.403 139.719,109.981 140.125,109.672 C 140.535,109.372 141.355,109.086 142.59,108.809 L 143.375,108.637 C 145.008,108.286 146.168,107.79 146.852,107.149 C 147.543,106.516 147.887,105.625 147.887,104.485 C 147.887,103.184 147.371,102.157 146.34,101.399 C 145.312,100.641 143.902,100.262 142.102,100.262 C 141.352,100.262 140.566,100.336 139.75,100.485 C 138.941,100.625 138.09,100.844 137.188,101.137 L 137.188,103.512 C 138.039,103.067 138.875,102.735 139.699,102.512 C 140.527,102.293 141.344,102.184 142.152,102.184 C 143.234,102.184 144.066,102.368 144.652,102.735 C 145.234,103.11 145.527,103.637 145.527,104.309 C 145.527,104.934 145.312,105.415 144.887,105.747 C 144.473,106.083 143.551,106.403 142.125,106.711 L 141.324,106.899 C 139.902,107.2 138.871,107.657 138.238,108.274 C 137.605,108.899 137.289,109.75 137.289,110.836 C 137.289,112.153 137.754,113.168 138.688,113.887 C 139.621,114.602 140.945,114.961 142.664,114.961 C 143.512,114.961 144.312,114.899 145.062,114.774 C 145.812,114.649 146.504,114.461 147.137,114.211"
         style="fill:#000000;fill-opacity:1;fill-rule:nonzero;stroke:none"
         id="path2590" /><path
         d="M 153.84,118.598 L 153.84,114.622 L 158.574,114.622 L 158.574,112.836 L 153.84,112.836 L 153.84,105.235 C 153.84,104.094 153.992,103.36 154.301,103.036 C 154.617,102.711 155.254,102.547 156.215,102.547 L 158.574,102.547 L 158.574,100.622 L 156.215,100.622 C 154.438,100.622 153.215,100.954 152.539,101.61 C 151.863,102.278 151.527,103.485 151.527,105.235 L 151.527,112.836 L 149.84,112.836 L 149.84,114.622 L 151.527,114.622 L 151.527,118.598 L 153.84,118.598"
         style="fill:#000000;fill-opacity:1;fill-rule:nonzero;stroke:none"
         id="path2592" /><path
         d="M 160.449,108.661 L 167.187,108.661 L 167.187,106.61 L 160.449,106.61 L 160.449,108.661 z"
         style="fill:#000000;fill-opacity:1;fill-rule:nonzero;stroke:none"
         id="path2594" /><path
         d="M 171.625,102.747 L 175.75,102.747 L 175.75,116.985 L 171.262,116.086 L 171.262,118.387 L 175.727,119.286 L 178.25,119.286 L 178.25,102.747 L 182.375,102.747 L 182.375,100.622 L 171.625,100.622 L 171.625,102.747"
         style="fill:#000000;fill-opacity:1;fill-rule:nonzero;stroke:none"
         id="path2596" /><g
         id="g2598"
         transform="matrix(1,0,0,-1,0,738.68799)"><path
           d="M 81.559,574.16 L 120.391,574.16 C 124.156,574.16 127.184,577.469 127.184,581.578 L 127.184,598.539 C 127.184,602.648 124.156,605.957 120.391,605.957 L 81.559,605.957 C 77.793,605.957 74.766,602.648 74.766,598.539 L 74.766,581.578 C 74.766,577.469 77.793,574.16 81.559,574.16 z"
           style="fill:#ffffff;fill-opacity:1;fill-rule:nonzero;stroke:#000000;stroke-opacity:1;stroke-width:3.673187;stroke-linecap:butt;stroke-linejoin:miter;stroke-miterlimit:4;stroke-dasharray:none"
           id="path2600" /></g><g
         id="g2602"
         transform="translate(0,738.68799)"><path
           d="M 416.242,-662.121 L 564.129,-662.121 L 564.129,-588.582 L 416.242,-588.582 L 416.242,-662.121 z"
           style="fill:#ffffff;fill-opacity:1;fill-rule:nonzero;stroke:#000000;stroke-opacity:1;stroke-width:4;stroke-linecap:butt;stroke-linejoin:miter;stroke-miterlimit:4;stroke-dasharray:none"
           id="path2604" /></g><path
         d="M 449.113,125.223 L 449.113,118.211 L 452.289,118.211 C 453.465,118.211 454.371,118.516 455.012,119.122 C 455.656,119.731 455.977,120.598 455.977,121.723 C 455.977,122.84 455.656,123.704 455.012,124.309 C 454.371,124.918 453.465,125.223 452.289,125.223 L 449.113,125.223 M 446.59,127.297 L 452.289,127.297 C 454.379,127.297 455.957,126.821 457.027,125.872 C 458.102,124.93 458.637,123.547 458.637,121.723 C 458.637,119.879 458.102,118.489 457.027,117.547 C 455.957,116.606 454.379,116.133 452.289,116.133 L 449.113,116.133 L 449.113,108.633 L 446.59,108.633 L 446.59,127.297"
         style="fill:#000000;fill-opacity:1;fill-rule:nonzero;stroke:none"
         id="path2606" /><path
         d="M 474.762,111.297 L 474.762,116.309 L 470.637,116.309 L 470.637,118.383 L 477.262,118.383 L 477.262,110.372 C 476.289,109.68 475.215,109.157 474.039,108.797 C 472.863,108.446 471.609,108.274 470.277,108.274 C 467.359,108.274 465.074,109.122 463.426,110.821 C 461.785,112.532 460.965,114.907 460.965,117.946 C 460.965,120.997 461.785,123.372 463.426,125.071 C 465.074,126.782 467.359,127.633 470.277,127.633 C 471.492,127.633 472.645,127.485 473.738,127.184 C 474.84,126.883 475.852,126.442 476.777,125.86 L 476.777,123.172 C 475.844,123.965 474.852,124.559 473.801,124.961 C 472.75,125.36 471.645,125.559 470.488,125.559 C 468.203,125.559 466.488,124.922 465.34,123.649 C 464.195,122.372 463.625,120.473 463.625,117.946 C 463.625,115.43 464.195,113.536 465.34,112.258 C 466.488,110.985 468.203,110.348 470.488,110.348 C 471.379,110.348 472.176,110.422 472.875,110.571 C 473.574,110.731 474.203,110.973 474.762,111.297"
         style="fill:#000000;fill-opacity:1;fill-rule:nonzero;stroke:none"
         id="path2608" /><path
         d="M 495.863,125.86 L 495.863,123.196 C 495.012,123.989 494.105,124.583 493.137,124.973 C 492.18,125.364 491.16,125.559 490.074,125.559 C 487.941,125.559 486.309,124.907 485.176,123.598 C 484.043,122.297 483.477,120.415 483.477,117.946 C 483.477,115.489 484.043,113.606 485.176,112.297 C 486.309,110.997 487.941,110.348 490.074,110.348 C 491.16,110.348 492.18,110.543 493.137,110.934 C 494.105,111.329 495.012,111.918 495.863,112.711 L 495.863,110.071 C 494.98,109.473 494.043,109.024 493.051,108.723 C 492.066,108.422 491.027,108.274 489.926,108.274 C 487.102,108.274 484.875,109.133 483.25,110.86 C 481.625,112.594 480.812,114.958 480.812,117.946 C 480.812,120.946 481.625,123.309 483.25,125.036 C 484.875,126.77 487.102,127.633 489.926,127.633 C 491.043,127.633 492.094,127.485 493.074,127.184 C 494.066,126.895 494.996,126.454 495.863,125.86"
         style="fill:#000000;fill-opacity:1;fill-rule:nonzero;stroke:none"
         id="path2610" /><path
         d="M 498.527,116.672 L 505.261,116.672 L 505.261,114.621 L 498.527,114.621 L 498.527,116.672 z"
         style="fill:#000000;fill-opacity:1;fill-rule:nonzero;stroke:none"
         id="path2612" /><path
         d="M 509.699,110.758 L 513.824,110.758 L 513.824,124.997 L 509.34,124.098 L 509.34,126.399 L 513.801,127.297 L 516.324,127.297 L 516.324,110.758 L 520.449,110.758 L 520.449,108.633 L 509.699,108.633 L 509.699,110.758"
         style="fill:#000000;fill-opacity:1;fill-rule:nonzero;stroke:none"
         id="path2614" /><path
         d="M 533.426,114.747 C 533.051,116.504 532.566,117.77 531.977,118.536 C 531.383,119.309 530.613,119.696 529.664,119.696 C 528.637,119.696 527.824,119.227 527.227,118.286 C 526.633,117.352 526.34,116.083 526.34,114.473 C 526.34,112.731 526.617,111.399 527.176,110.473 C 527.742,109.555 528.562,109.098 529.637,109.098 C 530.613,109.098 531.379,109.497 531.938,110.297 C 532.496,111.106 532.992,112.59 533.426,114.747 M 537.062,120.133 L 536.09,116.309 C 535.914,115.645 535.715,114.993 535.488,114.36 C 535.262,113.727 535.016,113.122 534.75,112.547 C 535.035,111.805 535.34,111.247 535.664,110.872 C 535.988,110.504 536.332,110.321 536.699,110.321 C 536.977,110.321 537.203,110.426 537.387,110.633 C 537.578,110.852 537.699,111.141 537.75,111.497 L 538.238,111.497 L 538.238,111.223 C 538.238,110.274 538.105,109.563 537.84,109.098 C 537.57,108.641 537.168,108.411 536.625,108.411 C 536.051,108.411 535.598,108.633 535.262,109.086 C 534.93,109.536 534.609,110.395 534.301,111.661 C 533.625,110.52 532.891,109.688 532.102,109.172 C 531.316,108.665 530.391,108.411 529.324,108.411 C 527.699,108.411 526.348,108.985 525.262,110.133 C 524.188,111.293 523.652,112.754 523.652,114.524 C 523.652,116.114 524.203,117.504 525.312,118.696 C 526.422,119.891 527.734,120.485 529.25,120.485 C 530.441,120.485 531.414,120.133 532.164,119.434 C 532.922,118.735 533.453,117.684 533.762,116.286 L 534.676,120.133 L 537.062,120.133"
         style="fill:#000000;fill-opacity:1;fill-rule:nonzero;stroke:none"
         id="path2616" /><g
         id="g2618"
         transform="translate(0,738.68799)"><path
           d="M 412.594,-315.602 L 560.48,-315.602 L 560.48,-242.062 L 412.594,-242.062 L 412.594,-315.602 z"
           style="fill:#ffffff;fill-opacity:1;fill-rule:nonzero;stroke:#000000;stroke-opacity:1;stroke-width:4;stroke-linecap:butt;stroke-linejoin:miter;stroke-miterlimit:4;stroke-dasharray:none"
           id="path2620" /></g><g
         id="g2622"
         transform="matrix(1,0,0,-1,0,738.68799)"><path
           d="M 479.297,241.254 C 479.301,247.281 468.445,252.168 455.051,252.168 C 441.66,252.168 430.805,247.281 430.809,241.254 C 430.805,235.227 441.66,230.34 455.051,230.34 C 468.445,230.34 479.301,235.227 479.297,241.254 L 479.297,241.254 z"
           style="fill:#ffffff;fill-opacity:1;fill-rule:nonzero;stroke:#000000;stroke-opacity:1;stroke-width:4;stroke-linecap:butt;stroke-linejoin:miter;stroke-miterlimit:4;stroke-dasharray:none"
           id="path2624" /></g><path
         d="M 424.445,473.77 L 440.234,473.77 L 440.234,471.645 L 433.609,471.645 L 433.609,455.106 L 431.07,455.106 L 431.07,471.645 L 424.445,471.645 L 424.445,473.77"
         style="fill:#000000;fill-opacity:1;fill-rule:nonzero;stroke:none"
         id="path2626" /><path
         d="M 442.734,473.77 L 453.457,473.77 L 453.457,471.645 L 445.258,471.645 L 445.258,466.145 L 452.66,466.145 L 452.66,464.02 L 445.258,464.02 L 445.258,455.106 L 442.734,455.106 L 442.734,473.77"
         style="fill:#000000;fill-opacity:1;fill-rule:nonzero;stroke:none"
         id="path2628" /><path
         d="M 471.848,462.145 C 469.988,462.145 468.699,461.93 467.984,461.504 C 467.266,461.083 466.91,460.356 466.91,459.333 C 466.91,458.516 467.176,457.864 467.707,457.379 C 468.25,456.907 468.984,456.668 469.91,456.668 C 471.184,456.668 472.203,457.118 472.973,458.02 C 473.746,458.926 474.133,460.129 474.133,461.629 L 474.133,462.145 L 471.848,462.145 M 476.434,463.094 L 476.434,455.106 L 474.133,455.106 L 474.133,457.231 C 473.609,456.379 472.953,455.75 472.172,455.344 C 471.387,454.942 470.43,454.743 469.297,454.743 C 467.863,454.743 466.723,455.145 465.871,455.942 C 465.031,456.75 464.609,457.833 464.609,459.18 C 464.609,460.754 465.133,461.942 466.184,462.743 C 467.242,463.543 468.816,463.942 470.91,463.942 L 474.133,463.942 L 474.133,464.168 C 474.133,465.227 473.785,466.043 473.082,466.618 C 472.391,467.204 471.418,467.493 470.16,467.493 C 469.359,467.493 468.578,467.399 467.82,467.208 C 467.062,467.016 466.332,466.727 465.633,466.344 L 465.633,468.469 C 466.477,468.793 467.293,469.036 468.082,469.192 C 468.875,469.36 469.645,469.442 470.395,469.442 C 472.422,469.442 473.934,468.918 474.934,467.868 C 475.934,466.817 476.434,465.227 476.434,463.094"
         style="fill:#000000;fill-opacity:1;fill-rule:nonzero;stroke:none"
         id="path2630" /><path
         d="M 491.309,468.567 L 491.309,466.418 C 490.66,466.778 490.004,467.043 489.348,467.219 C 488.695,467.403 488.039,467.493 487.371,467.493 C 485.879,467.493 484.723,467.02 483.895,466.067 C 483.07,465.125 482.66,463.801 482.66,462.094 C 482.66,460.383 483.07,459.055 483.895,458.106 C 484.723,457.165 485.879,456.692 487.371,456.692 C 488.039,456.692 488.695,456.782 489.348,456.958 C 490.004,457.141 490.66,457.411 491.309,457.77 L 491.309,455.645 C 490.668,455.344 490,455.118 489.309,454.969 C 488.625,454.817 487.895,454.743 487.121,454.743 C 485.012,454.743 483.34,455.407 482.098,456.731 C 480.855,458.055 480.234,459.844 480.234,462.094 C 480.234,464.375 480.859,466.172 482.109,467.481 C 483.367,468.79 485.09,469.442 487.27,469.442 C 487.98,469.442 488.672,469.368 489.348,469.219 C 490.02,469.079 490.676,468.86 491.309,468.567"
         style="fill:#000000;fill-opacity:1;fill-rule:nonzero;stroke:none"
         id="path2632" /><path
         d="M 497.559,473.083 L 497.559,469.106 L 502.297,469.106 L 502.297,467.317 L 497.559,467.317 L 497.559,459.719 C 497.559,458.579 497.715,457.844 498.02,457.52 C 498.34,457.192 498.977,457.032 499.934,457.032 L 502.297,457.032 L 502.297,455.106 L 499.934,455.106 C 498.16,455.106 496.934,455.434 496.258,456.094 C 495.582,456.758 495.246,457.969 495.246,459.719 L 495.246,467.317 L 493.559,467.317 L 493.559,469.106 L 495.246,469.106 L 495.246,473.083 L 497.559,473.083"
         style="fill:#000000;fill-opacity:1;fill-rule:nonzero;stroke:none"
         id="path2634" /><path
         d="M 505.332,469.106 L 507.633,469.106 L 507.633,455.106 L 505.332,455.106 L 505.332,469.106 M 505.332,474.555 L 507.633,474.555 L 507.633,471.645 L 505.332,471.645 L 505.332,474.555"
         style="fill:#000000;fill-opacity:1;fill-rule:nonzero;stroke:none"
         id="path2636" /><path
         d="M 510.785,469.106 L 513.223,469.106 L 517.598,457.356 L 521.973,469.106 L 524.41,469.106 L 519.16,455.106 L 516.035,455.106 L 510.785,469.106"
         style="fill:#000000;fill-opacity:1;fill-rule:nonzero;stroke:none"
         id="path2638" /><path
         d="M 527.582,469.106 L 529.883,469.106 L 529.883,455.106 L 527.582,455.106 L 527.582,469.106 M 527.582,474.555 L 529.883,474.555 L 529.883,471.645 L 527.582,471.645 L 527.582,474.555"
         style="fill:#000000;fill-opacity:1;fill-rule:nonzero;stroke:none"
         id="path2640" /><path
         d="M 536.957,473.083 L 536.957,469.106 L 541.695,469.106 L 541.695,467.317 L 536.957,467.317 L 536.957,459.719 C 536.957,458.579 537.113,457.844 537.422,457.52 C 537.738,457.192 538.375,457.032 539.332,457.032 L 541.695,457.032 L 541.695,455.106 L 539.332,455.106 C 537.559,455.106 536.332,455.434 535.66,456.094 C 534.984,456.758 534.645,457.969 534.645,459.719 L 534.645,467.317 L 532.957,467.317 L 532.957,469.106 L 534.645,469.106 L 534.645,473.083 L 536.957,473.083"
         style="fill:#000000;fill-opacity:1;fill-rule:nonzero;stroke:none"
         id="path2642" /><path
         d="M 550.559,453.805 C 549.91,452.141 549.277,451.051 548.66,450.543 C 548.043,450.036 547.219,449.782 546.184,449.782 L 544.348,449.782 L 544.348,451.708 L 545.695,451.708 C 546.328,451.708 546.82,451.856 547.172,452.157 C 547.52,452.458 547.91,453.165 548.332,454.282 L 548.746,455.333 L 543.082,469.106 L 545.52,469.106 L 549.895,458.157 L 554.27,469.106 L 556.707,469.106 L 550.559,453.805"
         style="fill:#000000;fill-opacity:1;fill-rule:nonzero;stroke:none"
         id="path2644" /><g
         id="g2646"
         transform="matrix(1,0,0,-1,0,738.68799)"><path
           d="M 148.832,142.266 C 148.316,234.996 148.316,234.996 148.316,234.996 L 148.316,234.996 L 148.316,234.996 L 148.316,234.996 L 148.316,234.996"
           style="fill:none;stroke:#000000;stroke-opacity:1;stroke-width:3.396917;stroke-linecap:butt;stroke-linejoin:miter;stroke-miterlimit:4;stroke-dasharray:none"
           id="path2648" /></g><g
         id="g2650"
         transform="matrix(-5.58703e-3,-1,-1,5.58703e-3,0,738.68799)"><path
           d="M 233.535,-149.625 L 210.029,-136.037 L 210.026,-163.212 L 233.535,-149.625 z"
           style="fill:#ffffff;fill-opacity:1;fill-rule:evenodd;stroke:#000000;stroke-opacity:1;stroke-width:3.396864;stroke-linecap:butt;stroke-linejoin:miter;stroke-miterlimit:4;stroke-dasharray:none"
           id="path2652" /></g><g
         id="g2654"
         transform="matrix(1,0,0,-1,0,738.68799)"><path
           d="M 144.953,314.008 C 144.453,400.824 144.453,400.824 144.453,400.824 L 144.453,400.824 L 144.453,400.824 L 144.453,400.824 L 144.453,400.824"
           style="fill:none;stroke:#000000;stroke-opacity:1;stroke-width:3.2;stroke-linecap:butt;stroke-linejoin:miter;stroke-miterlimit:4;stroke-dasharray:none"
           id="path2656" /></g><g
         id="g2658"
         transform="matrix(-5.77522e-3,-1,-1,5.77522e-3,0,738.68799)"><path
           d="M 399.387,-146.764 L 377.242,-133.964 L 377.243,-159.561 L 399.387,-146.764 z"
           style="fill:#ffffff;fill-opacity:1;fill-rule:evenodd;stroke:#000000;stroke-opacity:1;stroke-width:3.199947;stroke-linecap:butt;stroke-linejoin:miter;stroke-miterlimit:4;stroke-dasharray:none"
           id="path2660" /></g><g
         id="g2662"
         transform="matrix(1,0,0,-1,0,738.68799)"><path
           d="M 215.242,624.633 C 405.875,624.418 405.875,624.418 405.875,624.418 L 405.875,624.418 L 405.875,624.418 L 405.875,624.418 L 405.875,624.418"
           style="fill:none;stroke:#000000;stroke-opacity:1;stroke-width:3.773794;stroke-linecap:butt;stroke-linejoin:miter;stroke-miterlimit:4;stroke-dasharray:none"
           id="path2664" /></g><g
         id="g2666"
         transform="matrix(1,1.12518e-3,1.12518e-3,-1,0,738.68799)"><path
           d="M 405.168,641.932 L 405.172,607.815"
           style="fill:none;stroke:#000000;stroke-opacity:1;stroke-width:3.773792;stroke-linecap:butt;stroke-linejoin:miter;stroke-miterlimit:4;stroke-dasharray:none"
           id="path2668" /></g><g
         id="g2670"
         transform="translate(0,738.68799)"><path
           d="M 63.793,-482.129 L 211.68,-482.129 L 211.68,-408.59 L 63.793,-408.59 L 63.793,-482.129 z"
           style="fill:#ffffff;fill-opacity:1;fill-rule:nonzero;stroke:#000000;stroke-opacity:1;stroke-width:4;stroke-linecap:butt;stroke-linejoin:miter;stroke-miterlimit:4;stroke-dasharray:none"
           id="path2672" /></g><g
         id="g2674"
         transform="matrix(1,0,0,-1,0,738.68799)"><path
           d="M 472.609,588.605 C 213.277,266.742 213.277,266.742 213.277,266.742 L 213.277,266.742 L 213.277,266.742 L 213.277,266.742 L 213.277,266.742"
           style="fill:none;stroke:#000000;stroke-opacity:1;stroke-width:4.020503;stroke-linecap:butt;stroke-linejoin:miter;stroke-miterlimit:4;stroke-dasharray:none"
           id="path2676" /></g><g
         id="g2678"
         transform="matrix(-0.805731,1,1,0.805731,0,738.68799)"><path
           d="M -266.512,-0.999 L -288.177,11.525 L -288.176,-13.521 L -266.512,-0.999 z"
           style="fill:#ffffff;fill-opacity:1;fill-rule:evenodd;stroke:#000000;stroke-opacity:1;stroke-width:3.130714;stroke-linecap:butt;stroke-linejoin:miter;stroke-miterlimit:4;stroke-dasharray:none"
           id="path2680" /></g><g
         id="g2682"
         transform="matrix(1,0,0,-1,0,738.68799)"><path
           d="M 485.805,590.598 C 485.57,318.68 485.57,318.68 485.57,318.68 L 485.57,318.68 L 485.57,318.68 L 485.57,318.68 L 485.57,318.68"
           style="fill:none;stroke:#000000;stroke-opacity:1;stroke-width:4.033289;stroke-linecap:butt;stroke-linejoin:miter;stroke-miterlimit:4;stroke-dasharray:none"
           id="path2684" /></g><g
         id="g2686"
         transform="matrix(-8.48202e-4,1,1,8.48202e-4,0,738.68799)"><path
           d="M -319.834,485.303 L -347.746,501.436 L -347.746,469.17 L -319.834,485.303 z"
           style="fill:#ffffff;fill-opacity:1;fill-rule:evenodd;stroke:#000000;stroke-opacity:1;stroke-width:4.033288;stroke-linecap:butt;stroke-linejoin:miter;stroke-miterlimit:4;stroke-dasharray:none"
           id="path2688" /></g><g
         id="g2690"
         transform="matrix(1,0,0,-1,0,738.68799)"><path
           d="M 210.961,261.605 C 309.227,260.914 309.227,260.914 309.227,260.914 L 309.227,260.914 L 309.227,260.914 L 309.227,260.914 L 309.227,260.914 L 309.227,260.914"
           style="fill:none;stroke:#000000;stroke-opacity:1;stroke-width:3.987802;stroke-linecap:butt;stroke-linejoin:miter;stroke-miterlimit:4;stroke-dasharray:none"
           id="path2692" /></g><g
         id="g2694"
         transform="matrix(1,0,0,-1,0,738.68799)"><path
           d="M 331.059,240.078 C 331.086,155.145 331.086,155.145 331.086,155.145 L 331.086,155.145 L 331.086,155.145"
           style="fill:none;stroke:#000000;stroke-opacity:1;stroke-width:4.009148;stroke-linecap:butt;stroke-linejoin:miter;stroke-miterlimit:4;stroke-dasharray:none"
           id="path2696" /></g><g
         id="g2698"
         transform="matrix(1,0,0,-1,0,738.68799)"><path
           d="M 353.141,195.254 C 353.148,207.742 342.754,217.516 329.926,217.086 C 317.098,216.652 306.703,206.18 306.711,193.695 C 306.703,181.207 317.098,171.434 329.926,171.863 C 342.754,172.293 353.148,182.77 353.141,195.254 L 353.141,195.254 z"
           style="fill:#ffffff;fill-opacity:1;fill-rule:nonzero;stroke:#000000;stroke-opacity:1;stroke-width:4;stroke-linecap:butt;stroke-linejoin:miter;stroke-miterlimit:4;stroke-dasharray:none"
           id="path2700" /></g><g
         id="g2702"
         transform="matrix(1,0,0,-1,0,738.68799)"><path
           d="M 682.738,108.703 L 854.25,108.703 L 854.25,196.605 L 682.738,196.605 L 682.738,108.703 z"
           style="fill:#ffffff;fill-opacity:1;fill-rule:nonzero;stroke:#000000;stroke-opacity:1;stroke-width:3.423039;stroke-linecap:butt;stroke-linejoin:miter;stroke-miterlimit:4;stroke-dasharray:none"
           id="path2704" /></g><g
         id="g2706"
         transform="matrix(1,0,0,-1,0,738.68799)"><path
           d="M 640.277,134.93 C 640.895,169.188 640.895,169.188 640.895,169.188 L 640.895,169.188 L 640.895,169.188 L 640.895,169.188 L 640.895,169.188 L 640.895,169.188 L 640.895,169.188"
           style="fill:none;stroke:#000000;stroke-opacity:1;stroke-width:3.2;stroke-linecap:butt;stroke-linejoin:miter;stroke-miterlimit:4;stroke-dasharray:none"
           id="path2708" /></g><path
         d="M 737.586,604.25 L 737.586,607.383 L 735.008,607.383 L 735.008,608.68 L 739.148,608.68 L 739.148,603.672 C 738.539,603.239 737.867,602.911 737.133,602.688 C 736.398,602.469 735.613,602.36 734.781,602.36 C 732.957,602.36 731.531,602.891 730.5,603.954 C 729.473,605.02 728.961,606.504 728.961,608.407 C 728.961,610.313 729.473,611.797 730.5,612.86 C 731.531,613.926 732.957,614.461 734.781,614.461 C 735.543,614.461 736.262,614.368 736.945,614.18 C 737.633,613.993 738.266,613.715 738.844,613.352 L 738.844,611.672 C 738.262,612.168 737.641,612.54 736.984,612.79 C 736.328,613.04 735.637,613.165 734.914,613.165 C 733.488,613.165 732.414,612.766 731.695,611.969 C 730.98,611.172 730.625,609.985 730.625,608.407 C 730.625,606.833 730.98,605.649 731.695,604.852 C 732.414,604.055 733.488,603.657 734.914,603.657 C 735.473,603.657 735.969,603.704 736.406,603.797 C 736.844,603.895 737.238,604.047 737.586,604.25"
         style="fill:#000000;fill-opacity:1;fill-rule:nonzero;stroke:none"
         id="path2710" /><path
         d="M 749.461,607.321 L 749.461,606.618 L 742.852,606.618 C 742.914,605.629 743.211,604.872 743.742,604.352 C 744.277,603.836 745.023,603.579 745.977,603.579 C 746.527,603.579 747.062,603.645 747.578,603.782 C 748.098,603.918 748.613,604.122 749.125,604.391 L 749.125,603.032 C 748.609,602.813 748.082,602.645 747.539,602.532 C 746.996,602.418 746.449,602.36 745.891,602.36 C 744.496,602.36 743.387,602.766 742.57,603.579 C 741.758,604.391 741.352,605.489 741.352,606.875 C 741.352,608.309 741.738,609.442 742.508,610.282 C 743.285,611.125 744.328,611.547 745.641,611.547 C 746.816,611.547 747.746,611.168 748.43,610.407 C 749.117,609.653 749.461,608.622 749.461,607.321 M 748.023,607.743 C 748.012,608.528 747.793,609.157 747.359,609.625 C 746.934,610.094 746.363,610.329 745.656,610.329 C 744.855,610.329 744.211,610.102 743.727,609.649 C 743.246,609.196 742.973,608.559 742.898,607.735 L 748.023,607.743"
         style="fill:#000000;fill-opacity:1;fill-rule:nonzero;stroke:none"
         id="path2712" /><path
         d="M 759.062,607.868 L 759.062,602.586 L 757.625,602.586 L 757.625,607.821 C 757.625,608.649 757.465,609.27 757.141,609.68 C 756.816,610.09 756.332,610.297 755.688,610.297 C 754.91,610.297 754.301,610.051 753.852,609.555 C 753.402,609.059 753.18,608.387 753.18,607.532 L 753.18,602.586 L 751.734,602.586 L 751.734,611.336 L 753.18,611.336 L 753.18,609.977 C 753.523,610.504 753.926,610.895 754.391,611.157 C 754.859,611.418 755.398,611.547 756.008,611.547 C 757.012,611.547 757.773,611.235 758.289,610.61 C 758.805,609.989 759.062,609.075 759.062,607.868"
         style="fill:#000000;fill-opacity:1;fill-rule:nonzero;stroke:none"
         id="path2714" /><path
         d="M 769.43,607.321 L 769.43,606.618 L 762.82,606.618 C 762.883,605.629 763.18,604.872 763.711,604.352 C 764.246,603.836 764.992,603.579 765.945,603.579 C 766.496,603.579 767.031,603.645 767.547,603.782 C 768.066,603.918 768.582,604.122 769.094,604.391 L 769.094,603.032 C 768.578,602.813 768.051,602.645 767.508,602.532 C 766.965,602.418 766.418,602.36 765.859,602.36 C 764.465,602.36 763.355,602.766 762.539,603.579 C 761.727,604.391 761.32,605.489 761.32,606.875 C 761.32,608.309 761.707,609.442 762.477,610.282 C 763.254,611.125 764.297,611.547 765.609,611.547 C 766.785,611.547 767.715,611.168 768.398,610.407 C 769.086,609.653 769.43,608.622 769.43,607.321 M 767.992,607.743 C 767.98,608.528 767.762,609.157 767.328,609.625 C 766.902,610.094 766.332,610.329 765.625,610.329 C 764.824,610.329 764.18,610.102 763.695,609.649 C 763.215,609.196 762.941,608.559 762.867,607.735 L 767.992,607.743"
         style="fill:#000000;fill-opacity:1;fill-rule:nonzero;stroke:none"
         id="path2716" /><path
         d="M 777.336,611.079 L 777.336,609.719 C 776.93,609.926 776.508,610.083 776.07,610.188 C 775.633,610.293 775.18,610.344 774.711,610.344 C 773.996,610.344 773.461,610.235 773.102,610.016 C 772.746,609.797 772.57,609.469 772.57,609.032 C 772.57,608.7 772.699,608.434 772.953,608.243 C 773.207,608.055 773.723,607.875 774.492,607.704 L 774.984,607.594 C 776.004,607.375 776.73,607.067 777.156,606.665 C 777.59,606.27 777.805,605.715 777.805,605 C 777.805,604.188 777.48,603.543 776.836,603.071 C 776.195,602.598 775.312,602.36 774.188,602.36 C 773.719,602.36 773.23,602.407 772.719,602.5 C 772.215,602.59 771.68,602.723 771.117,602.907 L 771.117,604.391 C 771.648,604.114 772.172,603.907 772.688,603.766 C 773.203,603.629 773.715,603.563 774.219,603.563 C 774.895,603.563 775.418,603.676 775.781,603.907 C 776.145,604.141 776.328,604.469 776.328,604.891 C 776.328,605.282 776.195,605.583 775.93,605.79 C 775.668,605.997 775.094,606.2 774.203,606.391 L 773.703,606.508 C 772.812,606.696 772.168,606.981 771.773,607.368 C 771.379,607.758 771.18,608.293 771.18,608.969 C 771.18,609.793 771.473,610.426 772.055,610.875 C 772.637,611.325 773.465,611.547 774.539,611.547 C 775.07,611.547 775.57,611.508 776.039,611.43 C 776.508,611.352 776.941,611.235 777.336,611.079"
         style="fill:#000000;fill-opacity:1;fill-rule:nonzero;stroke:none"
         id="path2718" /><path
         d="M 789.625,614.743 L 789.625,613.547 L 788.25,613.547 C 787.734,613.547 787.375,613.442 787.172,613.235 C 786.973,613.028 786.875,612.653 786.875,612.11 L 786.875,611.336 L 789.242,611.336 L 789.242,610.219 L 786.875,610.219 L 786.875,602.586 L 785.43,602.586 L 785.43,610.219 L 784.055,610.219 L 784.055,611.336 L 785.43,611.336 L 785.43,611.946 C 785.43,612.918 785.656,613.629 786.109,614.071 C 786.562,614.52 787.281,614.743 788.266,614.743 L 789.625,614.743"
         style="fill:#000000;fill-opacity:1;fill-rule:nonzero;stroke:none"
         id="path2720" /><path
         d="M 794.242,610.329 C 793.473,610.329 792.863,610.028 792.414,609.422 C 791.965,608.825 791.742,608 791.742,606.954 C 791.742,605.907 791.965,605.083 792.406,604.477 C 792.855,603.879 793.465,603.579 794.242,603.579 C 795.008,603.579 795.613,603.879 796.062,604.485 C 796.512,605.09 796.734,605.911 796.734,606.954 C 796.734,607.989 796.512,608.809 796.062,609.415 C 795.613,610.024 795.008,610.329 794.242,610.329 M 794.242,611.547 C 795.492,611.547 796.473,611.141 797.188,610.329 C 797.902,609.516 798.258,608.391 798.258,606.954 C 798.258,605.52 797.902,604.395 797.188,603.579 C 796.473,602.766 795.492,602.36 794.242,602.36 C 792.988,602.36 792.004,602.766 791.289,603.579 C 790.582,604.395 790.227,605.52 790.227,606.954 C 790.227,608.391 790.582,609.516 791.289,610.329 C 792.004,611.141 792.988,611.547 794.242,611.547"
         style="fill:#000000;fill-opacity:1;fill-rule:nonzero;stroke:none"
         id="path2722" /><path
         d="M 805.703,609.993 C 805.543,610.086 805.363,610.153 805.172,610.196 C 804.984,610.243 804.777,610.266 804.547,610.266 C 803.734,610.266 803.109,610 802.672,609.469 C 802.238,608.942 802.023,608.184 802.023,607.196 L 802.023,602.586 L 800.578,602.586 L 800.578,611.336 L 802.023,611.336 L 802.023,609.977 C 802.324,610.508 802.719,610.903 803.203,611.157 C 803.688,611.418 804.277,611.547 804.969,611.547 C 805.066,611.547 805.176,611.54 805.297,611.524 C 805.418,611.512 805.551,611.497 805.695,611.469 L 805.703,609.993"
         style="fill:#000000;fill-opacity:1;fill-rule:nonzero;stroke:none"
         id="path2724" /><path
         d="M 701.07,588.157 L 701.07,583.883 L 703.602,583.883 C 704.449,583.883 705.078,584.059 705.484,584.407 C 705.895,584.762 706.102,585.301 706.102,586.024 C 706.102,586.754 705.895,587.29 705.484,587.633 C 705.078,587.981 704.449,588.157 703.602,588.157 L 701.07,588.157 M 701.07,592.954 L 701.07,589.438 L 703.406,589.438 C 704.176,589.438 704.75,589.583 705.125,589.868 C 705.504,590.161 705.695,590.602 705.695,591.196 C 705.695,591.786 705.504,592.223 705.125,592.516 C 704.75,592.809 704.176,592.954 703.406,592.954 L 701.07,592.954 M 699.492,594.25 L 703.523,594.25 C 704.727,594.25 705.652,594 706.305,593.5 C 706.957,593 707.281,592.29 707.281,591.368 C 707.281,590.653 707.113,590.086 706.781,589.665 C 706.449,589.243 705.957,588.981 705.312,588.875 C 706.09,588.708 706.691,588.36 707.117,587.829 C 707.551,587.301 707.766,586.645 707.766,585.852 C 707.766,584.809 707.41,584.004 706.703,583.438 C 705.996,582.872 704.988,582.586 703.68,582.586 L 699.492,582.586 L 699.492,594.25"
         style="fill:#000000;fill-opacity:1;fill-rule:nonzero;stroke:none"
         id="path2726" /><path
         d="M 715.469,589.993 C 715.309,590.086 715.129,590.153 714.938,590.196 C 714.75,590.243 714.543,590.266 714.312,590.266 C 713.5,590.266 712.875,590 712.438,589.469 C 712.004,588.942 711.789,588.184 711.789,587.196 L 711.789,582.586 L 710.344,582.586 L 710.344,591.336 L 711.789,591.336 L 711.789,589.977 C 712.09,590.508 712.484,590.903 712.969,591.157 C 713.453,591.418 714.043,591.547 714.734,591.547 C 714.832,591.547 714.941,591.54 715.062,591.524 C 715.184,591.512 715.316,591.497 715.461,591.469 L 715.469,589.993"
         style="fill:#000000;fill-opacity:1;fill-rule:nonzero;stroke:none"
         id="path2728" /><path
         d="M 720.039,590.329 C 719.27,590.329 718.66,590.028 718.211,589.422 C 717.762,588.825 717.539,588 717.539,586.954 C 717.539,585.907 717.762,585.083 718.203,584.477 C 718.652,583.879 719.262,583.579 720.039,583.579 C 720.805,583.579 721.41,583.879 721.859,584.485 C 722.309,585.09 722.531,585.911 722.531,586.954 C 722.531,587.989 722.309,588.809 721.859,589.415 C 721.41,590.024 720.805,590.329 720.039,590.329 M 720.039,591.547 C 721.289,591.547 722.27,591.141 722.984,590.329 C 723.699,589.516 724.055,588.391 724.055,586.954 C 724.055,585.52 723.699,584.395 722.984,583.579 C 722.27,582.766 721.289,582.36 720.039,582.36 C 718.785,582.36 717.801,582.766 717.086,583.579 C 716.379,584.395 716.023,585.52 716.023,586.954 C 716.023,588.391 716.379,589.516 717.086,590.329 C 717.801,591.141 718.785,591.547 720.039,591.547"
         style="fill:#000000;fill-opacity:1;fill-rule:nonzero;stroke:none"
         id="path2730" /><path
         d="M 725.594,591.336 L 727.031,591.336 L 728.828,584.508 L 730.617,591.336 L 732.312,591.336 L 734.109,584.508 L 735.898,591.336 L 737.336,591.336 L 735.047,582.586 L 733.352,582.586 L 731.469,589.758 L 729.578,582.586 L 727.883,582.586 L 725.594,591.336"
         style="fill:#000000;fill-opacity:1;fill-rule:nonzero;stroke:none"
         id="path2732" /><path
         d="M 746.797,587.868 L 746.797,582.586 L 745.359,582.586 L 745.359,587.821 C 745.359,588.649 745.199,589.27 744.875,589.68 C 744.551,590.09 744.066,590.297 743.422,590.297 C 742.645,590.297 742.035,590.051 741.586,589.555 C 741.137,589.059 740.914,588.387 740.914,587.532 L 740.914,582.586 L 739.469,582.586 L 739.469,591.336 L 740.914,591.336 L 740.914,589.977 C 741.258,590.504 741.66,590.895 742.125,591.157 C 742.594,591.418 743.133,591.547 743.742,591.547 C 744.746,591.547 745.508,591.235 746.023,590.61 C 746.539,589.989 746.797,589.075 746.797,587.868"
         style="fill:#000000;fill-opacity:1;fill-rule:nonzero;stroke:none"
         id="path2734" /><path
         d="M 759.203,594.743 L 759.203,593.547 L 757.828,593.547 C 757.312,593.547 756.953,593.442 756.75,593.235 C 756.551,593.028 756.453,592.653 756.453,592.11 L 756.453,591.336 L 758.82,591.336 L 758.82,590.219 L 756.453,590.219 L 756.453,582.586 L 755.008,582.586 L 755.008,590.219 L 753.633,590.219 L 753.633,591.336 L 755.008,591.336 L 755.008,591.946 C 755.008,592.918 755.234,593.629 755.688,594.071 C 756.141,594.52 756.859,594.743 757.844,594.743 L 759.203,594.743"
         style="fill:#000000;fill-opacity:1;fill-rule:nonzero;stroke:none"
         id="path2736" /><path
         d="M 764.406,586.985 C 763.246,586.985 762.441,586.852 761.992,586.586 C 761.543,586.321 761.32,585.868 761.32,585.227 C 761.32,584.715 761.488,584.309 761.82,584.008 C 762.16,583.711 762.617,583.563 763.195,583.563 C 763.992,583.563 764.629,583.844 765.109,584.407 C 765.594,584.973 765.836,585.727 765.836,586.665 L 765.836,586.985 L 764.406,586.985 M 767.273,587.579 L 767.273,582.586 L 765.836,582.586 L 765.836,583.915 C 765.508,583.383 765.098,582.989 764.609,582.735 C 764.121,582.485 763.52,582.36 762.812,582.36 C 761.918,582.36 761.203,582.61 760.672,583.11 C 760.145,583.614 759.883,584.29 759.883,585.133 C 759.883,586.118 760.211,586.86 760.867,587.36 C 761.527,587.86 762.512,588.11 763.82,588.11 L 765.836,588.11 L 765.836,588.25 C 765.836,588.911 765.617,589.422 765.18,589.782 C 764.746,590.145 764.137,590.329 763.352,590.329 C 762.852,590.329 762.363,590.27 761.891,590.149 C 761.418,590.028 760.961,589.848 760.523,589.61 L 760.523,590.938 C 761.051,591.141 761.559,591.293 762.055,591.391 C 762.551,591.497 763.031,591.547 763.5,591.547 C 764.766,591.547 765.711,591.219 766.336,590.563 C 766.961,589.907 767.273,588.911 767.273,587.579"
         style="fill:#000000;fill-opacity:1;fill-rule:nonzero;stroke:none"
         id="path2738" /><path
         d="M 771.695,593.821 L 771.695,591.336 L 774.656,591.336 L 774.656,590.219 L 771.695,590.219 L 771.695,585.469 C 771.695,584.754 771.793,584.297 771.984,584.094 C 772.184,583.891 772.582,583.79 773.18,583.79 L 774.656,583.79 L 774.656,582.586 L 773.18,582.586 C 772.07,582.586 771.305,582.793 770.883,583.204 C 770.461,583.622 770.25,584.375 770.25,585.469 L 770.25,590.219 L 769.195,590.219 L 769.195,591.336 L 770.25,591.336 L 770.25,593.821 L 771.695,593.821"
         style="fill:#000000;fill-opacity:1;fill-rule:nonzero;stroke:none"
         id="path2740" /><path
         d="M 789.133,587.321 L 789.133,586.618 L 782.523,586.618 C 782.586,585.629 782.883,584.872 783.414,584.352 C 783.949,583.836 784.695,583.579 785.648,583.579 C 786.199,583.579 786.734,583.645 787.25,583.782 C 787.77,583.918 788.285,584.122 788.797,584.391 L 788.797,583.032 C 788.281,582.813 787.754,582.645 787.211,582.532 C 786.668,582.418 786.121,582.36 785.562,582.36 C 784.168,582.36 783.059,582.766 782.242,583.579 C 781.43,584.391 781.023,585.489 781.023,586.875 C 781.023,588.309 781.41,589.442 782.18,590.282 C 782.957,591.125 784,591.547 785.312,591.547 C 786.488,591.547 787.418,591.168 788.102,590.407 C 788.789,589.653 789.133,588.622 789.133,587.321 M 787.695,587.743 C 787.684,588.528 787.465,589.157 787.031,589.625 C 786.605,590.094 786.035,590.329 785.328,590.329 C 784.527,590.329 783.883,590.102 783.398,589.649 C 782.918,589.196 782.645,588.559 782.57,587.735 L 787.695,587.743"
         style="fill:#000000;fill-opacity:1;fill-rule:nonzero;stroke:none"
         id="path2742" /><path
         d="M 798.734,587.868 L 798.734,582.586 L 797.297,582.586 L 797.297,587.821 C 797.297,588.649 797.137,589.27 796.812,589.68 C 796.488,590.09 796.004,590.297 795.359,590.297 C 794.582,590.297 793.973,590.051 793.523,589.555 C 793.074,589.059 792.852,588.387 792.852,587.532 L 792.852,582.586 L 791.406,582.586 L 791.406,591.336 L 792.852,591.336 L 792.852,589.977 C 793.195,590.504 793.598,590.895 794.062,591.157 C 794.531,591.418 795.07,591.547 795.68,591.547 C 796.684,591.547 797.445,591.235 797.961,590.61 C 798.477,589.989 798.734,589.075 798.734,587.868"
         style="fill:#000000;fill-opacity:1;fill-rule:nonzero;stroke:none"
         id="path2744" /><path
         d="M 809.102,587.321 L 809.102,586.618 L 802.492,586.618 C 802.555,585.629 802.852,584.872 803.383,584.352 C 803.918,583.836 804.664,583.579 805.617,583.579 C 806.168,583.579 806.703,583.645 807.219,583.782 C 807.738,583.918 808.254,584.122 808.766,584.391 L 808.766,583.032 C 808.25,582.813 807.723,582.645 807.18,582.532 C 806.637,582.418 806.09,582.36 805.531,582.36 C 804.137,582.36 803.027,582.766 802.211,583.579 C 801.398,584.391 800.992,585.489 800.992,586.875 C 800.992,588.309 801.379,589.442 802.148,590.282 C 802.926,591.125 803.969,591.547 805.281,591.547 C 806.457,591.547 807.387,591.168 808.07,590.407 C 808.758,589.653 809.102,588.622 809.102,587.321 M 807.664,587.743 C 807.652,588.528 807.434,589.157 807,589.625 C 806.574,590.094 806.004,590.329 805.297,590.329 C 804.496,590.329 803.852,590.102 803.367,589.649 C 802.887,589.196 802.613,588.559 802.539,587.735 L 807.664,587.743"
         style="fill:#000000;fill-opacity:1;fill-rule:nonzero;stroke:none"
         id="path2746" /><path
         d="M 816.5,589.993 C 816.34,590.086 816.16,590.153 815.969,590.196 C 815.781,590.243 815.574,590.266 815.344,590.266 C 814.531,590.266 813.906,590 813.469,589.469 C 813.035,588.942 812.82,588.184 812.82,587.196 L 812.82,582.586 L 811.375,582.586 L 811.375,591.336 L 812.82,591.336 L 812.82,589.977 C 813.121,590.508 813.516,590.903 814,591.157 C 814.484,591.418 815.074,591.547 815.766,591.547 C 815.863,591.547 815.973,591.54 816.094,591.524 C 816.215,591.512 816.348,591.497 816.492,591.469 L 816.5,589.993"
         style="fill:#000000;fill-opacity:1;fill-rule:nonzero;stroke:none"
         id="path2748" /><path
         d="M 823.5,587.063 C 823.5,588.106 823.285,588.911 822.852,589.485 C 822.426,590.059 821.824,590.344 821.047,590.344 C 820.277,590.344 819.676,590.059 819.242,589.485 C 818.816,588.911 818.602,588.106 818.602,587.063 C 818.602,586.028 818.816,585.223 819.242,584.649 C 819.676,584.075 820.277,583.79 821.047,583.79 C 821.824,583.79 822.426,584.075 822.852,584.649 C 823.285,585.223 823.5,586.028 823.5,587.063 M 824.938,583.672 C 824.938,582.184 824.605,581.075 823.945,580.352 C 823.285,579.622 822.27,579.258 820.906,579.258 C 820.402,579.258 819.926,579.297 819.477,579.375 C 819.027,579.45 818.594,579.563 818.172,579.719 L 818.172,581.118 C 818.594,580.887 819.012,580.719 819.422,580.61 C 819.832,580.5 820.254,580.446 820.68,580.446 C 821.621,580.446 822.328,580.692 822.797,581.188 C 823.266,581.676 823.5,582.418 823.5,583.415 L 823.5,584.125 C 823.203,583.61 822.824,583.223 822.359,582.969 C 821.895,582.715 821.34,582.586 820.695,582.586 C 819.621,582.586 818.758,582.997 818.102,583.813 C 817.445,584.629 817.117,585.715 817.117,587.063 C 817.117,588.418 817.445,589.504 818.102,590.321 C 818.758,591.137 819.621,591.547 820.695,591.547 C 821.34,591.547 821.895,591.418 822.359,591.165 C 822.824,590.911 823.203,590.524 823.5,590.008 L 823.5,591.336 L 824.938,591.336 L 824.938,583.672"
         style="fill:#000000;fill-opacity:1;fill-rule:nonzero;stroke:none"
         id="path2750" /><path
         d="M 831.539,581.774 C 831.133,580.731 830.738,580.051 830.352,579.735 C 829.965,579.418 829.449,579.258 828.805,579.258 L 827.656,579.258 L 827.656,580.461 L 828.5,580.461 C 828.895,580.461 829.203,580.555 829.422,580.743 C 829.641,580.93 829.883,581.372 830.148,582.071 L 830.406,582.727 L 826.867,591.336 L 828.391,591.336 L 831.125,584.493 L 833.859,591.336 L 835.383,591.336 L 831.539,581.774"
         style="fill:#000000;fill-opacity:1;fill-rule:nonzero;stroke:none"
         id="path2752" /><path
         d="M 730.969,570.008 L 730.969,574.743 L 732.406,574.743 L 732.406,562.586 L 730.969,562.586 L 730.969,563.899 C 730.668,563.379 730.285,562.989 729.82,562.735 C 729.363,562.485 728.809,562.36 728.164,562.36 C 727.105,562.36 726.246,562.782 725.578,563.625 C 724.918,564.469 724.586,565.579 724.586,566.954 C 724.586,568.329 724.918,569.438 725.578,570.282 C 726.246,571.125 727.105,571.547 728.164,571.547 C 728.809,571.547 729.363,571.418 729.82,571.165 C 730.285,570.915 730.668,570.528 730.969,570.008 M 726.07,566.954 C 726.07,565.895 726.285,565.067 726.719,564.461 C 727.156,563.864 727.754,563.563 728.516,563.563 C 729.277,563.563 729.875,563.864 730.312,564.461 C 730.75,565.067 730.969,565.895 730.969,566.954 C 730.969,568.012 730.75,568.84 730.312,569.438 C 729.875,570.043 729.277,570.344 728.516,570.344 C 727.754,570.344 727.156,570.043 726.719,569.438 C 726.285,568.84 726.07,568.012 726.07,566.954"
         style="fill:#000000;fill-opacity:1;fill-rule:nonzero;stroke:none"
         id="path2754" /><path
         d="M 735.367,571.336 L 736.805,571.336 L 736.805,562.586 L 735.367,562.586 L 735.367,571.336 M 735.367,574.743 L 736.805,574.743 L 736.805,572.922 L 735.367,572.922 L 735.367,574.743"
         style="fill:#000000;fill-opacity:1;fill-rule:nonzero;stroke:none"
         id="path2756" /><path
         d="M 745.383,571.079 L 745.383,569.719 C 744.977,569.926 744.555,570.083 744.117,570.188 C 743.68,570.293 743.227,570.344 742.758,570.344 C 742.043,570.344 741.508,570.235 741.148,570.016 C 740.793,569.797 740.617,569.469 740.617,569.032 C 740.617,568.7 740.746,568.434 741,568.243 C 741.254,568.055 741.77,567.875 742.539,567.704 L 743.031,567.594 C 744.051,567.375 744.777,567.067 745.203,566.665 C 745.637,566.27 745.852,565.715 745.852,565 C 745.852,564.188 745.527,563.543 744.883,563.071 C 744.242,562.598 743.359,562.36 742.234,562.36 C 741.766,562.36 741.277,562.407 740.766,562.5 C 740.262,562.59 739.727,562.723 739.164,562.907 L 739.164,564.391 C 739.695,564.114 740.219,563.907 740.734,563.766 C 741.25,563.629 741.762,563.563 742.266,563.563 C 742.941,563.563 743.465,563.676 743.828,563.907 C 744.191,564.141 744.375,564.469 744.375,564.891 C 744.375,565.282 744.242,565.583 743.977,565.79 C 743.715,565.997 743.141,566.2 742.25,566.391 L 741.75,566.508 C 740.859,566.696 740.215,566.981 739.82,567.368 C 739.426,567.758 739.227,568.293 739.227,568.969 C 739.227,569.793 739.52,570.426 740.102,570.875 C 740.684,571.325 741.512,571.547 742.586,571.547 C 743.117,571.547 743.617,571.508 744.086,571.43 C 744.555,571.352 744.988,571.235 745.383,571.079"
         style="fill:#000000;fill-opacity:1;fill-rule:nonzero;stroke:none"
         id="path2758" /><path
         d="M 753.727,571.079 L 753.727,569.719 C 753.32,569.926 752.898,570.083 752.461,570.188 C 752.023,570.293 751.57,570.344 751.102,570.344 C 750.387,570.344 749.852,570.235 749.492,570.016 C 749.137,569.797 748.961,569.469 748.961,569.032 C 748.961,568.7 749.09,568.434 749.344,568.243 C 749.598,568.055 750.113,567.875 750.883,567.704 L 751.375,567.594 C 752.395,567.375 753.121,567.067 753.547,566.665 C 753.98,566.27 754.195,565.715 754.195,565 C 754.195,564.188 753.871,563.543 753.227,563.071 C 752.586,562.598 751.703,562.36 750.578,562.36 C 750.109,562.36 749.621,562.407 749.109,562.5 C 748.605,562.59 748.07,562.723 747.508,562.907 L 747.508,564.391 C 748.039,564.114 748.562,563.907 749.078,563.766 C 749.594,563.629 750.105,563.563 750.609,563.563 C 751.285,563.563 751.809,563.676 752.172,563.907 C 752.535,564.141 752.719,564.469 752.719,564.891 C 752.719,565.282 752.586,565.583 752.32,565.79 C 752.059,565.997 751.484,566.2 750.594,566.391 L 750.094,566.508 C 749.203,566.696 748.559,566.981 748.164,567.368 C 747.77,567.758 747.57,568.293 747.57,568.969 C 747.57,569.793 747.863,570.426 748.445,570.875 C 749.027,571.325 749.855,571.547 750.93,571.547 C 751.461,571.547 751.961,571.508 752.43,571.43 C 752.898,571.352 753.332,571.235 753.727,571.079"
         style="fill:#000000;fill-opacity:1;fill-rule:nonzero;stroke:none"
         id="path2760" /><path
         d="M 756.492,571.336 L 757.93,571.336 L 757.93,562.586 L 756.492,562.586 L 756.492,571.336 M 756.492,574.743 L 757.93,574.743 L 757.93,572.922 L 756.492,572.922 L 756.492,574.743"
         style="fill:#000000;fill-opacity:1;fill-rule:nonzero;stroke:none"
         id="path2762" /><path
         d="M 762.32,563.899 L 762.32,559.258 L 760.875,559.258 L 760.875,571.336 L 762.32,571.336 L 762.32,570.008 C 762.621,570.528 763.004,570.915 763.461,571.165 C 763.926,571.418 764.477,571.547 765.117,571.547 C 766.18,571.547 767.043,571.125 767.703,570.282 C 768.371,569.438 768.703,568.329 768.703,566.954 C 768.703,565.579 768.371,564.469 767.703,563.625 C 767.043,562.782 766.18,562.36 765.117,562.36 C 764.477,562.36 763.926,562.485 763.461,562.735 C 763.004,562.989 762.621,563.379 762.32,563.899 M 767.211,566.954 C 767.211,568.012 766.992,568.84 766.555,569.438 C 766.121,570.043 765.527,570.344 764.766,570.344 C 764.004,570.344 763.406,570.043 762.969,569.438 C 762.535,568.84 762.32,568.012 762.32,566.954 C 762.32,565.895 762.535,565.067 762.969,564.461 C 763.406,563.864 764.004,563.563 764.766,563.563 C 765.527,563.563 766.121,563.864 766.555,564.461 C 766.992,565.067 767.211,565.895 767.211,566.954"
         style="fill:#000000;fill-opacity:1;fill-rule:nonzero;stroke:none"
         id="path2764" /><path
         d="M 775.062,566.985 C 773.902,566.985 773.098,566.852 772.648,566.586 C 772.199,566.321 771.977,565.868 771.977,565.227 C 771.977,564.715 772.145,564.309 772.477,564.008 C 772.816,563.711 773.273,563.563 773.852,563.563 C 774.648,563.563 775.285,563.844 775.766,564.407 C 776.25,564.973 776.492,565.727 776.492,566.665 L 776.492,566.985 L 775.062,566.985 M 777.93,567.579 L 777.93,562.586 L 776.492,562.586 L 776.492,563.915 C 776.164,563.383 775.754,562.989 775.266,562.735 C 774.777,562.485 774.176,562.36 773.469,562.36 C 772.574,562.36 771.859,562.61 771.328,563.11 C 770.801,563.614 770.539,564.29 770.539,565.133 C 770.539,566.118 770.867,566.86 771.523,567.36 C 772.184,567.86 773.168,568.11 774.477,568.11 L 776.492,568.11 L 776.492,568.25 C 776.492,568.911 776.273,569.422 775.836,569.782 C 775.402,570.145 774.793,570.329 774.008,570.329 C 773.508,570.329 773.02,570.27 772.547,570.149 C 772.074,570.028 771.617,569.848 771.18,569.61 L 771.18,570.938 C 771.707,571.141 772.215,571.293 772.711,571.391 C 773.207,571.497 773.688,571.547 774.156,571.547 C 775.422,571.547 776.367,571.219 776.992,570.563 C 777.617,569.907 777.93,568.911 777.93,567.579"
         style="fill:#000000;fill-opacity:1;fill-rule:nonzero;stroke:none"
         id="path2766" /><path
         d="M 782.352,573.821 L 782.352,571.336 L 785.312,571.336 L 785.312,570.219 L 782.352,570.219 L 782.352,565.469 C 782.352,564.754 782.449,564.297 782.641,564.094 C 782.84,563.891 783.238,563.79 783.836,563.79 L 785.312,563.79 L 785.312,562.586 L 783.836,562.586 C 782.727,562.586 781.961,562.793 781.539,563.204 C 781.117,563.622 780.906,564.375 780.906,565.469 L 780.906,570.219 L 779.852,570.219 L 779.852,571.336 L 780.906,571.336 L 780.906,573.821 L 782.352,573.821"
         style="fill:#000000;fill-opacity:1;fill-rule:nonzero;stroke:none"
         id="path2768" /><path
         d="M 787.211,571.336 L 788.648,571.336 L 788.648,562.586 L 787.211,562.586 L 787.211,571.336 M 787.211,574.743 L 788.648,574.743 L 788.648,572.922 L 787.211,572.922 L 787.211,574.743"
         style="fill:#000000;fill-opacity:1;fill-rule:nonzero;stroke:none"
         id="path2770" /><path
         d="M 795.039,570.329 C 794.27,570.329 793.66,570.028 793.211,569.422 C 792.762,568.825 792.539,568 792.539,566.954 C 792.539,565.907 792.762,565.083 793.203,564.477 C 793.652,563.879 794.262,563.579 795.039,563.579 C 795.805,563.579 796.41,563.879 796.859,564.485 C 797.309,565.09 797.531,565.911 797.531,566.954 C 797.531,567.989 797.309,568.809 796.859,569.415 C 796.41,570.024 795.805,570.329 795.039,570.329 M 795.039,571.547 C 796.289,571.547 797.27,571.141 797.984,570.329 C 798.699,569.516 799.055,568.391 799.055,566.954 C 799.055,565.52 798.699,564.395 797.984,563.579 C 797.27,562.766 796.289,562.36 795.039,562.36 C 793.785,562.36 792.801,562.766 792.086,563.579 C 791.379,564.395 791.023,565.52 791.023,566.954 C 791.023,568.391 791.379,569.516 792.086,570.329 C 792.801,571.141 793.785,571.547 795.039,571.547"
         style="fill:#000000;fill-opacity:1;fill-rule:nonzero;stroke:none"
         id="path2772" /><path
         d="M 808.703,567.868 L 808.703,562.586 L 807.266,562.586 L 807.266,567.821 C 807.266,568.649 807.105,569.27 806.781,569.68 C 806.457,570.09 805.973,570.297 805.328,570.297 C 804.551,570.297 803.941,570.051 803.492,569.555 C 803.043,569.059 802.82,568.387 802.82,567.532 L 802.82,562.586 L 801.375,562.586 L 801.375,571.336 L 802.82,571.336 L 802.82,569.977 C 803.164,570.504 803.566,570.895 804.031,571.157 C 804.5,571.418 805.039,571.547 805.648,571.547 C 806.652,571.547 807.414,571.235 807.93,570.61 C 808.445,569.989 808.703,569.075 808.703,567.868"
         style="fill:#000000;fill-opacity:1;fill-rule:nonzero;stroke:none"
         id="path2774" /><path
         d="M 92.16,292.485 L 107.949,292.485 L 107.949,290.36 L 101.324,290.36 L 101.324,273.821 L 98.785,273.821 L 98.785,290.36 L 92.16,290.36 L 92.16,292.485"
         style="fill:#000000;fill-opacity:1;fill-rule:nonzero;stroke:none"
         id="path2776" /><path
         d="M 104.762,287.821 L 107.059,287.821 L 109.934,276.895 L 112.797,287.821 L 115.512,287.821 L 118.387,276.895 L 121.246,287.821 L 123.547,287.821 L 119.887,273.821 L 117.172,273.821 L 114.16,285.297 L 111.137,273.821 L 108.422,273.821 L 104.762,287.821"
         style="fill:#000000;fill-opacity:1;fill-rule:nonzero;stroke:none"
         id="path2778" /><path
         d="M 127.047,287.821 L 129.348,287.821 L 129.348,273.821 L 127.047,273.821 L 127.047,287.821 M 127.047,293.27 L 129.348,293.27 L 129.348,290.36 L 127.047,290.36 L 127.047,293.27"
         style="fill:#000000;fill-opacity:1;fill-rule:nonzero;stroke:none"
         id="path2780" /><path
         d="M 143.074,287.407 L 143.074,285.235 C 142.422,285.567 141.746,285.817 141.047,285.985 C 140.348,286.149 139.621,286.235 138.871,286.235 C 137.73,286.235 136.871,286.059 136.297,285.708 C 135.73,285.36 135.449,284.833 135.449,284.133 C 135.449,283.602 135.652,283.18 136.059,282.872 C 136.469,282.571 137.289,282.282 138.523,282.008 L 139.309,281.833 C 140.945,281.485 142.102,280.989 142.785,280.344 C 143.477,279.711 143.824,278.825 143.824,277.684 C 143.824,276.383 143.305,275.356 142.273,274.594 C 141.246,273.836 139.836,273.458 138.035,273.458 C 137.285,273.458 136.5,273.532 135.684,273.684 C 134.875,273.825 134.023,274.043 133.121,274.333 L 133.121,276.708 C 133.973,276.266 134.809,275.934 135.637,275.708 C 136.461,275.493 137.277,275.383 138.086,275.383 C 139.168,275.383 140,275.567 140.586,275.934 C 141.168,276.309 141.461,276.833 141.461,277.508 C 141.461,278.133 141.246,278.614 140.824,278.946 C 140.406,279.278 139.484,279.602 138.059,279.907 L 137.262,280.094 C 135.836,280.395 134.805,280.856 134.172,281.469 C 133.539,282.094 133.223,282.95 133.223,284.032 C 133.223,285.352 133.688,286.368 134.621,287.083 C 135.555,287.801 136.883,288.157 138.598,288.157 C 139.449,288.157 140.246,288.094 140.996,287.969 C 141.746,287.844 142.438,287.657 143.074,287.407"
         style="fill:#000000;fill-opacity:1;fill-rule:nonzero;stroke:none"
         id="path2782" /><path
         d="M 149.773,291.797 L 149.773,287.821 L 154.512,287.821 L 154.512,286.032 L 149.773,286.032 L 149.773,278.434 C 149.773,277.293 149.926,276.559 150.234,276.235 C 150.551,275.907 151.188,275.747 152.148,275.747 L 154.512,275.747 L 154.512,273.821 L 152.148,273.821 C 150.371,273.821 149.148,274.149 148.473,274.809 C 147.797,275.477 147.461,276.684 147.461,278.434 L 147.461,286.032 L 145.773,286.032 L 145.773,287.821 L 147.461,287.821 L 147.461,291.797 L 149.773,291.797"
         style="fill:#000000;fill-opacity:1;fill-rule:nonzero;stroke:none"
         id="path2784" /><path
         d="M 156.387,281.86 L 163.121,281.86 L 163.121,279.809 L 156.387,279.809 L 156.387,281.86 z"
         style="fill:#000000;fill-opacity:1;fill-rule:nonzero;stroke:none"
         id="path2786" /><path
         d="M 167.559,275.946 L 171.684,275.946 L 171.684,290.184 L 167.199,289.282 L 167.199,291.583 L 171.66,292.485 L 174.184,292.485 L 174.184,275.946 L 178.309,275.946 L 178.309,273.821 L 167.559,273.821 L 167.559,275.946"
         style="fill:#000000;fill-opacity:1;fill-rule:nonzero;stroke:none"
         id="path2788" /><g
         id="g2790"
         transform="matrix(1,0,0,-0.828104,0,738.68799)"><path
           d="M 81.273,478.857 L 126.176,478.857 C 130.008,478.857 133.09,481.937 133.09,485.772 L 133.09,507.565 C 133.09,511.4 130.008,514.485 126.176,514.485 L 81.273,514.485 C 77.441,514.485 74.355,511.4 74.355,507.565 L 74.355,485.772 C 74.355,481.937 77.441,478.857 81.273,478.857 z"
           style="fill:#ffffff;fill-opacity:1;fill-rule:nonzero;stroke:#000000;stroke-opacity:1;stroke-width:3.248114;stroke-linecap:butt;stroke-linejoin:miter;stroke-miterlimit:4;stroke-dasharray:none"
           id="path2792" /></g><g
         id="g2794"
         transform="matrix(1,0,0,-0.828104,0,738.68799)"><path
           d="M 74.371,477.913 L 133.289,477.913 L 133.289,501.244 L 74.371,501.244 L 74.371,477.913 z"
           style="fill:#ffffff;fill-opacity:1;fill-rule:nonzero;stroke:#000000;stroke-opacity:1;stroke-width:3.248114;stroke-linecap:butt;stroke-linejoin:miter;stroke-miterlimit:4;stroke-dasharray:none"
           id="path2796" /></g><path
         d="M 76.148,327.356 L 131.484,327.356 L 131.484,320.477 L 76.148,320.477 L 76.148,327.356 z"
         style="fill:#ffffff;fill-opacity:1;fill-rule:nonzero;stroke:none"
         id="path2798" /><g
         id="g2800"
         transform="matrix(1,0,0,-0.828104,0,738.68799)"><path
           d="M 76.148,496.716 L 131.484,496.716 L 131.484,505.022 L 76.148,505.022 L 76.148,496.716 z"
           style="fill:none;stroke:#000000;stroke-opacity:0;stroke-width:5.452925;stroke-linecap:butt;stroke-linejoin:miter;stroke-miterlimit:4;stroke-dasharray:none"
           id="path2802" /></g><g
         id="g2804"
         transform="matrix(1,0,0,-1,0,738.68799)"><path
           d="M 143.59,482.883 C 143.094,588.512 143.094,588.512 143.094,588.512 L 143.094,588.512 L 143.094,588.512 L 143.094,588.512 L 143.094,588.512"
           style="fill:none;stroke:#000000;stroke-opacity:1;stroke-width:3.509053;stroke-linecap:butt;stroke-linejoin:miter;stroke-miterlimit:4;stroke-dasharray:none"
           id="path2806" /></g><g
         id="g2808"
         transform="matrix(-4.69068e-3,-1,-1,4.69068e-3,0,738.68799)"><path
           d="M 587.183,-145.852 L 562.901,-131.816 L 562.898,-159.886 L 587.183,-145.852 z"
           style="fill:#ffffff;fill-opacity:1;fill-rule:evenodd;stroke:#000000;stroke-opacity:1;stroke-width:3.509014;stroke-linecap:butt;stroke-linejoin:miter;stroke-miterlimit:4;stroke-dasharray:none"
           id="path2810" /></g><g
         id="g2812"
         transform="matrix(1,0,0,-1,0,738.68799)"><path
           d="M 126.379,552.117 C 159.684,551.695 159.684,551.695 159.684,551.695 L 159.684,551.695 L 159.684,551.695 L 159.684,551.695 L 159.684,551.695 L 159.684,551.695 L 159.684,551.695 L 159.684,551.695 L 159.684,551.695"
           style="fill:none;stroke:#000000;stroke-opacity:1;stroke-width:3.2;stroke-linecap:butt;stroke-linejoin:miter;stroke-miterlimit:4;stroke-dasharray:none"
           id="path2814" /></g><g
         id="g2816"
         transform="matrix(1,0,0,-1,0,738.68799)"><path
           d="M 353.172,261.199 C 411.102,260.199 411.102,260.199 411.102,260.199 L 411.102,260.199 L 411.102,260.199 L 411.102,260.199 L 411.102,260.199 L 411.102,260.199"
           style="fill:none;stroke:#000000;stroke-opacity:1;stroke-width:3.680393;stroke-linecap:butt;stroke-linejoin:miter;stroke-miterlimit:4;stroke-dasharray:none"
           id="path2818" /></g><g
         id="g2820"
         transform="matrix(1,0,0,-1,0,738.68799)"><path
           d="M 308.41,260.93 C 308.41,260.93 308.41,260.93 331.125,238.215 C 353.836,262.125 353.836,262.125 353.836,262.125 L 353.836,262.125 L 353.836,262.125"
           style="fill:none;stroke:#000000;stroke-opacity:1;stroke-width:4;stroke-linecap:butt;stroke-linejoin:miter;stroke-miterlimit:4;stroke-dasharray:none"
           id="path2822" /></g><g
         id="g2824"
         transform="matrix(1,0,0,-1,0,738.68799)"><path
           d="M 128.176,366.68 C 161.27,366.68 161.27,366.68 161.27,366.68"
           style="fill:none;stroke:#000000;stroke-opacity:1;stroke-width:3.2;stroke-linecap:butt;stroke-linejoin:miter;stroke-miterlimit:4;stroke-dasharray:none"
           id="path2826" /></g><path
         d="M 322.41,550.711 C 321.035,550.758 319.941,550.282 319.129,549.282 C 318.324,548.286 317.922,546.903 317.922,545.133 C 317.922,543.372 318.324,541.965 319.129,540.911 C 319.941,539.86 321.035,539.309 322.41,539.262 C 323.785,539.215 324.875,539.692 325.672,540.692 C 326.48,541.688 326.883,543.071 326.883,544.833 C 326.883,546.602 326.48,548.012 325.672,549.063 C 324.875,550.114 323.785,550.665 322.41,550.711 M 322.41,552.247 C 324.375,552.18 325.941,551.469 327.117,550.11 C 328.293,548.758 328.879,546.977 328.879,544.766 C 328.879,542.559 328.293,540.817 327.117,539.536 C 325.941,538.262 324.375,537.661 322.41,537.727 C 320.441,537.793 318.867,538.5 317.688,539.852 C 316.512,541.208 315.922,542.989 315.922,545.2 C 315.922,547.415 316.512,549.157 317.688,550.43 C 318.867,551.708 320.441,552.313 322.41,552.247"
         style="fill:#000000;fill-opacity:1;fill-rule:nonzero;stroke:none"
         id="path2828" /><path
         d="M 338.48,544.02 C 338.887,543.868 339.281,543.563 339.66,543.098 C 340.047,542.637 340.438,542.004 340.824,541.204 L 342.746,537.313 L 340.711,537.383 L 338.922,541.032 C 338.457,541.985 338.008,542.622 337.57,542.946 C 337.141,543.266 336.547,543.438 335.797,543.461 L 333.734,543.532 L 333.734,537.618 L 331.844,537.68 L 331.844,551.676 L 336.117,551.536 C 337.719,551.481 338.91,551.106 339.699,550.411 C 340.484,549.715 340.879,548.692 340.879,547.344 C 340.879,546.461 340.672,545.735 340.262,545.168 C 339.855,544.602 339.262,544.219 338.48,544.02 M 333.734,550.059 L 333.734,545.09 L 336.117,545.008 C 337.031,544.977 337.719,545.165 338.18,545.567 C 338.648,545.977 338.883,546.59 338.883,547.411 C 338.883,548.227 338.648,548.852 338.18,549.282 C 337.719,549.715 337.031,549.946 336.117,549.977 L 333.734,550.059"
         style="fill:#000000;fill-opacity:1;fill-rule:nonzero;stroke:none"
         id="path2830" /></g></g></svg>