<?xml version="1.0" encoding="UTF-8" standalone="no"?>
<!-- Generator: Adobe Illustrator 13.0.2, SVG Export Plug-In . SVG Version: 6.00 Build 14948)  -->
<svg
   xmlns:dc="http://purl.org/dc/elements/1.1/"
   xmlns:cc="http://creativecommons.org/ns#"
   xmlns:rdf="http://www.w3.org/1999/02/22-rdf-syntax-ns#"
   xmlns:svg="http://www.w3.org/2000/svg"
   xmlns="http://www.w3.org/2000/svg"
   xmlns:sodipodi="http://sodipodi.sourceforge.net/DTD/sodipodi-0.dtd"
   xmlns:inkscape="http://www.inkscape.org/namespaces/inkscape"
   version="1.1"
   id="Ebene_1"
   x="0px"
   y="0px"
   width="1175.043px"
   height="246.043px"
   viewBox="0 0 1175.043 246.043"
   enable-background="new 0 0 1175.043 246.043"
   xml:space="preserve"
   sodipodi:version="0.32"
   inkscape:version="0.46"
   sodipodi:docname="layout-orientation.svg"
   inkscape:output_extension="org.inkscape.output.svg.inkscape"><metadata
   id="metadata21"><rdf:RDF><cc:Work
       rdf:about=""><dc:format>image/svg+xml</dc:format><dc:type
         rdf:resource="http://purl.org/dc/dcmitype/StillImage" /></cc:Work></rdf:RDF></metadata><defs
   id="defs19"><inkscape:perspective
     sodipodi:type="inkscape:persp3d"
     inkscape:vp_x="0 : 123.0215 : 1"
     inkscape:vp_y="0 : 1000 : 0"
     inkscape:vp_z="1175.043 : 123.0215 : 1"
     inkscape:persp3d-origin="587.52148 : 82.014333 : 1"
     id="perspective23" /><inkscape:perspective
     sodipodi:type="inkscape:persp3d"
     inkscape:vp_x="0 : 123.0215 : 1"
     inkscape:vp_y="0 : 1000 : 0"
     inkscape:vp_z="784.04303 : 123.0215 : 1"
     inkscape:persp3d-origin="392.02151 : 82.014333 : 1"
     id="perspective253" /><inkscape:perspective
     id="perspective261"
     inkscape:persp3d-origin="587.52148 : 82.014333 : 1"
     inkscape:vp_z="1175.043 : 123.0215 : 1"
     inkscape:vp_y="0 : 1000 : 0"
     inkscape:vp_x="0 : 123.0215 : 1"
     sodipodi:type="inkscape:persp3d" /></defs><sodipodi:namedview
   inkscape:window-height="750"
   inkscape:window-width="1280"
   inkscape:pageshadow="2"
   inkscape:pageopacity="0.0"
   guidetolerance="10.0"
   gridtolerance="10.0"
   objecttolerance="10.0"
   borderopacity="1.0"
   bordercolor="#666666"
   pagecolor="#ffffff"
   id="base"
   showgrid="false"
   showguides="true"
   inkscape:guide-bbox="true"
   inkscape:zoom="0.46296179"
   inkscape:cx="686.8876"
   inkscape:cy="123.0215"
   inkscape:window-x="-8"
   inkscape:window-y="-8"
   inkscape:current-layer="Ebene_1" />
<rect
   x="392.021"
   y="1.021"
   fill="#FFFFFF"
   stroke="#000000"
   stroke-width="2.0425"
   width="391"
   height="244"
   id="rect3" />
<rect
   x="1.021"
   y="1.021"
   fill="#FFFFFF"
   stroke="#000000"
   stroke-width="2.0425"
   width="391"
   height="244"
   id="rect5" />
<text
   transform="matrix(0.9448 0 0 1 138.2654 228.1016)"
   font-family="'ArialMT'"
   font-size="27.2107"
   id="text7">wrong</text>

<text
   transform="matrix(0.9448 0 0 1 557.2659 228.1016)"
   font-family="'ArialMT'"
   font-size="27.2107"
   id="text9">correct</text>

<rect
   x="783.021"
   y="1.021"
   fill="#FFFFFF"
   stroke="#000000"
   stroke-width="2.0425"
   width="391"
   height="244"
   id="rect11" />
<text
   transform="matrix(0.9448 0 0 1 976.762 228.0938)"
   font-family="'ArialMT'"
   font-size="27.2107"
   id="text13">correct</text>




<g
   id="g2589"
   transform="matrix(0.7660444,-0.6427876,0.6427876,0.7660444,-34.746317,126.31221)"><rect
     style="fill:#ffffff;stroke:#000000;stroke-width:2.08170795;stroke-miterlimit:4;stroke-dasharray:none"
     id="rect3404"
     height="86.657578"
     width="167.35983"
     y="81.822319"
     x="91.699234" /><path
     style="fill:#ffffff;stroke:#000000;stroke-width:2;stroke-miterlimit:4;stroke-dasharray:none"
     d="M 152.85271,67.256176 L 193.25489,67.256176 C 195.79099,67.256176 197.84606,69.339876 197.84606,71.910926 L 197.84606,90.641796 C 197.84606,93.212546 195.79099,95.296546 193.25489,95.296546 L 152.85271,95.296546 C 150.31725,95.296546 148.26186,93.212546 148.26186,90.641796 L 148.26186,71.910926 C 148.26186,69.339566 150.31758,67.256176 152.85271,67.256176 z"
     id="path3406" /></g><g
   id="g2593"
   transform="matrix(0,-1,1,0,472.19885,710.44418)"><rect
     style="fill:#ffffff;stroke:#000000;stroke-width:2.08170795;stroke-miterlimit:4;stroke-dasharray:none"
     id="rect2574"
     height="86.657578"
     width="167.35983"
     y="76.056519"
     x="514.6416" /><path
     style="fill:#ffffff;stroke:#000000;stroke-width:2;stroke-miterlimit:4;stroke-dasharray:none"
     d="M 575.79509,61.490377 L 616.19727,61.490377 C 618.73337,61.490377 620.78844,63.574077 620.78844,66.145127 L 620.78844,84.875997 C 620.78844,87.446747 618.73337,89.530747 616.19727,89.530747 L 575.79509,89.530747 C 573.25963,89.530747 571.20424,87.446747 571.20424,84.875997 L 571.20424,66.145127 C 571.20424,63.573767 573.25996,61.490377 575.79509,61.490377 z"
     id="path2576" /></g><rect
   x="922.88263"
   y="73.896515"
   width="167.35983"
   height="86.657578"
   id="rect2585"
   style="fill:#ffffff;stroke:#000000;stroke-width:2.08170795;stroke-miterlimit:4;stroke-dasharray:none" /><path
   id="path2587"
   d="M 984.03613,59.330368 L 1024.4383,59.330368 C 1026.9744,59.330368 1029.0295,61.414068 1029.0295,63.985118 L 1029.0295,82.715988 C 1029.0295,85.286738 1026.9744,87.370737 1024.4383,87.370737 L 984.03613,87.370737 C 981.50067,87.370737 979.44528,85.286738 979.44528,82.715988 L 979.44528,63.985118 C 979.44528,61.413758 981.501,59.330368 984.03613,59.330368 z"
   style="fill:#ffffff;stroke:#000000;stroke-width:2;stroke-miterlimit:4;stroke-dasharray:none" /></svg>